<?xml version="1.0" encoding="UTF-8" standalone="no"?>
<!-- Created with Inkscape (http://www.inkscape.org/) -->

<svg
   xmlns:dc="http://purl.org/dc/elements/1.1/"
   xmlns:cc="http://creativecommons.org/ns#"
   xmlns:rdf="http://www.w3.org/1999/02/22-rdf-syntax-ns#"
   xmlns:svg="http://www.w3.org/2000/svg"
   xmlns="http://www.w3.org/2000/svg"
   xmlns:sodipodi="http://sodipodi.sourceforge.net/DTD/sodipodi-0.dtd"
   xmlns:inkscape="http://www.inkscape.org/namespaces/inkscape"
   id="svg2"
   version="1.1"
   inkscape:version="0.91 r13725"
   width="201.63652"
   height="53.317383"
   viewBox="0 0 201.63652 53.317384"
   sodipodi:docname="ros.svg"
   inkscape:export-filename="/tmp/ros.svg"
   inkscape:export-xdpi="35.643566"
   inkscape:export-ydpi="35.643566">
  <metadata
     id="metadata8">
    <rdf:RDF>
      <cc:Work
         rdf:about="">
        <dc:format>image/svg+xml</dc:format>
        <dc:type
           rdf:resource="http://purl.org/dc/dcmitype/StillImage" />
        <dc:title></dc:title>
      </cc:Work>
    </rdf:RDF>
  </metadata>
  <defs
     id="defs6" />
  <sodipodi:namedview
     pagecolor="#ffffff"
     bordercolor="#666666"
     borderopacity="1"
     objecttolerance="10"
     gridtolerance="10"
     guidetolerance="10"
     inkscape:pageopacity="0"
     inkscape:pageshadow="2"
     inkscape:window-width="1863"
     inkscape:window-height="1056"
     id="namedview4"
     showgrid="false"
     inkscape:zoom="1.7315718"
     inkscape:cx="276.875"
     inkscape:cy="-24.223804"
     inkscape:window-x="57"
     inkscape:window-y="24"
     inkscape:window-maximized="1"
     inkscape:current-layer="svg2"
     fit-margin-top="0"
     fit-margin-left="0"
     fit-margin-right="0"
     fit-margin-bottom="0" />
  <path
     style="fill:#410069;fill-opacity:1"
     d="m 131.87278,52.893732 c -10.0769,-1.975329 -16.61399,-12.231327 -16.61399,-26.065617 0,-9.328807 2.34403,-16.223271 7.14951,-21.0287522 2.84001,-2.8400029 5.07189,-4.1294128 8.852,-5.11400668 11.37987,-2.96407932 21.91216,4.20353078 25.11157,17.08934188 1.05,4.228901 1.05,13.620115 0,17.849013 -3.12728,12.595286 -12.96593,19.530808 -24.49909,17.270021 z m 10.39583,-8.801445 c 2.89949,-1.577099 4.99043,-4.37715 6.29027,-8.423527 1.45279,-4.522532 1.45195,-13.389387 -0.002,-18.012348 -1.27109,-4.042371 -3.75471,-7.281582 -6.69173,-8.7275727 -2.96191,-1.458242 -8.45017,-1.4837241 -11.19166,-0.051962 -2.50901,1.3103477 -5.32693,4.6208287 -6.41992,7.5421117 -2.10703,5.631549 -2.0958,14.958911 0.0249,20.626833 2.81675,7.528428 11.12261,10.781747 17.98992,7.046465 z m 35.67914,8.625979 c -3.67251,-0.934868 -7.50856,-2.997747 -10.19135,-5.480506 l -2.32426,-2.150968 2.68473,-2.642973 2.68475,-2.64298 1.92352,1.646466 c 1.05794,0.905556 3.04103,2.18953 4.40687,2.853273 2.1805,1.059639 3.03026,1.208512 6.96812,1.22075 3.68354,0.01145 4.80073,-0.151801 6.25327,-0.91379 2.48468,-1.303438 3.50417,-2.860384 3.71189,-5.668716 0.33091,-4.473913 -1.76699,-6.243775 -11.04008,-9.313806 -7.34988,-2.433315 -10.13824,-3.800383 -12.43392,-6.096062 -4.51751,-4.517504 -4.45988,-13.016625 0.12281,-18.1136798 6.34949,-7.0621686 18.44312,-7.2398717 27.09851,-0.398184 l 2.27165,1.7956383 -2.38447,2.5433545 c -1.31146,1.398845 -2.52001,2.605109 -2.68567,2.680587 -0.16566,0.07548 -1.23446,-0.575138 -2.3751,-1.445812 -2.48138,-1.8940797 -5.7771,-2.9528672 -9.18089,-2.9494585 -3.606,0.00363 -5.59142,0.693332 -7.16946,2.4906255 -1.13605,1.293882 -1.38233,1.960346 -1.38233,3.740687 0,3.808288 1.98698,5.320002 10.92166,8.309299 8.71911,2.917175 12.72539,5.526243 14.72732,9.591077 1.43508,2.913904 1.44291,9.148512 0.0155,12.325927 -1.82445,4.061142 -4.47816,6.432129 -8.92124,7.970774 -3.48615,1.207259 -10.24929,1.527343 -13.7018,0.648477 z M 2.3067351,51.350803 c -2.70575655,-2.276742 -2.92431162,-6.250155 -0.4783256,-8.696142 4.6137034,-4.613702 11.7537115,1.256843 8.7032275,7.155826 -1.4337524,2.772572 -5.7907435,3.588525 -8.2249019,1.540316 z m 20.4591489,0.433829 c -2.720005,-1.475858 -3.511032,-6.200478 -1.448512,-8.651642 2.33229,-2.771769 6.142313,-2.792119 8.453732,-0.04515 2.182088,2.59326 1.892045,6.095036 -0.684395,8.262966 -1.569152,1.320359 -4.33686,1.510319 -6.320825,0.433829 z m 19.196288,-0.67765 c -4.8063,-4.219982 -0.143534,-12.120582 5.709894,-9.67486 3.817095,1.594884 4.619368,6.711021 1.500571,9.569181 -2.247315,2.059514 -4.94022,2.09898 -7.210465,0.105679 z m 25.757974,-24.437366 0,-25.81706377 13.566453,0.14170893 C 94.849532,1.1359339 94.853701,1.1362755 97.358464,2.3108994 c 4.462356,2.0926495 6.982206,5.3756073 8.032826,10.4654936 1.51076,7.319055 -1.7701,14.61619 -7.868737,17.501309 -1.344895,0.636239 -2.445262,1.329593 -2.445262,1.540797 0,0.211198 2.208785,4.947936 4.90841,10.526085 l 4.908409,10.142092 -4.2582,0 -4.258188,0 -5.022872,-10.20287 -5.022876,-10.202868 -5.605972,0 -5.605973,0 -0.120536,10.202868 -0.120544,10.20287 -3.579398,0 -3.579405,0 0,-25.81706 z M 94.197428,23.671979 C 99.300943,21.098427 99.611936,12.386278 94.709112,9.3376017 93.155962,8.3718213 92.526216,8.3030959 83.977466,8.1664389 l -9.081676,-0.1451765 0,8.3298966 0,8.329895 8.65029,0 c 8.078779,0 8.782494,-0.06667 10.651348,-1.009075 z M 2.5181486,31.368619 C 1.0177123,30.18838 0,28.24641 0,26.56356 0,24.754544 1.7102363,22.3712 3.7129691,21.389258 8.351657,19.114905 13.039368,24.779572 10.531637,29.628991 9.1733013,32.255722 4.8414325,33.196119 2.5181486,31.368619 Z M 22.354017,31.293874 C 20.739437,29.929016 20.1815,28.681092 20.1815,26.43466 c 0,-3.862187 3.881902,-6.615999 7.308186,-5.184406 4.181604,1.747186 5.031968,7.028737 1.597023,9.919051 -1.811374,1.524171 -5.007065,1.583295 -6.732692,0.124569 z m 19.544396,-0.446519 c -3.118306,-2.857715 -2.375476,-7.690763 1.441569,-9.379221 5.021114,-2.221076 9.493787,2.843073 7.053296,7.986034 -0.887318,1.869879 -2.635976,2.851009 -5.081339,2.851009 -1.43129,0 -2.164415,-0.313095 -3.413526,-1.457822 z M 3.5967617,11.792573 C 1.6922143,10.828432 0,8.4105167 0,6.6533492 0,3.6393327 2.5959477,0.91173156 5.4644862,0.91173156 c 3.5077371,0 5.7491988,2.22197214 5.7457818,5.69582044 -0.0041,4.21435 -4.06624,6.980756 -7.6135063,5.185021 z M 23.507046,11.952166 C 21.369997,10.994687 20.1815,9.1832023 20.1815,6.883429 c 0,-3.7994486 2.049788,-5.97169744 5.635041,-5.97169744 1.756451,0 2.309725,0.23094964 3.568229,1.48945364 1.948547,1.9485467 2.388331,4.172421 1.270093,6.422583 -1.492527,3.0033198 -4.494479,4.3171908 -7.147817,3.1283978 z M 43.244087,11.727864 C 39.520652,10.025295 38.82483,5.1862829 41.898413,2.3695539 c 3.709378,-3.3993899 9.235291,-0.7396913 9.225098,4.4401669 -0.0079,4.0165592 -4.169882,6.6143632 -7.879424,4.9181432 z"
     id="path4138"
     inkscape:connector-curvature="0" />
</svg>
