<?xml version="1.0" encoding="UTF-8" standalone="no"?>
<svg
   xmlns:dc="http://purl.org/dc/elements/1.1/"
   xmlns:cc="http://creativecommons.org/ns#"
   xmlns:rdf="http://www.w3.org/1999/02/22-rdf-syntax-ns#"
   xmlns:svg="http://www.w3.org/2000/svg"
   xmlns="http://www.w3.org/2000/svg"
   viewBox="0 0 50 50"
   height="50"
   width="50"
   id="svg2"
   version="1.1">
  <metadata
     id="metadata8">
    <rdf:RDF>
      <cc:Work
         rdf:about="">
        <dc:format>image/svg+xml</dc:format>
        <dc:type
           rdf:resource="http://purl.org/dc/dcmitype/StillImage" />
        <dc:title></dc:title>
      </cc:Work>
    </rdf:RDF>
  </metadata>
  <defs
     id="defs6" />
  <g
     transform="translate(1.6778805,-62)"
     id="g817">
    <path
       id="path831"
       d="m 12.752457,111.55878 c -1.231585,-0.4369 -1.313538,-0.57544 -1.434032,-2.42439 -0.156785,-2.40582 -0.143011,-7.51324 0.02476,-9.180182 0.148334,-1.473852 0.147973,-1.477078 -0.267705,-2.395496 C 10.846544,97.052899 10.365683,95.588068 10.006897,94.30353 9.6481101,93.01899 9.126282,91.203651 8.8472793,90.26944 8.5682763,89.33523 8.2681559,87.94303 8.1803456,87.175663 l -0.1596553,-1.395214 -0.661139,0.06353 c -0.4020859,0.03863 -0.9387932,0.23437 -1.3697507,0.49954 -0.9635043,0.59285 -1.6001561,0.754762 -2.2198961,0.564558 C 2.9872088,86.667859 2.7077281,86.240105 2.2038124,84.511129 1.946992,83.629956 1.5956875,82.558668 1.4231357,82.130489 0.83340005,80.667086 0.41677538,78.94622 0.20659438,77.10557 c -0.1155658,-1.012061 -0.2440856,-2.136165 -0.2855997,-2.498008 -0.068835,-0.599975 -0.032594,-0.705906 0.4116166,-1.20315 0.26790328,-0.299888 0.53335944,-0.73634 0.58990264,-0.969893 C 1.0761914,71.799752 1.3884213,71.537425 2.1165543,71.431318 2.47738,71.378738 3.0273856,71.206142 3.338789,71.047772 c 0.7603767,-0.386701 2.5438698,-0.501711 3.1244478,-0.201483 0.2281923,0.118003 0.5360853,0.348465 0.6842063,0.512137 0.2022198,0.22345 0.4380782,0.297585 0.9467548,0.297585 0.3725936,0 0.7168094,0.06369 0.7649239,0.141546 0.2670373,0.432077 1.8970152,-0.411156 3.4190532,-1.76877 0.634866,-0.566282 1.231919,-1.055477 1.326787,-1.087099 0.09487,-0.03162 0.213413,-0.309289 0.263435,-0.617037 0.06716,-0.41317 0.186897,-0.605527 0.457727,-0.735333 0.245505,-0.117667 0.493737,-0.468945 0.750765,-1.062422 0.587199,-1.355842 0.659695,-1.483124 1.056517,-1.854926 0.203091,-0.190284 1.010435,-0.602355 1.7941,-0.915714 1.491157,-0.596255 2.587703,-0.772917 8.17898,-1.317699 2.905806,-0.283125 2.997594,-0.248813 6.494849,2.427858 0.212829,0.162891 0.626855,0.642255 0.920056,1.065251 0.293202,0.422997 0.644563,0.805477 0.780803,0.849956 0.162954,0.0532 0.247707,0.226277 0.247707,0.505853 0,0.241295 0.184729,0.693481 0.427382,1.046165 0.331068,0.481191 0.53841,0.638458 0.920055,0.697851 0.27097,0.04217 0.703578,0.109151 0.961348,0.148845 0.370241,0.05701 0.529494,0.0022 0.758265,-0.26089 0.253517,-0.29157 0.534571,-0.363571 2.256107,-0.577978 1.081583,-0.134705 2.142235,-0.311895 2.357005,-0.393757 0.543356,-0.207106 2.626166,-0.07273 3.153189,0.20343 0.78513,0.411412 0.791637,0.458922 0.869802,6.349075 0.108978,8.212587 0.116603,7.789434 -0.149677,8.304366 -0.329986,0.638122 -1.12587,1.105898 -2.216553,1.302765 l -0.925236,0.167001 -0.329867,2.077492 c -0.181424,1.142618 -0.489808,2.618907 -0.685297,3.280639 -1.093646,3.701992 -1.316042,4.39869 -1.671798,5.237239 -0.559192,1.318057 -0.588881,1.988425 -0.154294,3.483996 0.201026,0.691804 0.49266,1.849556 0.648075,2.572796 0.155414,0.72322 0.60332,2.26474 0.995349,3.4256 0.392027,1.16086 0.712777,2.27504 0.712777,2.47596 0,0.20093 0.09719,0.59795 0.215983,0.88224 0.210361,0.50348 0.205526,0.52986 -0.185558,1.01305 -0.618418,0.76409 -1.311878,1.26128 -2.020442,1.44862 -0.795727,0.21039 -1.273619,0.1001 -1.86823,-0.43117 -0.448338,-0.40057 -0.459371,-0.43891 -0.477757,-1.6602 -0.01485,-0.98581 -0.144705,-1.7141 -0.614133,-3.44415 -1.570598,-5.78834 -2.179529,-8.627982 -2.003315,-9.342102 0.06724,-0.272477 0.349436,-1.196072 0.627108,-2.052431 0.760488,-2.345369 1.917401,-6.406263 2.085157,-7.319123 0.198206,-1.078564 0.219666,-2.607715 0.0572,-4.07541 -0.129855,-1.173039 -0.142045,-1.201931 -0.487056,-1.154434 -1.110199,0.152837 -3.429551,2.139 -4.694274,4.019912 -0.458348,0.681662 -0.88428,1.239385 -0.946516,1.239385 -0.06224,0 -0.49054,0.293149 -0.951791,0.651445 -1.147798,0.891599 -1.331189,0.972231 -3.181221,1.398717 -2.391672,0.551352 -3.043526,0.621649 -4.44945,0.479849 -1.283121,-0.129415 -4.230135,-0.932815 -5.196105,-1.416539 -0.722166,-0.361632 -1.411591,-1.107617 -1.940177,-2.099346 -0.430488,-0.807675 -0.470952,-0.84127 -1.115048,-0.925702 -0.367593,-0.04819 -0.974043,-0.147362 -1.347666,-0.220394 -1.270782,-0.248393 -2.258512,-0.110116 -2.016027,0.282234 0.0556,0.08997 0.02595,0.254123 -0.06591,0.364797 -0.210224,0.253304 -0.158824,0.580526 0.730131,4.648137 0.705039,3.226061 1.504941,6.156562 2.152265,7.884976 0.326558,0.871947 0.345227,1.107771 0.419585,5.300509 0.0428,2.41337 0.135893,4.65204 0.206872,4.97481 0.08699,0.39561 0.292198,0.73008 0.629707,1.02642 1.073134,0.94222 0.744195,2.06027 -0.937036,3.1849 -0.659646,0.44127 -1.25723,0.4595 -2.350366,0.0717 z M 42.148584,85.217981 c -0.04519,-0.112916 -0.07872,-0.07938 -0.08553,0.08553 -0.0062,0.149214 0.02731,0.232815 0.07434,0.185781 0.04703,-0.04703 0.05206,-0.16912 0.01117,-0.2713 z M 1.8525456,72.213845 c 0,-0.07326 -0.063696,-0.133193 -0.141547,-0.133193 -0.077851,0 -0.141547,0.0993 -0.141547,0.220674 0,0.121371 0.063696,0.181307 0.141547,0.133193 0.077851,-0.04812 0.141547,-0.147418 0.141547,-0.220674 z"
       style="fill:#aaa9a9;stroke-width:0.14154699" />
    <path
       id="path829"
       d="m 13.317852,111.60549 c 0,-0.0596 -0.317444,-0.22107 -0.705433,-0.35887 -0.842959,-0.29939 -1.046066,-0.61396 -1.069231,-1.65602 -0.0095,-0.42818 -0.06789,-1.5542 -0.12973,-2.50228 -0.123884,-1.89947 0.02146,-4.05187 0.21435,-3.17452 0.05811,0.26427 0.151352,1.39488 0.20722,2.51246 0.05587,1.11759 0.14165,2.03104 0.190626,2.02991 0.04898,-9.8e-4 0.361872,-0.0971 0.69532,-0.21324 0.373233,-0.13001 0.815267,-0.17776 1.149986,-0.12423 0.334501,0.0535 0.580804,0.0269 0.640109,-0.069 0.107868,-0.17453 0.103809,-8.303376 -0.0047,-9.465266 -0.03827,-0.409219 -0.221412,-1.14752 -0.407029,-1.640658 -0.803442,-2.134491 -2.025837,-6.871698 -2.647467,-10.259764 l -0.32023,-1.745349 -0.420837,0.08416 c -1.2424781,0.248496 -1.4978607,0.369114 -1.4978607,0.707448 0,0.183297 -0.095545,0.36993 -0.2123205,0.414743 -0.160056,0.06142 -0.2123205,0.319482 -0.2123205,1.048369 0,0.765358 0.1470024,1.434389 0.7052646,3.20977 0.3878958,1.233583 0.8699501,3.042259 1.0712311,4.019284 0.475153,2.306401 0.655496,2.745717 1.084313,2.641395 0.264998,-0.06446 0.380412,0.02092 0.633788,0.468886 0.289005,0.510965 0.295095,0.575329 0.09079,0.95941 -0.199779,0.375555 -0.456558,1.329171 -0.758803,2.818002 -0.07919,0.3901 -0.108939,-0.006 -0.09565,-1.27393 0.01865,-1.778345 0.0018,-1.88999 -0.499928,-3.326349 C 10.390554,94.909935 9.0221477,90.318095 8.6418052,88.731707 8.489942,88.098293 8.3652445,87.189746 8.364699,86.71271 8.3641239,86.189699 8.2934664,85.78926 8.1867736,85.704025 7.8695416,85.450594 6.6115144,85.724783 5.8502839,86.213263 4.7945459,86.890728 4.3655395,86.97876 3.6385166,86.667122 2.9539431,86.37368 2.8957594,86.266345 2.3302544,84.253693 2.1224501,83.51411 1.7635422,82.494972 1.5326813,81.988942 0.94903107,80.709622 0.47345008,78.737635 0.29516118,76.857593 c -0.083042,-0.875674 -0.1867058,-1.893668 -0.2303639,-2.262209 -0.076239,-0.643577 -0.055257,-0.693953 0.5306256,-1.273923 0.33550221,-0.332116 0.68613352,-0.586458 0.77918072,-0.565204 0.2734453,0.06246 0.7892472,-0.68338 0.6165294,-0.891492 -0.1103538,-0.132968 -0.015582,-0.20004 0.3885295,-0.274968 0.2939671,-0.0545 0.7493907,-0.23122 1.0120518,-0.392695 0.3274137,-0.201286 0.8048853,-0.3146 1.5186161,-0.360404 1.1421215,-0.0733 1.8103847,0.11109 2.0542831,0.566818 0.080907,0.151177 0.3393965,0.3419 0.5744203,0.423831 0.3100003,0.108066 0.3753198,0.181097 0.2379232,0.266013 -0.2564535,0.158497 -0.02803,0.356956 0.5513636,0.47904 0.5917647,0.124691 0.6494548,-0.257425 0.070773,-0.468778 -0.3554474,-0.129821 -0.3614275,-0.143139 -0.068853,-0.153342 0.1762207,-0.0062 0.434057,0.05981 0.5729699,0.146556 0.3783825,0.236305 2.1485325,-0.708538 3.2815725,-1.751584 0.506411,-0.46619 1.14462,-0.99028 1.418241,-1.164648 0.647112,-0.412379 0.87834,-0.701414 0.822905,-1.028632 -0.02472,-0.145938 0.126976,-0.469664 0.337111,-0.719394 0.210134,-0.24973 0.518501,-0.828253 0.68526,-1.285604 0.402576,-1.104104 0.941928,-1.584319 2.464771,-2.194527 1.363201,-0.546239 1.899497,-0.654298 4.959202,-0.999235 1.089912,-0.122872 2.289075,-0.285132 2.664806,-0.360579 0.696796,-0.139918 3.715947,-0.175885 3.376709,-0.04022 -0.107015,0.04279 0.104202,0.210918 0.495416,0.394339 0.37508,0.175855 0.968598,0.570434 1.318927,0.876842 0.350329,0.306408 0.943012,0.744965 1.317073,0.97457 0.72315,0.443883 1.655414,1.748072 1.655414,2.315839 0,0.288197 1.115362,1.506484 1.769338,1.932611 0.155701,0.101454 0.67493,0.228024 1.15384,0.281265 0.783805,0.08713 0.886065,0.06818 1.024167,-0.189864 0.117719,-0.219963 0.39269,-0.322993 1.181684,-0.442775 2.633354,-0.399784 3.030866,-0.470188 3.335064,-0.590668 0.493797,-0.195574 2.384932,-0.153826 2.899599,0.06401 1.012818,0.42868 0.971402,0.183488 1.047793,6.203491 0.03782,2.982594 0.07923,5.964315 0.09196,6.626048 0.02791,1.449912 -0.171351,2.00139 -0.87265,2.415166 -0.674174,0.397776 -3.004747,0.884843 -3.987267,0.833303 -1.908,-0.100089 -1.725465,-0.177372 -2.022681,0.856393 -0.303012,1.053926 -1.460941,4.866809 -2.16191,7.118847 -0.261539,0.840257 -0.605377,1.692822 -0.764088,1.894587 -0.158707,0.201766 -0.28856,0.545585 -0.28856,0.764043 0,0.21846 -0.0638,0.436632 -0.141785,0.484827 -0.08242,0.05093 -0.111039,0.424889 -0.06836,0.893021 0.05156,0.565503 0.03351,0.721074 -0.06059,0.522302 -0.26338,-0.556407 -0.144763,-1.40257 0.473274,-3.376086 0.966932,-3.087614 2.020446,-6.839169 2.263789,-8.061348 0.178205,-0.895024 0.19058,-1.297713 0.06524,-2.123205 -0.08507,-0.560286 -0.195828,-1.400878 -0.24613,-1.867984 -0.09077,-0.842834 -0.09482,-0.849136 -0.534078,-0.830304 -0.598339,0.02566 -2.267786,1.021998 -3.27516,1.954647 -0.452782,0.419197 -1.157544,1.261304 -1.566136,1.871349 -0.8093,1.208312 -2.158785,2.472086 -3.093967,2.897453 -1.139433,0.518269 -3.496089,0.896149 -5.564495,0.892239 -1.636789,-0.0031 -2.113918,-0.05923 -3.326354,-0.391354 -2.667207,-0.730636 -3.607257,-1.350028 -4.450732,-2.932548 -0.24221,-0.454433 -0.55276,-0.86191 -0.690112,-0.905503 -0.483193,-0.15336 -2.372367,-0.353307 -3.379007,-0.357629 -1.036946,-0.0045 -1.328256,0.117795 -0.976451,0.409769 0.129047,0.107099 0.17368,0.343522 0.129958,0.688387 -0.126925,1.001146 1.517306,8.155963 2.639125,11.484065 l 0.711473,2.110731 0.0075,3.798181 c 0.0094,4.73967 0.141879,5.70357 0.885129,6.43801 0.834702,0.82481 0.606948,1.80916 -0.60401,2.61054 -0.314445,0.20809 -0.571716,0.43356 -0.571716,0.50108 0,0.0675 -0.31848,0.12274 -0.707735,0.12274 -0.389253,0 -0.707735,-0.0488 -0.707735,-0.10833 z M 33.659486,76.327061 c 0.620379,-1.26356 1.456603,-4.799584 1.456603,-6.159335 0,-0.816698 -0.04488,-0.959271 -0.445542,-1.41561 -0.295174,-0.336182 -0.545976,-0.493104 -0.743123,-0.464952 -0.265698,0.03794 -0.309018,0.171388 -0.404361,1.245642 -0.229162,2.582024 -0.438547,3.809918 -0.902608,5.293166 -0.452202,1.445349 -0.468431,1.563633 -0.25849,1.884044 0.365661,0.55807 0.91512,0.395902 1.297521,-0.382955 z M 15.834203,76.106714 c 0.391454,-0.274185 0.398096,-0.689688 0.02611,-1.633414 -0.323938,-0.821834 -0.594842,-3.17972 -0.551368,-4.798947 0.01568,-0.583881 0.01997,-1.141223 0.0096,-1.238536 -0.03234,-0.301512 -0.399163,-0.195084 -0.650678,0.188779 -0.131793,0.201142 -0.435292,0.540542 -0.674439,0.75422 -0.410468,0.366754 -0.433349,0.441763 -0.408643,1.33975 0.05694,2.069926 0.84923,4.958114 1.481608,5.401049 0.367288,0.257259 0.382534,0.257003 0.767873,-0.0129 z m 22.407903,-1.805945 c -0.183314,-0.183315 -0.212773,0.158118 -0.04864,0.563859 0.09235,0.228293 0.110696,0.219267 0.153531,-0.07552 0.02676,-0.184143 -0.02044,-0.403895 -0.104883,-0.488337 z m 0.123534,-4.596145 c 0.189793,-0.683374 0.185813,-0.738006 -0.05377,-0.738006 -0.235992,0 -0.569814,0.90448 -0.449523,1.217958 0.122763,0.319913 0.338203,0.114462 0.503289,-0.479952 z m -0.891138,0.0027 c -0.214619,-0.214636 -0.801396,-0.124833 -0.801396,0.122631 0,0.223258 0.615469,0.395279 0.821,0.229466 0.150047,-0.121052 0.146425,-0.186084 -0.0196,-0.352114 z m 1.330424,39.939566 c -0.417679,-0.35145 -0.43704,-0.41472 -0.422331,-1.38009 0.01569,-1.02978 -0.64662,-4.06301 -1.302659,-5.96589 -0.237214,-0.68805 -1.12206,-4.672719 -1.111855,-5.006941 0.0097,-0.319343 0.721198,1.661083 0.908829,2.529862 0.1261,0.583889 0.417252,1.666729 0.647003,2.406309 0.229753,0.73959 0.587329,1.98166 0.794615,2.76017 0.472594,1.77494 0.558722,1.95161 0.872981,1.79066 0.492528,-0.25226 1.675741,-0.29691 1.992305,-0.0752 0.273745,0.19173 0.30189,0.18833 0.30189,-0.0366 0,-0.13641 -0.256893,-1.22609 -0.570872,-2.42151 -0.313979,-1.19542 -0.697194,-2.78745 -0.85159,-3.53782 -0.154396,-0.750372 -0.438923,-1.86512 -0.632278,-2.477203 -0.412864,-1.306943 -0.437137,-1.869486 -0.115368,-2.673666 0.203362,-0.508252 1.314098,-2.302911 1.163432,-1.879802 -0.03021,0.08484 -0.275936,0.797211 -0.546061,1.583057 l -0.491136,1.428809 0.333197,1.106336 c 0.183257,0.608485 0.50944,1.870693 0.724853,2.804899 0.215413,0.93422 0.61836,2.39923 0.895438,3.25559 0.277078,0.85636 0.628647,2.06658 0.781264,2.68939 0.152618,0.62281 0.317782,1.26027 0.367034,1.41657 0.0643,0.20406 -0.06002,0.45893 -0.440897,0.90389 -0.977642,1.14217 -2.452294,1.49055 -3.297794,0.77911 z m 1.922509,-17.112742 c 0.09425,-0.65257 0.910014,-3.221791 0.995747,-3.13606 0.04885,0.04886 -0.835528,3.149774 -1.015518,3.560701 -0.0341,0.07785 -0.0252,-0.113238 0.01978,-0.424641 z M 1.1559853,72.345691 c -0.00615,-0.126707 0.1002936,-0.317796 0.2365326,-0.424642 0.2152504,-0.16881 0.227014,-0.166445 0.089779,0.01806 -0.08686,0.116776 -0.1933,0.307864 -0.2365326,0.42464 -0.065753,0.177606 -0.080432,0.174654 -0.089779,-0.01806 z"
       style="fill:#979797;stroke-width:0.14154699" />
    <path
       id="path827"
       d="m 13.459399,110.9428 c -1.809806,-0.29075 -1.97727,-0.43696 -1.710878,-1.49374 l 0.124884,-0.49541 0.01448,0.44269 c 0.02324,0.71015 0.277733,0.8276 2.44875,1.13012 0.637096,0.0888 0.668971,0.0765 0.761637,-0.29268 0.0532,-0.21194 0.0588,-0.74591 0.01247,-1.18661 -0.219351,-2.08627 -0.239094,-2.49673 -0.106619,-2.21673 0.07366,0.1557 0.138416,0.46917 0.143887,0.69659 0.0055,0.22742 0.1196,0.53466 0.253617,0.68275 0.374006,0.41327 0.433404,2.06597 0.08892,2.47407 -0.346951,0.41102 -0.75824,0.46345 -2.031146,0.25895 z m 28.75999,-2.93987 c -0.09212,-0.0921 -0.167498,-0.26449 -0.167498,-0.38302 0,-0.14793 0.07109,-0.11399 0.226759,0.10824 0.248365,0.3546 0.20795,0.54198 -0.05926,0.27478 z m -3.620254,-0.61787 c -0.132875,-0.34627 -0.104065,-0.39202 0.126402,-0.20076 0.235305,0.19529 0.28171,0.42465 0.08592,0.42465 -0.06952,0 -0.165066,-0.10071 -0.212322,-0.22389 z m 3.039291,-1.55724 c 0.0069,-0.16489 0.04033,-0.19844 0.08552,-0.0855 0.04089,0.10218 0.03586,0.22426 -0.01117,0.2713 -0.04703,0.0471 -0.08049,-0.0366 -0.07434,-0.18578 z M 11.635477,98.187543 c -0.206201,-0.570238 -0.120459,-0.76353 0.238308,-0.537226 0.262522,0.165595 0.332731,0.9162 0.09317,0.996056 -0.08126,0.0271 -0.230426,-0.179387 -0.331474,-0.45883 z M 21.739898,87.63537 C 20.479351,87.453588 19.148815,87.012944 18.276666,86.488424 17.666988,86.121759 17.366478,85.802472 16.860112,84.983357 16.503107,84.405854 16.042268,83.851923 15.823434,83.737265 15.434399,83.533428 13.489663,83.326018 12.114703,83.34172 l -0.707736,0.0081 0.03336,0.65474 c 0.03322,0.652085 0.03153,0.65469 -0.421523,0.64181 -0.421694,-0.01198 -0.431876,-0.02321 -0.139525,-0.153655 0.173449,-0.0774 0.315363,-0.19468 0.315363,-0.260634 0,-0.249758 -0.809064,-0.114928 -1.586403,0.264378 -0.8067808,0.39367 -1.1037534,0.708873 -0.5014152,0.532194 l 0.3184855,-0.09341 -0.3279892,0.24011 C 8.916927,85.307384 8.8026765,85.50233 8.8434319,85.608536 8.9613618,85.915856 8.6469354,86.006541 8.4408161,85.724656 8.2965826,85.527412 8.0988168,85.478243 7.5783998,85.510245 6.7144146,85.563372 6.3084154,85.721755 5.7265396,86.232649 5.4685193,86.459193 5.0211816,86.709775 4.7324563,86.789496 4.2873582,86.912393 4.1349431,86.8896 3.73053,86.639658 3.0674483,86.229852 2.9203204,85.954732 2.4322341,84.21194 2.1968723,83.371542 1.8836268,82.511644 1.7361329,82.301055 1.0974915,81.389218 0.51758038,79.169925 0.28606198,76.751702 c -0.078261,-0.817434 -0.1769706,-1.773691 -0.219356,-2.125014 -0.062142,-0.515072 -0.018046,-0.7138 0.2276995,-1.026215 0.1676204,-0.213095 0.37374889,-0.387445 0.45806362,-0.387445 0.2733208,0 1.0945535,-0.711114 1.3161808,-1.139693 0.1448355,-0.280082 0.3237711,-0.417324 0.5441012,-0.417324 0.1805618,0 0.4432593,-0.127035 0.5837721,-0.282299 0.3309471,-0.365694 1.069377,-0.565207 2.0955661,-0.566193 0.7921444,-7.52e-4 1.6561482,0.290842 1.6561482,0.558954 0,0.319213 0.9617541,1.120537 1.4562066,1.213298 0.3201404,0.06006 0.5254512,0.04355 0.5254512,-0.04223 0,-0.07745 0.1597973,-0.171347 0.3551052,-0.208681 0.2810335,-0.05372 0.3229372,-0.02912 0.2008892,0.117936 -0.2819603,0.33974 -0.064603,2.167949 0.4747866,3.993454 0.2829287,0.957542 0.6375727,2.562023 0.7880987,3.565513 0.188668,1.257762 0.378066,2.014056 0.609709,2.434651 l 0.336026,0.610123 1.837886,0.07656 c 2.159704,0.08996 2.591396,0.257102 3.158568,1.222931 0.683158,1.163344 1.230768,1.66761 2.413858,2.222801 1.64767,0.773203 2.999121,0.941127 6.720507,0.835051 2.868387,-0.08176 3.027888,-0.10139 3.863066,-0.475374 0.864521,-0.387122 1.020057,-0.543404 2.102553,-2.112627 0.187963,-0.272478 0.510569,-0.813896 0.716902,-1.203148 0.689838,-1.301397 0.96859,-1.559225 2.496517,-2.309115 1.445678,-0.709523 2.09338,-0.963321 2.09338,-0.820275 0,0.04098 -0.701781,0.433466 -1.559515,0.872208 -1.677564,0.858095 -2.17336,1.260373 -2.616121,2.12267 -0.456374,0.88881 -1.567558,2.50945 -2.003494,2.922061 -0.221543,0.209689 -0.76117,0.545151 -1.19917,0.745472 -0.70314,0.321584 -1.084248,0.3802 -3.25558,0.500715 -2.827742,0.156949 -3.546889,0.15465 -4.723969,-0.0151 z M 38.807487,85.3035 c 0.0069,-0.164895 0.04033,-0.198435 0.08552,-0.08553 0.04089,0.102179 0.03586,0.224264 -0.01117,0.2713 -0.04703,0.04703 -0.08049,-0.03657 -0.07434,-0.185781 z m 0.136849,-1.439056 c -0.170394,-0.471219 -0.09111,-0.825998 0.111375,-0.498371 0.05635,0.09117 0.228054,0.216728 0.381557,0.278995 0.275076,0.111578 0.274788,0.117444 -0.01991,0.406907 l -0.299007,0.293698 z m 2.399821,0.140707 c -0.272479,-0.03144 -0.546352,-0.147622 -0.608608,-0.258179 -0.06226,-0.110559 -0.264107,-0.201014 -0.448557,-0.201014 -0.933482,0 -1.773775,-1.064616 -1.773775,-2.247298 0,-0.387732 -0.07962,-0.789138 -0.176934,-0.892012 -0.09732,-0.102874 -0.180274,-0.409981 -0.184356,-0.682458 -0.0041,-0.272479 -0.115367,-1.324518 -0.247297,-2.337864 -0.131929,-1.013348 -0.28161,-2.900775 -0.332626,-4.194282 -0.09132,-2.315626 -0.02593,-3.088142 0.226799,-2.679217 0.09073,0.146795 0.169606,0.09452 0.326388,-0.216287 0.113712,-0.225427 0.247633,-0.580577 0.2976,-0.789223 0.141647,-0.591454 0.466811,-0.823793 1.152925,-0.823793 0.3397,0 0.796947,-0.07242 1.016105,-0.160929 1.070985,-0.432534 3.472467,-0.667225 4.297641,-0.419996 0.278157,0.08334 0.651553,0.306737 0.829774,0.496444 0.344981,0.367216 0.34882,0.467496 0.477743,12.469843 0.01451,1.349773 -0.249388,2.193979 -0.685804,2.193979 -0.117515,0 -0.354739,0.08724 -0.527166,0.193891 -0.532148,0.329124 -2.704164,0.656369 -3.639852,0.548395 z M 38.162162,73.325012 c -0.120372,-0.634546 -0.249671,-1.184535 -0.287333,-1.222197 -0.129337,-0.129336 0.196774,5.218028 0.330724,5.423029 0.206623,0.316218 0.171675,-3.06709 -0.04339,-4.200832 z m -0.259989,-1.837088 c -0.04519,-0.112918 -0.07872,-0.07938 -0.08552,0.08552 -0.0062,0.149214 0.02731,0.232815 0.07434,0.18578 0.04703,-0.04703 0.05206,-0.169119 0.01117,-0.271299 z M 21.15888,81.29526 c -1.261726,-0.769382 -1.542638,-3.072188 -0.471589,-3.865885 0.199574,-0.147894 0.677296,-0.355176 1.061602,-0.460629 l 0.69874,-0.191731 -0.757276,-0.01266 c -0.658824,-0.01101 -0.817715,-0.0731 -1.222164,-0.477545 -0.814491,-0.814492 -0.973861,-2.532105 -0.333524,-3.594547 0.351713,-0.583559 1.29368,-1.036259 2.156222,-1.036259 0.551022,0 0.746959,0.07303 1.074342,0.400408 0.375777,0.375777 0.707618,1.198209 0.709401,1.758183 5.75e-4,0.166009 0.111429,0.247708 0.336249,0.247708 0.293022,0 0.344623,-0.0813 0.4079,-0.642705 0.08809,-0.781543 0.382666,-1.134821 1.309072,-1.569953 1.055457,-0.495748 1.564361,-0.447945 2.185795,0.205319 1.137147,1.195389 1.122558,3.10238 -0.03068,4.008915 l -0.295438,0.232239 0.39339,0.467517 c 0.539814,0.64153 0.647519,0.985504 0.664839,2.123235 0.01012,0.665035 -0.05506,1.08785 -0.202355,1.312656 -0.265168,0.404695 -1.057842,0.79858 -1.607105,0.79858 -0.414639,0 -1.234267,-0.470665 -1.91207,-1.097988 l -0.378976,-0.350749 -0.470307,0.53368 c -0.25867,0.293525 -0.553795,0.651702 -0.655833,0.795949 -0.485923,0.686928 -1.863002,0.902401 -2.660245,0.416255 z M 12.762378,70.015223 c 0.188734,-0.201775 0.470546,-0.432702 0.626248,-0.513169 0.170868,-0.08831 0.08971,0.05714 -0.204701,0.366865 -0.268287,0.282242 -0.550098,0.513169 -0.626249,0.513169 -0.07614,0 0.01597,-0.165089 0.204702,-0.366865 z m 7.066636,-1.614793 c -0.336764,-0.336764 -0.360044,-0.609209 -0.07245,-0.847892 0.170283,-0.141323 0.22698,-0.132252 0.295896,0.04735 0.06295,0.164041 0.202254,0.200346 0.532477,0.138772 0.245972,-0.04587 0.507736,-0.138666 0.581694,-0.206222 0.235561,-0.215169 0.874755,-0.132224 1.126737,0.146213 0.308259,0.340623 0.157074,0.439252 -0.780294,0.509041 -0.397363,0.02958 -0.832381,0.153251 -0.966707,0.274814 -0.314071,0.28423 -0.376455,0.278832 -0.717355,-0.06207 z m -5.232149,-0.377459 c 0.0028,-0.06488 0.165593,-0.309044 0.361762,-0.542597 l 0.356672,-0.42464 -0.191263,0.485763 c -0.172586,0.438334 -0.539781,0.7737 -0.527171,0.481474 z m 9.02262,-0.454975 c -0.210941,-0.537007 -0.207904,-0.578883 0.05955,-0.820932 0.272632,-0.246729 0.290228,-0.244697 0.538732,0.06219 0.294593,0.363807 0.432938,0.377333 1.169906,0.114384 0.497529,-0.177518 0.548112,-0.169932 0.745438,0.11179 l 0.211692,0.302232 0.350942,-0.424058 c 0.345446,-0.417417 0.354373,-0.419625 0.569963,-0.140965 0.120462,0.155702 0.295028,0.283095 0.387924,0.283095 0.277461,0 0.280822,0.465945 0.0044,0.60789 -0.443495,0.22772 -1.73082,0.311413 -2.112826,0.13736 -0.25217,-0.114896 -0.385998,-0.118263 -0.453696,-0.01142 -0.05281,0.08335 -0.35561,0.194919 -0.672881,0.247924 -0.570615,0.09532 -0.579262,0.09025 -0.799138,-0.469497 z m -0.789674,0.237936 c -0.09342,-0.09342 -0.169857,-0.27708 -0.169857,-0.408132 0,-0.131052 -0.127393,-0.271589 -0.283094,-0.312307 -0.339573,-0.0888 -0.371649,-0.35853 -0.05699,-0.479274 0.146476,-0.05621 0.34407,0.05751 0.561098,0.322923 0.488971,0.597986 0.443828,1.371771 -0.05115,0.87679 z m 10.30462,-0.468271 c -3.94405,-3.862678 -3.881448,-3.810081 -4.722694,-3.967899 -0.284719,-0.05341 -0.552576,-0.153591 -0.595234,-0.222616 -0.108406,-0.175405 -2.98866,-0.156964 -4.172489,0.02672 -0.539579,0.08371 -1.093197,0.128256 -1.230265,0.09898 -0.325893,-0.06962 2.025592,-0.378469 3.686448,-0.484177 1.10851,-0.07056 1.438059,-0.03686 2.221636,0.22719 1.248744,0.420793 1.450898,0.565092 2.797959,1.997209 0.643594,0.684231 1.393567,1.382123 1.666611,1.550872 0.273041,0.16875 0.592073,0.491756 0.708962,0.717792 0.258347,0.499588 0.11478,0.521841 -0.360934,0.05594 z"
       style="fill:#d6edc6;fill-opacity:1;stroke-width:0.14154699" />
    <path
       id="path825"
       d="m 13.459399,110.9428 c -1.809806,-0.29075 -1.97727,-0.43696 -1.710878,-1.49374 l 0.124884,-0.49541 0.01448,0.44269 c 0.02324,0.71015 0.277733,0.8276 2.44875,1.13012 0.637096,0.0888 0.668971,0.0765 0.761637,-0.29268 0.0532,-0.21194 0.0588,-0.74591 0.01247,-1.18661 -0.219351,-2.08627 -0.239094,-2.49673 -0.106619,-2.21673 0.07366,0.1557 0.138416,0.46917 0.143887,0.69659 0.0055,0.22742 0.1196,0.53466 0.253617,0.68275 0.374006,0.41327 0.433404,2.06597 0.08892,2.47407 -0.346951,0.41102 -0.75824,0.46345 -2.031146,0.25895 z m 28.75999,-2.93987 c -0.09212,-0.0921 -0.167498,-0.26449 -0.167498,-0.38302 0,-0.14793 0.07109,-0.11399 0.226759,0.10824 0.248365,0.3546 0.20795,0.54198 -0.05926,0.27478 z m -3.620254,-0.61787 c -0.132875,-0.34627 -0.104065,-0.39202 0.126402,-0.20076 0.235305,0.19529 0.28171,0.42465 0.08592,0.42465 -0.06952,0 -0.165066,-0.10071 -0.212322,-0.22389 z m 3.039291,-1.55724 c 0.0069,-0.16489 0.04033,-0.19844 0.08552,-0.0855 0.04089,0.10218 0.03586,0.22426 -0.01117,0.2713 -0.04703,0.0471 -0.08049,-0.0366 -0.07434,-0.18578 z M 11.635477,98.187543 c -0.206201,-0.570238 -0.120459,-0.76353 0.238308,-0.537226 0.262522,0.165595 0.332731,0.9162 0.09317,0.996056 -0.08126,0.0271 -0.230426,-0.179387 -0.331474,-0.45883 z M 21.739898,87.63537 C 20.479351,87.453588 19.148815,87.012944 18.276666,86.488424 17.666988,86.121759 17.366478,85.802472 16.860112,84.983357 16.503107,84.405854 16.042268,83.851923 15.823434,83.737265 15.434399,83.533428 13.489663,83.326018 12.114703,83.34172 l -0.707736,0.0081 0.03336,0.65474 c 0.03322,0.652085 0.03153,0.65469 -0.421523,0.64181 -0.421694,-0.01198 -0.431876,-0.02321 -0.139525,-0.153655 0.173449,-0.0774 0.315363,-0.19468 0.315363,-0.260634 0,-0.249758 -0.809064,-0.114928 -1.586403,0.264378 -0.8067808,0.39367 -1.1037534,0.708873 -0.5014152,0.532194 l 0.3184855,-0.09341 -0.3279892,0.24011 C 8.916927,85.307384 8.8026765,85.50233 8.8434319,85.608536 8.9613618,85.915856 8.6469354,86.006541 8.4408161,85.724656 8.2965826,85.527412 8.0988168,85.478243 7.5783998,85.510245 6.7144146,85.563372 6.3084154,85.721755 5.7265396,86.232649 5.4685193,86.459193 5.0211816,86.709775 4.7324563,86.789496 4.2873582,86.912393 4.1349431,86.8896 3.73053,86.639658 3.0674483,86.229852 2.9203204,85.954732 2.4322341,84.21194 2.1968723,83.371542 1.8836268,82.511644 1.7361329,82.301055 1.0974915,81.389218 0.51758038,79.169925 0.28606198,76.751702 c -0.078261,-0.817434 -0.1769706,-1.773691 -0.219356,-2.125014 -0.062142,-0.515072 -0.018046,-0.7138 0.2276995,-1.026215 0.1676204,-0.213095 0.37374889,-0.387445 0.45806362,-0.387445 0.2733208,0 1.0945535,-0.711114 1.3161808,-1.139693 0.1448355,-0.280082 0.3237711,-0.417324 0.5441012,-0.417324 0.1805618,0 0.4432593,-0.127035 0.5837721,-0.282299 0.3309471,-0.365694 1.069377,-0.565207 2.0955661,-0.566193 0.7921444,-7.52e-4 1.6561482,0.290842 1.6561482,0.558954 0,0.319213 0.9617541,1.120537 1.4562066,1.213298 0.3201404,0.06006 0.5254512,0.04355 0.5254512,-0.04223 0,-0.07745 0.1597973,-0.171347 0.3551052,-0.208681 0.2810335,-0.05372 0.3229372,-0.02912 0.2008892,0.117936 -0.2819603,0.33974 -0.064603,2.167949 0.4747866,3.993454 0.2829287,0.957542 0.6375727,2.562023 0.7880987,3.565513 0.188668,1.257762 0.378066,2.014056 0.609709,2.434651 l 0.336026,0.610123 1.837886,0.07656 c 2.159704,0.08996 2.591396,0.257102 3.158568,1.222931 0.683158,1.163344 1.230768,1.66761 2.413858,2.222801 1.64767,0.773203 2.999121,0.941127 6.720507,0.835051 2.868387,-0.08176 3.027888,-0.10139 3.863066,-0.475374 0.864521,-0.387122 1.020057,-0.543404 2.102553,-2.112627 0.187963,-0.272478 0.510569,-0.813896 0.716902,-1.203148 0.689838,-1.301397 0.96859,-1.559225 2.496517,-2.309115 1.445678,-0.709523 2.09338,-0.963321 2.09338,-0.820275 0,0.04098 -0.701781,0.433466 -1.559515,0.872208 -1.677564,0.858095 -2.17336,1.260373 -2.616121,2.12267 -0.456374,0.88881 -1.567558,2.50945 -2.003494,2.922061 -0.221543,0.209689 -0.76117,0.545151 -1.19917,0.745472 -0.70314,0.321584 -1.084248,0.3802 -3.25558,0.500715 -2.827742,0.156949 -3.546889,0.15465 -4.723969,-0.0151 z M 38.807487,85.3035 c 0.0069,-0.164895 0.04033,-0.198435 0.08552,-0.08553 0.04089,0.102179 0.03586,0.224264 -0.01117,0.2713 -0.04703,0.04703 -0.08049,-0.03657 -0.07434,-0.185781 z m 0.136849,-1.439056 c -0.170394,-0.471219 -0.09111,-0.825998 0.111375,-0.498371 0.05635,0.09117 0.228054,0.216728 0.381557,0.278995 0.275076,0.111578 0.274788,0.117444 -0.01991,0.406907 l -0.299007,0.293698 z m 2.399821,0.140707 c -0.272479,-0.03144 -0.546352,-0.147622 -0.608608,-0.258179 -0.06226,-0.110559 -0.264107,-0.201014 -0.448557,-0.201014 -0.933482,0 -1.773775,-1.064616 -1.773775,-2.247298 0,-0.387732 -0.07962,-0.789138 -0.176934,-0.892012 -0.09732,-0.102874 -0.180274,-0.409981 -0.184356,-0.682458 -0.0041,-0.272479 -0.115367,-1.324518 -0.247297,-2.337864 -0.131929,-1.013348 -0.28161,-2.900775 -0.332626,-4.194282 -0.09132,-2.315626 -0.02593,-3.088142 0.226799,-2.679217 0.09073,0.146795 0.169606,0.09452 0.326388,-0.216287 0.113712,-0.225427 0.247633,-0.580577 0.2976,-0.789223 0.141647,-0.591454 0.466811,-0.823793 1.152925,-0.823793 0.3397,0 0.796947,-0.07242 1.016105,-0.160929 1.070985,-0.432534 3.472467,-0.667225 4.297641,-0.419996 0.278157,0.08334 0.651553,0.306737 0.829774,0.496444 0.344981,0.367216 0.34882,0.467496 0.477743,12.469843 0.01451,1.349773 -0.249388,2.193979 -0.685804,2.193979 -0.117515,0 -0.354739,0.08724 -0.527166,0.193891 -0.532148,0.329124 -2.704164,0.656369 -3.639852,0.548395 z M 38.162162,73.325012 c -0.120372,-0.634546 -0.249671,-1.184535 -0.287333,-1.222197 -0.129337,-0.129336 0.196774,5.218028 0.330724,5.423029 0.206623,0.316218 0.171675,-3.06709 -0.04339,-4.200832 z m -0.259989,-1.837088 c -0.04519,-0.112918 -0.07872,-0.07938 -0.08552,0.08552 -0.0062,0.149214 0.02731,0.232815 0.07434,0.18578 0.04703,-0.04703 0.05206,-0.169119 0.01117,-0.271299 z M 21.15888,81.29526 c -1.261726,-0.769382 -1.542638,-3.072188 -0.471589,-3.865885 0.199574,-0.147894 0.677296,-0.355176 1.061602,-0.460629 l 0.69874,-0.191731 -0.757276,-0.01266 c -0.658824,-0.01101 -0.817715,-0.0731 -1.222164,-0.477545 -0.814491,-0.814492 -0.973861,-2.532105 -0.333524,-3.594547 0.351713,-0.583559 1.29368,-1.036259 2.156222,-1.036259 0.551022,0 0.746959,0.07303 1.074342,0.400408 0.375777,0.375777 0.707618,1.198209 0.709401,1.758183 5.75e-4,0.166009 0.111429,0.247708 0.336249,0.247708 0.293022,0 0.344623,-0.0813 0.4079,-0.642705 0.08809,-0.781543 0.382666,-1.134821 1.309072,-1.569953 1.055457,-0.495748 1.564361,-0.447945 2.185795,0.205319 1.137147,1.195389 1.122558,3.10238 -0.03068,4.008915 l -0.295438,0.232239 0.39339,0.467517 c 0.539814,0.64153 0.647519,0.985504 0.664839,2.123235 0.01012,0.665035 -0.05506,1.08785 -0.202355,1.312656 -0.265168,0.404695 -1.057842,0.79858 -1.607105,0.79858 -0.414639,0 -1.234267,-0.470665 -1.91207,-1.097988 l -0.378976,-0.350749 -0.470307,0.53368 c -0.25867,0.293525 -0.553795,0.651702 -0.655833,0.795949 -0.485923,0.686928 -1.863002,0.902401 -2.660245,0.416255 z m 7.021406,-2.15459 c 0,-0.243978 -0.280629,-0.401117 -0.285026,-0.159603 -0.0012,0.05839 -0.04396,0.265401 -0.09531,0.460028 -0.08385,0.317726 -0.06919,0.334027 0.143481,0.159603 0.130274,-0.106847 0.236865,-0.313859 0.236865,-0.460028 z m 0,-1.185818 c 0,-0.116777 -0.06369,-0.212321 -0.141547,-0.212321 -0.07785,0 -0.141546,0.09555 -0.141546,0.212321 0,0.116776 0.06369,0.21232 0.141546,0.21232 0.07785,0 0.141547,-0.09554 0.141547,-0.21232 z m -0.300514,-3.415419 c 0.175121,-0.384349 0.106741,-0.6298 -0.110576,-0.396913 -0.193015,0.20684 -0.329981,0.769071 -0.187357,0.769071 0.0706,0 0.204671,-0.167471 0.297933,-0.372158 z m 0.158967,-1.609499 c 0,-0.07785 -0.06369,-0.141547 -0.141546,-0.141547 -0.07785,0 -0.141547,0.06369 -0.141547,0.141547 0,0.07785 0.06369,0.141546 0.141547,0.141546 0.07785,0 0.141546,-0.06369 0.141546,-0.141546 z M 12.762378,70.015223 c 0.188734,-0.201775 0.470546,-0.432702 0.626248,-0.513169 0.170868,-0.08831 0.08971,0.05714 -0.204701,0.366865 -0.268287,0.282242 -0.550098,0.513169 -0.626249,0.513169 -0.07614,0 0.01597,-0.165089 0.204702,-0.366865 z m 1.834487,-1.992252 c 0.0028,-0.06488 0.165593,-0.309044 0.361762,-0.542597 l 0.356672,-0.42464 -0.191263,0.485763 c -0.172586,0.438334 -0.539781,0.7737 -0.527171,0.481474 z m 18.537566,-0.68531 c -3.94405,-3.862678 -3.881448,-3.810081 -4.722694,-3.967899 -0.284719,-0.05341 -0.552576,-0.153591 -0.595234,-0.222616 -0.108406,-0.175405 -2.98866,-0.156964 -4.172489,0.02672 -0.539579,0.08371 -1.093197,0.128256 -1.230265,0.09898 -0.325893,-0.06962 2.025592,-0.378469 3.686448,-0.484177 1.10851,-0.07056 1.438059,-0.03686 2.221636,0.22719 1.248744,0.420793 1.450898,0.565092 2.797959,1.997209 0.643594,0.684231 1.393567,1.382123 1.666611,1.550872 0.273041,0.16875 0.592073,0.491756 0.708962,0.717792 0.258347,0.499588 0.11478,0.521841 -0.360934,0.05594 z"
       style="fill:#6263a6;stroke-width:0.14154699" />
    <path
       id="path823"
       d="m 13.459399,110.9428 c -1.809806,-0.29075 -1.97727,-0.43696 -1.710878,-1.49374 l 0.124884,-0.49541 0.01448,0.44269 c 0.02324,0.71015 0.277733,0.8276 2.44875,1.13012 0.637096,0.0888 0.668971,0.0765 0.761637,-0.29268 0.0532,-0.21194 0.0588,-0.74591 0.01247,-1.18661 -0.219351,-2.08627 -0.239094,-2.49673 -0.106619,-2.21673 0.07366,0.1557 0.138416,0.46917 0.143887,0.69659 0.0055,0.22742 0.1196,0.53466 0.253617,0.68275 0.374006,0.41327 0.433404,2.06597 0.08892,2.47407 -0.346951,0.41102 -0.75824,0.46345 -2.031146,0.25895 z m 28.75999,-2.93987 c -0.09212,-0.0921 -0.167498,-0.26449 -0.167498,-0.38302 0,-0.14793 0.07109,-0.11399 0.226759,0.10824 0.248365,0.3546 0.20795,0.54198 -0.05926,0.27478 z m -3.620254,-0.61787 c -0.132875,-0.34627 -0.104065,-0.39202 0.126402,-0.20076 0.235305,0.19529 0.28171,0.42465 0.08592,0.42465 -0.06952,0 -0.165066,-0.10071 -0.212322,-0.22389 z m 3.039291,-1.55724 c 0.0069,-0.16489 0.04033,-0.19844 0.08552,-0.0855 0.04089,0.10218 0.03586,0.22426 -0.01117,0.2713 -0.04703,0.0471 -0.08049,-0.0366 -0.07434,-0.18578 z M 11.635477,98.187543 c -0.206201,-0.570238 -0.120459,-0.76353 0.238308,-0.537226 0.262522,0.165595 0.332731,0.9162 0.09317,0.996056 -0.08126,0.0271 -0.230426,-0.179387 -0.331474,-0.45883 z M 21.739898,87.63537 c -1.260547,-0.181782 -2.591083,-0.622426 -3.463232,-1.146946 -0.609678,-0.366665 -0.910188,-0.685952 -1.416554,-1.505067 -0.357005,-0.577503 -0.817844,-1.131434 -1.036678,-1.246092 -0.407568,-0.213546 -2.919082,-0.487827 -3.375058,-0.368586 -0.572973,0.149836 -0.908792,-0.0823 -1.225906,-0.847385 -0.430098,-1.03769 -0.389257,-1.162424 0.07833,-0.239253 l 0.389255,0.768503 1.840111,0.07656 c 2.16214,0.08996 2.593462,0.256835 3.160791,1.222932 0.683158,1.163344 1.230768,1.667611 2.413858,2.222801 1.64767,0.773204 2.999121,0.941128 6.720507,0.835051 2.868387,-0.08176 3.027888,-0.101389 3.863066,-0.475374 0.864521,-0.387121 1.020057,-0.543403 2.102553,-2.112626 0.187963,-0.272478 0.51057,-0.813896 0.716902,-1.203149 0.689838,-1.301397 0.96859,-1.559224 2.496517,-2.309115 1.445678,-0.709522 2.09338,-0.963321 2.09338,-0.820274 0,0.04098 -0.701781,0.433466 -1.559515,0.872208 -1.677564,0.858095 -2.17336,1.260373 -2.616121,2.12267 -0.456374,0.888808 -1.567558,2.50945 -2.003494,2.92206 -0.221543,0.20969 -0.76117,0.545152 -1.199169,0.745473 -0.703141,0.321584 -1.084249,0.380199 -3.255581,0.500715 -2.827742,0.156948 -3.546889,0.15465 -4.723969,-0.0151 z M 3.3596562,86.023677 C 3.059849,85.723869 2.6147893,84.137441 2.0387125,81.315137 1.5742261,79.039535 1.5207759,78.538739 1.468564,75.973194 l -0.057613,-2.83094 0.539278,-0.603368 0.5392779,-0.603368 1.2031495,-0.02033 c 1.7478383,-0.02954 3.2561635,0.15677 3.7677028,0.465386 0.2427416,0.146449 0.5354263,0.266269 0.6504102,0.266269 0.2954329,0 0.6284279,0.421326 0.7271681,0.920056 0.4030081,2.035573 1.2247254,5.81271 1.4011084,6.440388 0.120323,0.42818 0.262939,1.033293 0.316926,1.344696 0.05399,0.311404 0.223571,0.841735 0.376853,1.178515 0.371942,0.817206 0.3051,1.192238 -0.233592,1.31062 -0.572084,0.125723 -1.7620184,0.699574 -2.255434,1.087696 -0.263813,0.207515 -0.6009859,0.317296 -0.9838493,0.320334 -0.3203673,0.0025 -0.9328146,0.132622 -1.3609942,0.289068 -1.7087846,0.62435 -2.4661857,0.758579 -2.7392993,0.485466 z m 5.045175,-0.341265 C 8.256286,85.444555 8.2932448,85.384592 8.7104245,85.18663 c 0.6069566,-0.28802 0.7983506,-0.289114 0.3887557,-0.0022 -0.175091,0.122637 -0.3007321,0.323043 -0.2792027,0.445342 0.057935,0.329106 -0.2204511,0.36442 -0.4151463,0.05267 z M 38.807487,85.3035 c 0.0069,-0.164895 0.04033,-0.198435 0.08552,-0.08553 0.04089,0.102179 0.03586,0.224264 -0.01117,0.2713 -0.04703,0.04703 -0.08049,-0.03657 -0.07434,-0.185781 z M 10.879284,84.492698 c 0.173449,-0.0774 0.315363,-0.194681 0.315363,-0.260635 0,-0.06596 0.06369,-0.119917 0.141547,-0.119917 0.07785,0 0.141548,0.123132 0.141548,0.273627 0,0.216643 -0.09515,0.270921 -0.456911,0.260634 -0.42308,-0.01203 -0.43356,-0.02341 -0.141547,-0.153709 z m 28.065052,-0.628254 c -0.170394,-0.471219 -0.09111,-0.825998 0.111375,-0.498371 0.05635,0.09117 0.228054,0.216728 0.381557,0.278995 0.275076,0.111578 0.274788,0.117444 -0.01991,0.406907 l -0.299007,0.293698 z m 2.939469,0.15101 c 0.102178,-0.04089 0.224264,-0.03586 0.271298,0.01117 0.04703,0.04703 -0.03657,0.08049 -0.18578,0.07434 -0.164895,-0.0069 -0.198435,-0.04033 -0.08552,-0.08552 z m -0.99083,-0.141546 c 0.102179,-0.04089 0.224265,-0.03586 0.2713,0.01117 0.04703,0.04703 -0.03657,0.08049 -0.185781,0.07435 -0.164896,-0.0069 -0.198435,-0.04033 -0.08552,-0.08552 z m 0.02655,-0.398723 c -0.194627,-0.111259 -0.522295,-0.204547 -0.728152,-0.207305 -0.449352,-0.0061 -1.208557,-0.673973 -1.308499,-1.151222 -0.188201,-0.898715 -0.340128,-3.446391 -0.273504,-4.586447 0.04095,-0.700657 0.0014,-2.006428 -0.08794,-2.901713 -0.322124,-3.228983 -0.337063,-3.677908 -0.148545,-4.46374 0.10156,-0.423346 0.286153,-0.86148 0.410205,-0.97363 0.175812,-0.15894 0.810981,-0.212738 2.880159,-0.243943 2.368699,-0.03573 2.681218,-0.01345 2.901712,0.206786 0.217558,0.2173 0.257868,0.690625 0.337077,3.957662 0.159176,6.565769 0.141643,9.789902 -0.05458,10.035342 -0.407147,0.509271 -3.20259,0.742851 -3.92793,0.32821 z m 4.583353,-7.453692 -0.13431,-6.946173 -0.392307,-0.337445 c -0.34217,-0.294323 -0.536001,-0.337445 -1.516784,-0.337445 -0.655292,0 -1.124485,-0.05907 -1.124485,-0.141547 0,-0.08361 0.506858,-0.141331 1.238536,-0.141018 1.378601,5.75e-4 2.052669,0.268634 2.297956,0.913785 0.07665,0.201611 0.09557,1.452643 0.04496,2.973991 -0.0508,1.527663 -0.0111,4.12553 0.09494,6.211234 0.142635,2.805613 0.145231,3.697467 0.01194,4.101325 -0.09367,0.283843 -0.218885,0.546092 -0.278236,0.582773 -0.05935,0.03668 -0.168353,-3.059082 -0.242223,-6.87948 z m -24.34399,5.273767 c -1.261726,-0.769382 -1.542638,-3.072188 -0.471589,-3.865885 0.199574,-0.147894 0.677295,-0.355176 1.061602,-0.460629 l 0.69874,-0.191731 -0.757276,-0.01266 c -0.658824,-0.01101 -0.817715,-0.0731 -1.222164,-0.477545 -0.814491,-0.814492 -0.973861,-2.532105 -0.333524,-3.594547 0.351713,-0.583559 1.29368,-1.036259 2.156222,-1.036259 0.551022,0 0.746959,0.07303 1.074342,0.400408 0.375777,0.375777 0.707618,1.198209 0.7094,1.758183 5.76e-4,0.166009 0.11143,0.247708 0.33625,0.247708 0.293023,0 0.344623,-0.0813 0.4079,-0.642705 0.08808,-0.781543 0.382666,-1.134821 1.309072,-1.569953 1.055458,-0.495748 1.564361,-0.447945 2.185795,0.205319 1.137148,1.195389 1.122558,3.10238 -0.03068,4.008915 l -0.295438,0.232239 0.39339,0.467517 c 0.539813,0.64153 0.647519,0.985504 0.664839,2.123235 0.01012,0.665035 -0.05506,1.08785 -0.202355,1.312656 -0.265168,0.404695 -1.057842,0.79858 -1.607105,0.79858 -0.414639,0 -1.234267,-0.470665 -1.91207,-1.097988 l -0.378977,-0.350744 -0.470307,0.53368 c -0.25867,0.293525 -0.553795,0.651702 -0.655834,0.79595 -0.485922,0.686927 -1.863001,0.9024 -2.660244,0.416254 z m 7.021406,-2.15459 c 0,-0.243978 -0.280629,-0.401117 -0.285025,-0.159603 -0.0012,0.05839 -0.04396,0.265401 -0.09531,0.460028 -0.08385,0.317726 -0.06919,0.334027 0.143479,0.159603 0.130275,-0.106847 0.236867,-0.313859 0.236867,-0.460028 z m 0,-1.185818 c 0,-0.116777 -0.06369,-0.212321 -0.141546,-0.212321 -0.07785,0 -0.141547,0.09555 -0.141547,0.212321 0,0.116776 0.06369,0.21232 0.141547,0.21232 0.07785,0 0.141546,-0.09554 0.141546,-0.21232 z M 27.87978,74.539433 c 0.175121,-0.384349 0.106741,-0.6298 -0.110576,-0.396913 -0.193014,0.20684 -0.32998,0.769071 -0.187357,0.769071 0.0706,0 0.204671,-0.167471 0.297933,-0.372158 z m 0.158968,-1.609499 c 0,-0.07785 -0.06369,-0.141547 -0.141547,-0.141547 -0.07785,0 -0.141547,0.06369 -0.141547,0.141547 0,0.07785 0.06369,0.141546 0.141547,0.141546 0.07785,0 0.141547,-0.06369 0.141547,-0.141546 z m -17.241147,8.138952 c 0.0029,-0.233553 0.03461,-0.311962 0.0705,-0.17424 0.03589,0.137721 0.03353,0.328809 -0.0052,0.424641 -0.03877,0.09584 -0.06813,-0.01684 -0.06525,-0.250401 z M 1.0188916,80.198505 C 0.67795668,78.912641 0.54496293,78.154879 0.42636968,76.822476 c -0.069292,-0.778508 -0.1648011,-1.711239 -0.2122406,-2.072734 -0.092947,-0.708264 0.097103,-1.25362 0.43687056,-1.25362 0.16318978,0 0.19537925,0.210985 0.16102226,1.055421 -0.0547498,1.345655 0.12631896,4.06578 0.3444484,5.17451 0.1889568,0.960449 0.085766,1.314813 -0.1375787,0.472452 z m 9.6288434,0.361021 C 9.9906458,77.671601 9.4902113,75.231519 9.5039196,74.982365 c 0.00429,-0.07785 0.1953402,0.495414 0.4245708,1.273923 0.5028646,1.707815 0.8825976,3.642973 0.7993366,4.073493 -0.03345,0.172955 -0.06949,0.27634 -0.08009,0.229745 z m 27.497134,-0.870723 c -0.008,-0.330868 -0.120026,-1.397777 -0.249026,-2.370913 -0.313493,-2.364882 -0.47442,-6.715149 -0.25346,-6.851709 0.201902,-0.124782 0.181228,-0.349513 0.246166,2.676073 0.03007,1.401316 0.151083,3.291185 0.268903,4.199708 0.232989,1.796607 0.275202,2.948415 0.108057,2.948415 -0.05839,0 -0.112675,-0.270708 -0.12064,-0.601574 z M 9.1889891,73.903473 c -0.052125,-0.126286 -0.1376938,-0.515825 -0.190152,-0.865641 -0.090592,-0.604114 -0.076895,-0.639563 0.272945,-0.706439 0.2655528,-0.05077 0.3308485,-0.02525 0.2340144,0.09141 -0.07387,0.08901 -0.1540469,0.51023 -0.1781714,0.93605 -0.024594,0.434101 -0.085496,0.673349 -0.138636,0.544608 z M 5.2496734,71.372916 c -0.194627,-0.06233 -0.576804,-0.121614 -0.8492819,-0.13174 -0.8577111,-0.03188 -0.096699,-0.32121 0.8448639,-0.32121 0.813146,0 1.419888,0.195682 1.419888,0.457931 0,0.160804 -0.9077824,0.157609 -1.41547,-0.005 z m 7.5127046,-1.357693 c 0.188734,-0.201775 0.470546,-0.432702 0.626248,-0.513169 0.170868,-0.08831 0.08971,0.05714 -0.204701,0.366865 -0.268287,0.282242 -0.550098,0.513169 -0.626249,0.513169 -0.07614,0 0.01597,-0.165089 0.204702,-0.366865 z m 1.834487,-1.992252 c 0.0028,-0.06488 0.165593,-0.309044 0.361762,-0.542597 l 0.356672,-0.42464 -0.191263,0.485763 c -0.172586,0.438334 -0.539781,0.7737 -0.527171,0.481474 z m 18.537566,-0.68531 c -3.94405,-3.862678 -3.881448,-3.810081 -4.722694,-3.967899 -0.284719,-0.05341 -0.552576,-0.153591 -0.595234,-0.222616 -0.108406,-0.175405 -2.98866,-0.156964 -4.172489,0.02672 -0.539579,0.08371 -1.093197,0.128256 -1.230265,0.09898 -0.325893,-0.06962 2.025592,-0.378469 3.686448,-0.484177 1.10851,-0.07056 1.438059,-0.03686 2.221636,0.22719 1.248744,0.420793 1.450898,0.565092 2.797959,1.997209 0.643594,0.684231 1.393567,1.382123 1.666611,1.550872 0.273041,0.16875 0.592073,0.491756 0.708962,0.717792 0.258347,0.499588 0.11478,0.521841 -0.360934,0.05594 z"
       style="fill:#6f6f6f;stroke-width:0.14154699" />
    <path
       id="path821"
       d="M 3.3596562,86.023677 C 3.059849,85.723869 2.6147893,84.137441 2.0387125,81.315137 1.5742261,79.039535 1.5207759,78.538739 1.468564,75.973194 l -0.057613,-2.83094 0.539278,-0.603368 0.5392779,-0.603368 1.2031495,-0.02033 c 1.7478383,-0.02954 3.2561635,0.15677 3.7677028,0.465386 0.2427416,0.146449 0.5354263,0.266269 0.6504102,0.266269 0.2954329,0 0.6284279,0.421326 0.7271681,0.920056 0.4030081,2.035573 1.2247254,5.81271 1.4011084,6.440388 0.120323,0.42818 0.262939,1.033293 0.316926,1.344696 0.05399,0.311404 0.223571,0.841735 0.376853,1.178515 0.371942,0.817206 0.3051,1.192238 -0.233592,1.31062 -0.572084,0.125723 -1.7620184,0.699574 -2.255434,1.087696 -0.263813,0.207515 -0.6009859,0.317296 -0.9838493,0.320334 -0.3203673,0.0025 -0.9328146,0.132622 -1.3609942,0.289068 -1.7087846,0.62435 -2.4661857,0.758579 -2.7392993,0.485466 z M 40.919515,83.475185 C 40.724888,83.363926 40.39722,83.270638 40.191363,83.26788 39.74201,83.26178 38.982806,82.593907 38.882864,82.116658 38.694663,81.217943 38.542737,78.670267 38.60936,77.530211 c 0.04095,-0.700657 0.0014,-2.006428 -0.08794,-2.901713 -0.322124,-3.228983 -0.337063,-3.677908 -0.148545,-4.46374 0.10156,-0.423346 0.286153,-0.86148 0.410205,-0.97363 0.175813,-0.15894 0.810982,-0.212738 2.88016,-0.243943 2.368698,-0.03573 2.681217,-0.01345 2.90171,0.206786 0.217559,0.2173 0.257869,0.690625 0.337078,3.957662 0.159177,6.565769 0.141643,9.789902 -0.05458,10.035342 -0.407147,0.509271 -3.20259,0.742851 -3.92793,0.32821 z m 4.583354,-7.453692 -0.134311,-6.946173 -0.392307,-0.337445 c -0.342166,-0.294323 -0.535997,-0.337445 -1.51678,-0.337445 -0.655292,0 -1.124485,-0.05907 -1.124485,-0.141547 0,-0.08361 0.506858,-0.141331 1.238536,-0.141018 1.378601,5.75e-4 2.052669,0.268634 2.297956,0.913785 0.07665,0.201611 0.09558,1.452643 0.04496,2.973991 -0.0508,1.527663 -0.0111,4.12553 0.09494,6.211234 0.142635,2.805613 0.145231,3.697467 0.01194,4.101325 -0.09367,0.283843 -0.218885,0.546092 -0.278236,0.582773 -0.05935,0.03668 -0.168353,-3.059082 -0.242223,-6.87948 z m -24.118278,5.082779 c -0.731025,-0.49753 -1.029857,-1.000679 -1.089401,-1.834241 -0.08518,-1.19248 0.449303,-1.857854 1.657242,-2.063072 0.524101,-0.08904 0.645237,-0.16763 0.684727,-0.44423 0.0461,-0.322955 0.02229,-0.33253 -0.611271,-0.245692 -1.245582,0.170727 -1.898986,-0.509426 -2.012095,-2.094464 -0.100899,-1.413899 0.568398,-2.302046 1.843059,-2.445719 1.011364,-0.113995 1.350056,0.03107 1.658431,0.710367 0.148957,0.328119 0.272228,0.796778 0.273938,1.041464 0.0033,0.465941 0.193475,0.616718 0.77805,0.616718 0.362939,0 0.498982,-0.237241 0.498982,-0.870164 0,-0.636773 0.223097,-0.934774 0.991205,-1.324005 0.739626,-0.374797 1.398043,-0.448515 1.849231,-0.207047 0.150688,0.08065 0.433134,0.460705 0.627656,0.844577 0.645528,1.273887 0.372561,2.652401 -0.639212,3.228096 -0.231435,0.131685 -0.420791,0.271276 -0.420791,0.310201 0,0.03893 0.178779,0.172447 0.397287,0.296712 0.594454,0.338069 0.933657,1.161768 0.940127,2.282941 0.0049,0.839906 -0.03774,0.995147 -0.362165,1.319882 -0.230909,0.231136 -0.586934,0.397432 -0.9572,0.447095 -0.512274,0.06871 -0.692226,0.0109 -1.372999,-0.441113 -0.430902,-0.286102 -0.819102,-0.613076 -0.862668,-0.726607 -0.140744,-0.366774 -0.395638,-0.223408 -1.17307,0.659799 -1.105488,1.255899 -1.851548,1.515315 -2.699063,0.938502 z m 6.880991,-1.742596 c 0.226389,-0.554853 0.04086,-0.95652 -0.289337,-0.62642 -0.117855,0.117819 -0.256803,0.426828 -0.308775,0.686686 -0.08138,0.406894 -0.05869,0.46557 0.163416,0.422746 0.14185,-0.02735 0.337463,-0.244705 0.434696,-0.483012 z m 0.05625,-1.327697 c 0,-0.151106 -0.06925,-0.317536 -0.15388,-0.369844 -0.216438,-0.133766 -0.466927,0.156537 -0.364772,0.422749 0.121334,0.31619 0.518652,0.275663 0.518652,-0.0529 z m -0.371143,-3.39238 c 0.236405,-0.404782 0.24355,-0.484452 0.05992,-0.66809 -0.182786,-0.182786 -0.229669,-0.182996 -0.380125,-0.0017 -0.09439,0.113736 -0.210111,0.443962 -0.257151,0.733835 -0.106529,0.656461 0.174793,0.625257 0.577364,-0.06404 z m 0.158823,-1.650749 c 0,-0.148148 -0.111469,-0.290827 -0.247707,-0.317064 -0.249112,-0.04798 -0.358615,0.381153 -0.150394,0.589372 0.167226,0.167228 0.398101,0.0093 0.398101,-0.272308 z M 1.0188896,80.198505 C 0.67795471,78.912641 0.54496096,78.154879 0.42636768,76.822476 c -0.069292,-0.778508 -0.1648011,-1.711239 -0.2122406,-2.072734 -0.092947,-0.708264 0.097103,-1.25362 0.43687058,-1.25362 0.16318979,0 0.19537925,0.210985 0.16102227,1.055421 -0.0547498,1.345655 0.12631896,4.06578 0.34444837,5.17451 0.1889568,0.960449 0.085766,1.314813 -0.1375787,0.472452 z m 4.2307838,-8.825589 c -0.194627,-0.06233 -0.576804,-0.121614 -0.8492819,-0.13174 -0.8577111,-0.03188 -0.096699,-0.32121 0.8448639,-0.32121 0.813146,0 1.419888,0.195682 1.419888,0.457931 0,0.160804 -0.9077824,0.157609 -1.41547,-0.005 z"
       style="fill:#dfdfdf;fill-opacity:1;stroke-width:0.14154699" />
    <path
       id="path819"
       d="m 21.384591,81.104272 c -0.731025,-0.49753 -1.029857,-1.000679 -1.089401,-1.834241 -0.08518,-1.19248 0.449303,-1.857854 1.657242,-2.063072 0.524101,-0.08904 0.645237,-0.16763 0.684727,-0.44423 0.0461,-0.322955 0.02229,-0.33253 -0.611271,-0.245692 -1.245582,0.170727 -1.898986,-0.509426 -2.012095,-2.094464 -0.100899,-1.413899 0.568398,-2.302046 1.843059,-2.445719 1.011364,-0.113995 1.350056,0.03107 1.658431,0.710367 0.148957,0.328119 0.272228,0.796778 0.273938,1.041464 0.0033,0.465941 0.193475,0.616718 0.77805,0.616718 0.362939,0 0.498982,-0.237241 0.498982,-0.870164 0,-0.636773 0.223097,-0.934774 0.991205,-1.324005 0.739626,-0.374797 1.398043,-0.448515 1.849231,-0.207047 0.150688,0.08065 0.433134,0.460705 0.627656,0.844577 0.645528,1.273887 0.372561,2.652401 -0.639212,3.228096 -0.231435,0.131685 -0.420791,0.271276 -0.420791,0.310201 0,0.03893 0.178779,0.172447 0.397287,0.296712 0.594454,0.338069 0.933657,1.161768 0.940127,2.282941 0.0049,0.839906 -0.03774,0.995147 -0.362165,1.319882 -0.230909,0.231136 -0.586934,0.397432 -0.9572,0.447095 -0.512274,0.06871 -0.692226,0.0109 -1.372999,-0.441113 -0.430902,-0.286102 -0.819102,-0.613076 -0.862668,-0.726607 -0.140744,-0.366774 -0.395638,-0.223408 -1.17307,0.659799 -1.105488,1.255899 -1.851548,1.515315 -2.699063,0.938502 z m 6.880991,-1.742596 c 0.226389,-0.554853 0.04086,-0.95652 -0.289337,-0.62642 -0.117855,0.117819 -0.256803,0.426828 -0.308775,0.686686 -0.08138,0.406894 -0.05869,0.46557 0.163416,0.422746 0.14185,-0.02735 0.337463,-0.244705 0.434696,-0.483012 z m 0.05625,-1.327697 c 0,-0.151106 -0.06925,-0.317536 -0.15388,-0.369844 -0.216438,-0.133766 -0.466927,0.156537 -0.364772,0.422749 0.121334,0.31619 0.518652,0.275663 0.518652,-0.0529 z m -0.371143,-3.39238 c 0.236405,-0.404782 0.24355,-0.484452 0.05992,-0.66809 -0.182786,-0.182786 -0.229669,-0.182996 -0.380125,-0.0017 -0.09439,0.113736 -0.210111,0.443962 -0.257151,0.733835 -0.106529,0.656461 0.174793,0.625257 0.577364,-0.06404 z m 0.158823,-1.650749 c 0,-0.148148 -0.111469,-0.290827 -0.247707,-0.317064 -0.249112,-0.04798 -0.358615,0.381153 -0.150394,0.589372 0.167226,0.167228 0.398101,0.0093 0.398101,-0.272308 z"
       style="fill:#060706;stroke-width:0.14154699" />
  </g>
</svg>
