<?xml version="1.0" encoding="UTF-8" standalone="no"?>
<svg
   xmlns:dc="http://purl.org/dc/elements/1.1/"
   xmlns:cc="http://creativecommons.org/ns#"
   xmlns:rdf="http://www.w3.org/1999/02/22-rdf-syntax-ns#"
   xmlns:svg="http://www.w3.org/2000/svg"
   xmlns="http://www.w3.org/2000/svg"
   viewBox="0 0 50 50"
   height="50"
   width="50"
   id="svg2"
   version="1.1">
  <metadata
     id="metadata8">
    <rdf:RDF>
      <cc:Work
         rdf:about="">
        <dc:format>image/svg+xml</dc:format>
        <dc:type
           rdf:resource="http://purl.org/dc/dcmitype/StillImage" />
        <dc:title></dc:title>
      </cc:Work>
    </rdf:RDF>
  </metadata>
  <defs
     id="defs6" />
  <g
     transform="translate(-0.40677961,-46.40678)"
     id="g831">
    <path
       id="path845"
       d="m 20.659291,92.490578 c -1.510285,-0.262763 -2.098378,-0.4478 -2.820687,-0.887498 -0.501916,-0.305534 -1.188067,-0.683701 -1.524777,-0.84037 -1.231232,-0.572881 -5.165969,-5.050549 -5.603716,-6.376939 -0.33137,-1.004059 -2.2848981,-2.673508 -3.1284418,-2.673508 -0.3145107,0 -0.8046466,-0.142862 -1.0891907,-0.317469 C 6.2079345,81.220186 5.5271341,80.99562 4.9795889,80.895758 3.032252,80.540602 2.4687742,80.269221 1.9929894,79.457354 1.166759,78.0475 0.58263539,74.130884 0.58263539,70.000774 c 0,-2.832084 0.24079508,-4.546248 0.65817261,-4.685374 0.1045327,-0.03485 0.3206478,-0.203522 0.480256,-0.374843 0.3370945,-0.361827 2.1605286,-0.982031 2.8872293,-0.982031 0.2739272,0 0.7308581,-0.140274 1.0154022,-0.311722 0.2845441,-0.171449 0.7924218,-0.399609 1.1286176,-0.507024 0.8653314,-0.276475 1.7046117,-1.275573 2.0396389,-2.428023 0.4578607,-1.574987 1.696788,-3.855681 2.631331,-4.843919 0.4713,-0.498377 1.272237,-1.115821 1.779861,-1.372098 0.507625,-0.256276 1.456904,-0.901273 2.109509,-1.433325 1.46267,-1.192479 4.112093,-2.560883 5.163393,-2.666848 0.420186,-0.04235 1.361297,-0.254068 2.091357,-0.470479 1.895125,-0.56177 3.673664,-0.760982 7.549486,-0.845613 l 3.401418,-0.07428 1.473743,0.756788 c 0.810557,0.416234 1.582343,0.756788 1.71508,0.756788 0.132736,0 0.626863,0.394671 1.09806,0.877047 0.471198,0.482375 1.267381,1.184409 1.769298,1.560076 1.416057,1.059868 3.208948,3.003582 3.950432,4.282751 0.883051,1.523395 1.189041,2.786989 1.211182,5.001633 0.0099,0.990661 0.06591,2.249191 0.124442,2.796737 0.103486,0.967962 0.120222,0.9959 0.604202,1.008639 0.273772,0.0072 0.77739,0.182358 1.11915,0.389226 0.500514,0.302962 0.603119,0.448885 0.527496,0.750192 -0.07781,0.310021 0.04307,0.459333 0.706001,0.872057 0.439936,0.273894 1.032566,0.588657 1.316953,0.699473 0.284388,0.110815 0.601715,0.383222 0.705172,0.605348 0.103457,0.222125 0.270145,0.580734 0.370419,0.796909 0.207,0.446268 -0.132651,2.790234 -0.590552,4.075461 -0.385577,1.082227 -0.746348,2.537007 -1.09323,4.408362 -0.333238,1.797764 -1.353628,5.875078 -1.549688,6.192308 -0.16497,0.266926 -0.589864,0.247049 -0.697181,-0.03262 -0.04818,-0.125585 0.02881,-0.677686 0.17113,-1.226891 0.456318,-1.760989 0.378302,-1.831928 -0.731007,-0.664703 -0.577584,0.607738 -0.992164,1.193001 -0.995536,1.405392 -0.0035,0.221894 -0.271192,0.578095 -0.685759,0.912575 -0.37399,0.301738 -0.919726,0.749166 -1.212751,0.994285 -1.364439,1.141371 -4.382882,2.617343 -7.233022,3.536839 -0.822854,0.265465 -1.376379,0.529453 -3.042845,1.451207 -0.330019,0.182539 -0.881726,0.2902 -1.487943,0.290364 -0.724574,1.66e-4 -1.314595,0.145615 -2.379729,0.586528 -1.343361,0.556085 -1.537232,0.590089 -3.765352,0.660426 -1.858734,0.05867 -2.747359,0.0049 -4.257181,-0.257826 z M 19.331908,91.219 c -0.136885,-0.04982 -0.491546,-0.23668 -0.788132,-0.415241 -0.296588,-0.17856 -0.539249,-0.280134 -0.539249,-0.225721 0,0.163509 1.059624,0.757452 1.327381,0.744025 0.221231,-0.01108 0.221231,-0.02254 0,-0.103063 z m -1.717196,-1.017059 c -0.242711,-0.268194 -1.435336,-0.763408 -1.435336,-0.595997 0,0.06088 1.501225,0.876147 1.643463,0.8925 0.03695,0.0042 -0.0567,-0.129178 -0.208127,-0.296503 z M 1.578172,68.770286 c 0,-0.182515 -0.074665,-0.331846 -0.1659228,-0.331846 -0.091257,0 -0.1659227,0.149331 -0.1659227,0.331846 0,0.182515 0.074665,0.331846 0.1659227,0.331846 0.091257,0 0.1659228,-0.149331 0.1659228,-0.331846 z m 0.4074173,-2.280533 c 0.055676,-0.145088 0.026892,-0.338136 -0.063967,-0.428996 -0.1096467,-0.109647 -0.2230638,-0.01299 -0.3372849,0.287432 -0.2209938,0.581257 -0.2180392,0.604164 0.063967,0.49595 0.1298303,-0.04982 0.2816086,-0.209294 0.3372849,-0.354386 z M 42.232586,56.865327 c -0.19236,-0.342215 -1.065125,-1.256865 -1.939478,-2.032554 -0.874356,-0.775689 -2.080624,-1.877001 -2.680599,-2.447361 -0.599975,-0.570359 -1.184413,-1.037018 -1.29875,-1.037018 -0.114337,0 -0.774968,-0.29866 -1.468071,-0.663691 -1.502039,-0.791065 -2.099658,-0.878499 -1.129862,-0.165304 0.372736,0.274113 0.799322,0.684006 0.947971,0.910873 0.153192,0.2338 0.95521,0.752602 1.851416,1.197626 2.021179,1.003644 4.080465,2.550516 5.117747,3.844293 0.44773,0.55844 0.844501,1.015347 0.881713,1.015347 0.03721,0 -0.08973,-0.279996 -0.282087,-0.622211 z M 12.958194,55.971075 c 0.05603,-0.09066 0.06645,-0.200278 0.02314,-0.243586 -0.114754,-0.114754 -1.091775,0.741161 -1.308694,1.146479 -0.142667,0.266575 -0.02788,0.221522 0.499206,-0.195939 0.37646,-0.298161 0.730318,-0.616292 0.786351,-0.706954 z"
       style="fill:#d6d7d7;stroke-width:0.16592278" />
    <path
       id="path843"
       d="m 21.930367,92.487027 c -2.37853,-0.330038 -3.385779,-0.61888 -4.263423,-1.222591 -0.473611,-0.32579 -0.971993,-0.592343 -1.107512,-0.592343 -0.702017,0 -4.921112,-4.719791 -5.643733,-6.313493 -0.399921,-0.882008 -0.692048,-1.242566 -1.5777501,-1.947341 -0.7750284,-0.61671 -1.232437,-0.86492 -1.5939003,-0.86492 -0.2788182,0 -0.8580079,-0.186662 -1.2870873,-0.414805 -0.4290795,-0.228145 -0.9851549,-0.414808 -1.2357231,-0.414808 -0.7647037,0 -2.6560299,-0.65793 -2.7695767,-0.963445 C 2.3942265,79.598745 2.2062586,79.27884 2.0339548,79.042385 1.8557538,78.797835 1.498914,77.581622 1.2063582,76.221697 0.72523289,73.98522 0.69118777,73.60071 0.67881889,70.263591 0.66709169,67.099604 0.70056549,66.625899 0.97486707,66.07404 1.1449658,65.731825 1.3502952,65.45183 1.4311547,65.45183 c 0.2039476,0 0.1853897,0.181365 -0.1018668,0.995537 -0.34626033,0.981407 -0.34503343,5.561471 0.0018,6.704761 0.1358985,0.447977 0.2513677,1.119965 0.2565983,1.493306 0.00522,0.37334 0.1410488,1.276124 0.3018182,2.006184 0.2745619,1.246796 0.3304243,1.348833 0.9201511,1.680707 0.639469,0.359868 1.110766,0.355083 1.4173989,-0.01439 0.2547104,-0.306909 0.4361631,-1.43939 0.9071022,-5.661425 0.455015,-4.079277 0.5884722,-6.672053 0.3815195,-7.412081 -0.1122953,-0.401551 -0.2081297,-0.456288 -0.7988549,-0.456288 -0.3691882,0 -1.0397116,0.158508 -1.4900518,0.352239 -0.6752704,0.290493 -0.8636763,0.314993 -1.0748083,0.13977 -0.1408025,-0.116862 -0.196843,-0.266163 -0.1245321,-0.331785 0.2556274,-0.231986 2.2139689,-0.823918 2.725834,-0.823918 0.285452,0 0.7518124,-0.140275 1.0363566,-0.311723 0.2845441,-0.171448 0.7961467,-0.400839 1.136894,-0.509755 0.8277607,-0.264588 1.6511976,-1.262093 2.0197717,-2.446737 0.3794561,-1.219617 1.4626607,-3.393485 2.1746307,-4.364233 0.624246,-0.851138 1.151916,-1.273787 2.345314,-1.878526 0.460886,-0.23355 1.277065,-0.799325 1.813731,-1.257279 1.290401,-1.101143 3.890904,-2.494649 5.047486,-2.704747 0.501917,-0.09117 1.584563,-0.34287 2.40588,-0.559319 2.222769,-0.585788 4.458515,-0.81777 7.881332,-0.81777 h 3.069573 l 1.300007,0.705172 c 0.715006,0.387844 1.409555,0.705171 1.543443,0.705171 0.13389,0 0.789825,0.503991 1.457635,1.119979 0.667812,0.615988 1.927133,1.749667 2.798496,2.519284 1.211406,1.069957 1.768233,1.708525 2.36579,2.71309 1.13657,1.910705 1.261668,2.435708 1.401711,5.882524 0.127759,3.144511 0.232411,3.566338 0.845042,3.406132 0.541294,-0.141553 1.45497,0.441659 1.422905,0.908254 -0.02249,0.32721 0.214162,0.543291 1.383213,1.262967 1.044436,0.642964 1.505477,1.040366 1.777024,1.531738 0.354238,0.641005 0.358233,0.699876 0.117792,1.735119 -0.136887,0.589382 -0.465209,1.748536 -0.729602,2.575895 -0.264393,0.82736 -0.708832,2.581994 -0.987643,3.899184 -0.662109,3.128037 -1.430188,6.274623 -1.564389,6.408823 -0.272474,0.272475 -0.316189,-0.215597 -0.103568,-1.156354 0.128334,-0.567833 0.236177,-1.368416 0.239651,-1.779075 0.0034,-0.410659 0.06758,-0.841373 0.142458,-0.957142 0.07488,-0.115772 0.38459,-1.273082 0.68825,-2.571804 0.30366,-1.298721 0.858383,-3.373976 1.23272,-4.611673 0.374337,-1.237701 0.680612,-2.43704 0.680612,-2.665203 0,-0.379259 -0.374494,-0.834216 -1.198255,-1.455708 -0.446793,-0.337089 -1.371582,0.324448 -1.893567,1.354535 -0.626731,1.236797 -1.196319,3.696474 -1.32522,5.722757 -0.06379,1.002829 -0.24754,2.175293 -0.419986,2.679891 -0.369498,1.08118 -0.381903,1.50511 -0.06617,2.260791 0.16026,0.383556 0.350619,0.575402 0.570939,0.575402 0.581506,0 0.547176,0.305263 -0.116154,1.032877 -0.355657,0.390121 -0.69382,0.904642 -0.751472,1.14338 -0.106633,0.441566 -1.240982,1.49646 -2.608466,2.425757 -1.26464,0.859407 -3.268264,1.791723 -5.781983,2.690444 -1.314795,0.470073 -2.696102,1.07075 -3.069571,1.334839 -0.544515,0.385038 -0.925557,0.501869 -1.923454,0.589745 -0.817222,0.07197 -1.742641,0.305747 -2.695721,0.680995 -1.29905,0.511465 -1.655879,0.578276 -3.401418,0.636875 -1.072564,0.03601 -2.460779,-0.0054 -3.084921,-0.092 z m -0.368586,-0.832669 c -0.176968,-0.06644 -0.840153,-0.281513 -1.473746,-0.477934 -0.633591,-0.196425 -1.494797,-0.608786 -1.913795,-0.916356 -0.418998,-0.307571 -0.98325,-0.614019 -1.253895,-0.680994 -0.306606,-0.07587 -1.164894,-0.784032 -2.277076,-1.878776 -0.981745,-0.966353 -1.866312,-1.784309 -1.965705,-1.817683 -0.865309,-0.290546 3.117824,3.837745 4.318032,4.475394 0.509282,0.270572 1.165241,0.643487 1.457685,0.828697 0.292444,0.185212 1.113762,0.430239 1.82515,0.544505 1.265027,0.203192 1.924129,0.163723 1.28335,-0.07686 z M 3.8390691,79.451502 C 3.0359995,79.039438 2.6465344,78.918304 2.5227486,79.042089 c -0.2101427,0.210143 -0.2245287,0.197052 0.7146511,0.650327 0.4106589,0.198198 0.9706484,0.356744 1.2444209,0.352328 0.4371882,-0.0071 0.3589629,-0.07926 -0.6427515,-0.593242 z M 27.388931,78.323751 c 0.259661,-0.190246 0.315956,-0.413867 0.290486,-1.153892 -0.03542,-1.029331 -0.230943,-1.50357 -0.72999,-1.770652 -0.264026,-0.141302 -0.433538,-0.119684 -0.765123,0.09757 -0.405641,0.265787 -0.421125,0.33079 -0.324721,1.363168 0.141831,1.518839 0.710865,2.063483 1.529348,1.463799 z m 10.58112,-0.741205 c 1.570724,-0.375878 2.126353,-0.846706 2.997322,-2.539867 0.537594,-1.045081 0.598187,-1.294974 0.598187,-2.466988 0,-2.050766 -1.013946,-4.291003 -2.196021,-4.851933 -0.319851,-0.151781 -0.773698,-0.527885 -1.008547,-0.835788 -0.69145,-0.906537 -1.434385,-1.165778 -3.020175,-1.053868 -0.743116,0.05244 -1.722499,0.236463 -2.176403,0.408933 -1.34747,0.511998 -2.814605,1.607478 -3.33229,2.48815 -0.416558,0.708643 -0.460668,0.932301 -0.449458,2.279058 0.02002,2.405156 0.940298,4.258215 2.635094,5.305974 0.688036,0.425357 0.979008,0.501861 1.920231,0.504867 1.011002,0.0032 1.163396,0.05103 1.719453,0.53925 0.335574,0.294638 0.700868,0.535122 0.811766,0.53441 0.110895,-6.74e-4 0.786275,-0.141201 1.500841,-0.312198 z M 34.753037,75.249864 C 33.906451,74.992975 33.58642,74.710267 32.81264,73.53574 32.04086,72.364251 32.025002,72.313856 32.025002,71.032754 V 69.72533 l 1.016023,-0.933809 c 0.558813,-0.513596 1.056386,-1.053858 1.105717,-1.200582 0.105094,-0.312574 0.810236,-0.479881 2.022532,-0.479881 0.988478,0 1.762472,0.421411 2.335361,1.271522 0.618243,0.917412 1.143458,2.843679 1.146241,4.20393 0.0045,2.234467 -0.645656,2.83017 -3.062999,2.806167 -0.775688,-0.0076 -1.601367,-0.07197 -1.83484,-0.142813 z m -13.010568,1.425255 c 1.481628,-0.71371 1.952113,-1.202235 2.472164,-2.566965 0.864791,-2.269408 1.028905,-4.719513 0.380907,-5.686657 -0.5085,-0.758945 -1.821732,-1.6236 -2.439246,-1.606041 -0.269483,0.0076 -0.592207,-0.07092 -0.717162,-0.174622 -0.124955,-0.103703 -0.792583,-0.296729 -1.48362,-0.428946 -1.831177,-0.350363 -3.124539,0.02911 -4.564527,1.339224 -0.751297,0.683537 -2.075364,2.940945 -2.251295,3.83824 -0.429581,2.190984 2.09227,5.51115 4.186023,5.51115 0.271319,0 0.539452,0.07467 0.595852,0.165923 0.0564,0.09125 0.678901,0.165923 1.383337,0.165923 1.113222,0 1.432131,-0.07291 2.437567,-0.557229 z m -4.832746,-2.056055 c -1.097502,-1.189827 -1.489881,-2.862544 -1.030866,-4.394601 0.432662,-1.444096 2.573758,-3.113405 3.99333,-3.113405 0.543672,0 0.77747,0.129023 1.539175,0.849413 1.144933,1.082832 1.570849,2.138595 1.570849,3.893849 0,1.35907 -0.187627,1.876012 -0.940551,2.591374 -0.546314,0.519061 -2.145453,0.955271 -3.515876,0.95905 -0.849213,0.0024 -0.921683,-0.03289 -1.616061,-0.78568 z M 43.713847,59.185367 c -0.468189,-1.461019 -1.633313,-3.080229 -3.251357,-4.518517 -0.872636,-0.775689 -2.082743,-1.867927 -2.689131,-2.427196 -0.606387,-0.559269 -1.289183,-1.073078 -1.517327,-1.141797 -0.228143,-0.06872 -0.962478,-0.413787 -1.631853,-0.766816 -1.17049,-0.617319 -2.215556,-0.828195 -2.42499,-0.489323 -0.05186,0.0839 0.173954,0.241076 0.501798,0.349275 0.327844,0.108198 0.995578,0.596223 1.483854,1.084497 0.563452,0.563455 1.391857,1.141101 2.267616,1.581212 3.312014,1.664449 5.529251,3.804342 6.855294,6.616154 0.373835,0.792702 0.511063,0.96541 0.551164,0.693669 0.02937,-0.199006 -0.03591,-0.640527 -0.145068,-0.981158 z m -30.08885,-3.993696 c -0.698709,-0.134798 -2.411062,1.597746 -3.020338,3.055948 -0.229233,0.548633 -0.03251,0.395603 1.523453,-1.185026 1.318772,-1.339685 1.710786,-1.829654 1.496885,-1.870922 z"
       style="fill:#d5d5d5;fill-opacity:1;stroke-width:0.16592278" />
    <path
       id="path841"
       d="M 22.260459,92.487542 C 20.114125,92.238245 18.84895,91.94856 18.219812,91.562356 17.873262,91.349622 17.216394,90.994004 16.760105,90.772096 15.289894,90.057079 11.467597,85.843416 10.927996,84.342834 10.538541,83.259794 8.4907534,81.380417 7.70012,81.380417 7.4267409,81.380417 7.0014457,81.27646 6.7550193,81.1494 6.5085928,81.022341 5.7045257,80.805006 4.9682039,80.666434 3.464397,80.383424 2.4077859,79.994068 2.4077859,79.722936 c 0,-0.0996 -0.1482722,-0.383413 -0.3294939,-0.630676 C 1.8786686,78.819889 1.5370735,77.661709 1.2116339,76.153849 0.70346222,73.799338 0.67423036,73.476946 0.67003326,70.180629 0.66612526,67.108573 0.70219376,66.622624 0.97486707,66.07404 1.1449658,65.731825 1.3502952,65.45183 1.4311547,65.45183 c 0.197796,0 0.1835959,0.133484 -0.097082,0.912576 -0.174152,0.483402 -0.238556,1.452452 -0.2370892,3.567339 0.00187,2.695177 0.043596,3.094251 0.5811739,5.558413 0.3185381,1.460121 0.619399,2.919459 0.6685796,3.242972 0.077539,0.510063 0.1956626,0.63695 0.8891084,0.955074 0.8981462,0.412034 2.3244735,0.666405 2.3244735,0.414549 0,-0.08871 -0.4651624,-0.362018 -1.0336941,-0.607326 L 3.4929305,79.049411 3.9835878,78.794854 c 0.2698617,-0.140006 0.5422497,-0.338033 0.6053067,-0.440062 0.2975049,-0.481373 1.3044239,-9.325828 1.3010038,-11.427604 -0.00337,-2.07453 -0.035077,-2.138887 -1.0541033,-2.13987 -0.4684584,-4.97e-4 -1.1973066,0.123027 -1.6196625,0.274393 -0.7370678,0.264156 -1.5309847,0.203308 -1.209418,-0.09269 0.2290436,-0.210835 1.7126471,-0.656233 2.5580675,-0.767969 0.4106588,-0.05427 1.0826462,-0.238089 1.4933051,-0.408476 0.4106588,-0.170388 0.9528685,-0.353727 1.2049109,-0.407422 0.5659159,-0.120565 1.3381112,-1.279219 1.7189035,-2.579159 0.4184209,-1.428396 1.8145465,-4.012099 2.6250615,-4.857998 0.40508,-0.422766 1.177213,-0.991131 1.715848,-1.263034 0.538635,-0.271902 1.42038,-0.871526 1.959432,-1.332498 1.500381,-1.283053 3.861446,-2.478473 5.46001,-2.764431 0.73006,-0.130596 1.663375,-0.352088 2.074034,-0.492205 1.41351,-0.482292 4.597554,-0.81675 7.79837,-0.819157 l 3.069573,-0.0023 1.078497,0.600911 c 0.593174,0.3305 1.352496,0.688971 1.687385,0.796602 0.334887,0.107631 0.90809,0.520293 1.273783,0.917024 0.365697,0.396732 1.025012,0.995702 1.465151,1.331045 1.556561,1.185953 3.358414,3.075868 4.003457,4.199117 1.187357,2.067611 1.330522,2.73157 1.376627,6.384463 0.03755,2.975644 0.133067,3.32975 0.787802,2.920859 0.277597,-0.173362 0.431577,-0.154868 0.925576,0.111169 0.617301,0.332438 0.711814,0.482235 0.418603,0.663449 -0.261488,0.161608 0.03363,0.443523 1.212521,1.158276 1.217123,0.737929 1.891376,1.326348 2.202949,1.922509 0.262162,0.501619 0.08435,1.453043 -0.772178,4.131877 -0.277199,0.866946 -0.686188,2.470333 -0.908862,3.563082 -0.352555,1.730134 -1.250031,5.584678 -1.498012,6.433765 -0.04664,0.159701 -0.154435,0.290364 -0.239543,0.290364 -0.203899,0 -0.197234,-0.658069 0.01278,-1.261142 0.09213,-0.264575 0.234777,-0.966371 0.316987,-1.559545 0.226426,-1.633773 1.051218,-5.091008 1.904106,-7.98134 0.420158,-1.423868 0.763925,-2.772538 0.763925,-2.997048 0,-0.415637 -0.529908,-1.014186 -1.369293,-1.546668 -0.44667,-0.283353 -0.469519,-0.279964 -1.03855,0.154056 -0.320006,0.244083 -0.729232,0.732717 -0.909391,1.085859 -0.624967,1.225035 -1.172208,3.516072 -1.328526,5.561895 -0.08372,1.095691 -0.267318,2.318387 -0.407994,2.717106 -0.140676,0.398719 -0.255774,1.169291 -0.255774,1.712382 0,0.8764 0.05609,1.043538 0.498848,1.486287 l 0.498848,0.498849 -0.558334,0.652288 c -0.395778,0.462376 -0.536223,0.767957 -0.482388,1.049578 0.06373,0.33335 -0.130716,0.561514 -1.208185,1.41774 -1.634143,1.298595 -3.302694,2.134889 -6.630122,3.323085 -1.46012,0.521396 -3.028091,1.173483 -3.484378,1.44908 -0.543854,0.328487 -1.157029,0.537172 -1.780157,0.605844 -0.522799,0.05762 -1.328213,0.25362 -1.789813,0.435565 -0.461597,0.181945 -1.024181,0.330809 -1.250184,0.330809 -0.226004,0 -0.540567,0.0714 -0.69903,0.158674 -1.087721,0.599047 -2.885212,0.768927 -5.240894,0.495316 z m -0.126927,-0.638697 c 0.294885,-0.186752 -0.117311,-0.419055 -1.039263,-0.585699 -0.868184,-0.156926 -2.213155,-0.766595 -3.085965,-1.398857 -0.394492,-0.285768 -0.866516,-0.519579 -1.04894,-0.519579 -0.201579,0 -1.081532,-0.74846 -2.243335,-1.908112 -1.859615,-1.856171 -2.410668,-2.247907 -2.239075,-1.591733 0.162125,0.619965 3.535216,3.990963 4.513195,4.510395 0.512279,0.272084 1.169534,0.645561 1.460567,0.829948 0.291032,0.184387 1.075017,0.434951 1.74219,0.556807 1.521576,0.277912 1.65858,0.285452 1.940626,0.10683 z m 3.669365,-0.01529 c 0,-0.09126 -0.07026,-0.165923 -0.15613,-0.165923 -0.08587,0 -0.202277,0.07467 -0.258676,0.165923 -0.0564,0.09125 0.01385,0.165923 0.156129,0.165923 0.142272,0 0.258677,-0.07467 0.258677,-0.165923 z m 1.866631,-13.402123 c 0.340542,-0.299036 0.398989,-1.667577 0.106991,-2.505204 -0.328698,-0.942901 -1.374849,-1.159594 -1.966568,-0.407344 -0.302222,0.384213 -0.334199,0.57837 -0.239104,1.451825 0.06038,0.554563 0.179501,1.143173 0.26472,1.308022 0.320052,0.619101 1.217711,0.693844 1.833961,0.152701 z m 10.968276,-0.70324 c 0.913252,-0.270133 1.95512,-1.307415 2.610897,-2.599399 0.519958,-1.024398 0.565745,-1.236159 0.565745,-2.616574 0,-1.293997 -0.0661,-1.651305 -0.477313,-2.580468 -0.605099,-1.367237 -1.140582,-2.084861 -1.812703,-2.429284 -0.291869,-0.149564 -0.774125,-0.55427 -1.071678,-0.899347 -1.019439,-1.182256 -2.66958,-1.4153 -5.109019,-0.721532 -1.102399,0.313518 -3.013004,1.646316 -3.640197,2.539324 -0.485836,0.691743 -0.499222,0.762682 -0.499222,2.645607 0,1.847585 0.0244,1.984678 0.541241,3.041198 0.962039,1.96658 2.889252,3.266005 4.50179,3.035335 0.498679,-0.07133 0.695074,-6.76e-4 1.179073,0.424265 0.541674,0.475569 0.647682,0.504487 1.576267,0.429959 0.547545,-0.04394 1.283348,-0.165033 1.635119,-0.269084 z m -3.998457,-2.506345 c -0.737388,-0.212957 -1.515479,-1.039904 -2.158059,-2.293566 -0.889197,-1.734816 -0.664768,-3.337525 0.572809,-4.09058 0.255316,-0.155357 0.692808,-0.538235 0.972206,-0.850838 0.447693,-0.500899 0.643751,-0.585209 1.651545,-0.710192 1.768712,-0.21935 2.355513,0.126449 3.146514,1.854225 1.326308,2.897034 1.088317,5.650675 -0.527144,6.099278 -0.76198,0.211593 -2.913323,0.206698 -3.657871,-0.0083 z m -0.283742,-5.698103 c 0.318629,-0.240947 0.318116,-0.245221 -0.03008,-0.250408 -0.43357,-0.0065 -0.962154,0.738968 -0.799947,1.128108 0.09539,0.228856 0.149352,0.197974 0.310659,-0.177804 0.107364,-0.250121 0.341082,-0.565073 0.519371,-0.699896 z M 22.25405,76.714397 c 0.703602,-0.399559 1.416806,-0.913133 1.584897,-1.141277 0.850231,-1.153982 1.630946,-4.635705 1.3952,-6.222105 -0.105859,-0.712356 -0.248967,-0.95196 -1.012525,-1.695247 -0.489084,-0.4761 -1.098694,-0.907549 -1.354692,-0.95878 -0.255998,-0.05123 -0.689446,-0.173399 -0.963218,-0.271485 -3.917866,-1.403675 -6.516769,-0.363675 -8.387116,3.356264 -0.656285,1.305285 -0.690715,1.444908 -0.615505,2.496075 0.09008,1.25889 0.552304,2.20173 1.678249,3.423235 0.771781,0.837284 1.546829,1.275275 2.553222,1.442864 0.387368,0.0645 0.752465,0.195211 0.811331,0.29046 0.06777,0.109663 0.643183,0.142604 1.568956,0.08982 1.348193,-0.07688 1.561448,-0.139872 2.741201,-0.809824 z m -4.68609,-1.42181 c -0.549892,-0.393409 -1.390139,-1.647754 -1.643623,-2.453645 -0.660293,-2.099247 0.272352,-4.15195 2.379438,-5.237015 0.39273,-0.20224 1.048059,-0.405358 1.456289,-0.451373 0.723941,-0.0816 0.766235,-0.0596 1.715905,0.892478 0.754554,0.75647 1.033592,1.178946 1.239954,1.877348 0.325778,1.102551 0.345111,2.819981 0.03996,3.550301 -0.287542,0.688187 -1.100672,1.375704 -1.894344,1.601704 -0.835173,0.237817 -3.060958,0.386628 -3.293583,0.220202 z M 25.680737,65.16911 c -0.204076,-0.03938 -0.577403,-0.0404 -0.829615,-0.0023 -0.252212,0.03814 -0.08524,0.07036 0.371046,0.0716 0.456287,0.0014 0.662644,-0.02996 0.458569,-0.06934 z m 4.391215,0.01656 c -0.05514,-0.05514 -0.198244,-0.06103 -0.318019,-0.01309 -0.132361,0.05297 -0.09305,0.09228 0.100246,0.100246 0.17491,0.0072 0.272909,-0.03201 0.217773,-0.08716 z m -6.301609,-0.677829 c -0.159701,-0.04173 -0.421029,-0.04173 -0.580729,0 -0.159702,0.04172 -0.02904,0.07588 0.290364,0.07588 0.319401,0 0.450066,-0.03415 0.290365,-0.07588 z m 8.856553,-0.507835 c 0.206386,-0.263163 0.200517,-0.269032 -0.06265,-0.06265 -0.276386,0.216757 -0.36428,0.353011 -0.227719,0.353011 0.03446,0 0.165119,-0.130664 0.290365,-0.290365 z m -11.63576,-0.762413 c 0,-0.03149 -0.167996,-0.199483 -0.373325,-0.373327 l -0.373327,-0.316081 0.316081,0.373326 c 0.297039,0.350834 0.430571,0.448861 0.430571,0.316082 z m 13.024939,-0.440524 c 0.165175,-0.182514 0.262984,-0.331845 0.217356,-0.331845 -0.04563,0 -0.218106,0.149331 -0.383279,0.331845 -0.165175,0.182515 -0.262985,0.331846 -0.217356,0.331846 0.04563,0 0.218104,-0.149331 0.383279,-0.331846 z m 9.702591,-3.56734 c -0.422856,-1.438308 -1.605574,-3.095652 -3.256176,-4.56288 -0.872636,-0.775689 -2.082743,-1.867927 -2.689131,-2.427196 -0.606387,-0.559269 -1.289183,-1.073078 -1.517327,-1.141797 -0.228143,-0.06872 -0.962478,-0.413787 -1.631853,-0.766816 -1.217777,-0.642259 -1.896607,-0.759584 -2.848062,-0.492243 -0.374157,0.105131 -0.325376,0.148225 0.497768,0.439748 0.625006,0.221351 1.197624,0.602415 1.81715,1.209272 0.547505,0.536308 1.431702,1.150722 2.239958,1.55651 3.700714,1.857959 6.113185,4.415033 7.24447,7.678703 l 0.230055,0.663691 0.05413,-0.746652 c 0.02977,-0.410659 -0.03367,-1.045313 -0.140986,-1.410344 z M 10.934674,58.749252 c 0.499126,-0.674919 1.162239,-1.421423 1.473585,-1.658898 0.674144,-0.514195 2.018812,-2.07412 1.894804,-2.198129 -0.04795,-0.04795 -0.421851,0.06085 -0.830893,0.241799 -1.31957,0.583709 -2.5503,2.088963 -3.281601,4.013589 -0.173197,0.455821 -0.2808168,0.828766 -0.2391518,0.828766 0.04166,0 0.4841298,-0.552207 0.9832568,-1.227127 z m 2.358337,-0.553086 c -0.168663,-0.168663 -0.307828,0.08527 -0.169443,0.309177 0.104537,0.169145 0.14362,0.169276 0.199821,6.75e-4 0.03842,-0.115281 0.02476,-0.254712 -0.03038,-0.309847 z M 39.491526,57.65346 c -0.0564,-0.09125 -0.191472,-0.16478 -0.300157,-0.163382 -0.118736,0.0015 -0.09828,0.06673 0.05128,0.163382 0.318758,0.205997 0.376197,0.205997 0.248884,0 z"
       style="fill:#9ca0a8;stroke-width:0.16592278" />
    <path
       id="path839"
       d="m 22.849739,92.375362 c -0.609456,-0.05461 -0.698805,-0.109263 -0.614237,-0.375715 0.115878,-0.365094 -0.194457,-0.56537 -1.141233,-0.736501 -0.868184,-0.156926 -2.213155,-0.766595 -3.085965,-1.398857 -0.394492,-0.285768 -0.866516,-0.519579 -1.04894,-0.519579 -0.201579,0 -1.081532,-0.74846 -2.243335,-1.908112 -1.854649,-1.851213 -2.212084,-2.104231 -2.44355,-1.72971 -0.115574,0.187004 -0.904863,-0.437382 -0.904863,-0.715814 0,-0.08125 -0.158945,-0.517199 -0.353211,-0.968782 C 10.741458,83.387809 10.375459,82.973148 9.4037606,82.197502 8.5081064,81.48256 8.0498469,81.219001 7.8109964,81.281462 7.3584128,81.399814 5.5694992,80.542391 5.5643395,80.204642 5.5618539,80.041889 5.1658272,79.771229 4.5266246,79.495427 L 3.4929305,79.049411 3.9835878,78.794854 C 4.2534495,78.654848 4.5258375,78.456821 4.5888945,78.354792 4.9423645,77.782866 5.9445066,68.446233 5.8677259,66.440337 5.8155235,65.076543 5.7691584,64.884841 5.4384207,64.665308 5.0717554,64.42193 5.0763612,64.414966 5.8532278,64.038213 6.2853017,63.828671 6.8851482,63.565112 7.1862199,63.452525 7.8013899,63.222477 8.7244204,62.160036 9.0169905,61.345243 9.5144243,59.95991 9.5817356,59.83594 9.792562,59.916841 c 0.1304872,0.05008 0.50495,-0.306699 0.926001,-0.882252 0.388807,-0.531478 1.371931,-1.627819 2.184719,-2.436315 1.149126,-1.143057 1.460132,-1.548983 1.398367,-1.825151 -0.06348,-0.283814 0.158808,-0.541733 1.106552,-1.28396 1.492376,-1.168756 4.272782,-2.638536 4.991356,-2.638536 0.293206,0 1.162247,-0.190401 1.931201,-0.423115 1.263238,-0.382299 3.779867,-0.788784 6.330129,-1.022441 1.279022,-0.117187 2.783385,0.07864 2.783385,0.362332 0,0.121155 0.391992,0.358444 0.871094,0.52731 0.582538,0.205323 1.170742,0.600548 1.775669,1.193105 0.547505,0.536308 1.431702,1.150722 2.239958,1.55651 2.443606,1.226823 3.984997,2.442163 5.306913,4.184341 0.911536,1.201329 1.557705,2.367719 1.90317,3.435385 0.115198,0.356023 0.329224,0.639639 0.52042,0.689638 0.298863,0.07815 0.326319,0.248192 0.344401,2.133012 0.0108,1.126448 0.0078,2.112773 -0.0064,2.191834 -0.01436,0.07906 0.09573,0.32967 0.244633,0.556909 0.210164,0.320751 0.369331,0.393526 0.711606,0.325363 0.529992,-0.105546 1.00641,0.202882 0.967151,0.626126 -0.01951,0.210364 0.311411,0.528527 1.050007,1.009522 0.593173,0.386291 1.343257,0.953425 1.666856,1.260297 0.323596,0.306875 0.398261,0.399078 0.165922,0.2049 -0.880849,-0.736175 -1.071647,-0.759965 -1.80932,-0.225597 -0.372976,0.270181 -0.828256,0.785498 -1.011736,1.145149 -0.630701,1.236274 -1.177703,3.520803 -1.334565,5.573731 -0.08373,1.095692 -0.267318,2.318388 -0.407994,2.717107 -0.140675,0.398719 -0.255774,1.169291 -0.255774,1.712382 0,0.8764 0.05609,1.043538 0.498849,1.486286 l 0.498847,0.49885 -0.581808,0.679714 c -0.319992,0.373842 -0.581805,0.845934 -0.581805,1.04909 0,0.247546 -0.259948,0.563251 -0.788133,0.957179 -0.433475,0.323293 -0.980148,0.737485 -1.214832,0.920427 -1.246005,0.971288 -3.329628,1.949937 -6.571098,3.086353 -1.112017,0.389857 -2.344383,0.934014 -2.738594,1.209238 -0.569288,0.397455 -0.959321,0.522343 -1.895842,0.607048 -1.033763,0.0935 -2.932033,0.619957 -3.494461,0.969139 -0.106505,0.06613 -0.548371,0.168844 -0.981928,0.228269 -0.684877,0.09388 -0.774696,0.07264 -0.684698,-0.161898 0.132784,-0.34603 -0.182717,-0.547775 -0.435626,-0.278557 -0.147017,0.1565 -0.143329,0.223576 0.01549,0.281783 0.11464,0.04202 0.166232,0.144682 0.114649,0.228144 -0.09108,0.147374 -1.241837,0.160125 -2.695515,0.02987 z m 4.819789,-13.943935 c 0.340542,-0.299037 0.398989,-1.667578 0.106991,-2.505205 -0.328698,-0.942901 -1.374849,-1.159594 -1.966568,-0.407344 -0.302222,0.384213 -0.334199,0.57837 -0.239104,1.451825 0.06038,0.554563 0.179501,1.143173 0.26472,1.308022 0.320052,0.619101 1.217711,0.693844 1.833961,0.152702 z m 10.968276,-0.703241 c 0.913252,-0.270133 1.95512,-1.307415 2.610897,-2.599399 0.519958,-1.024398 0.565745,-1.236159 0.565745,-2.616574 0,-1.293997 -0.0661,-1.651305 -0.477313,-2.580468 -0.605099,-1.367237 -1.140582,-2.084861 -1.812703,-2.429284 -0.291869,-0.149564 -0.774125,-0.55427 -1.071678,-0.899347 -1.019439,-1.182256 -2.66958,-1.4153 -5.109019,-0.721532 -1.102399,0.313518 -3.013004,1.646317 -3.640197,2.539324 -0.485836,0.691743 -0.499222,0.762682 -0.499222,2.645607 0,1.847585 0.0244,1.984678 0.541241,3.041198 0.962039,1.96658 2.889252,3.266005 4.50179,3.035335 0.498679,-0.07133 0.695074,-6.75e-4 1.179073,0.424265 0.541674,0.475569 0.647682,0.504487 1.576267,0.429958 0.547545,-0.04394 1.283348,-0.165032 1.635119,-0.269083 z m -3.962195,-2.662871 c -1.154672,-0.335943 -2.568098,-2.555134 -2.567026,-4.03044 6.74e-4,-0.953389 0.405459,-1.785523 1.027518,-2.11241 0.210213,-0.110465 0.61539,-0.403288 0.900393,-0.65072 0.398404,-0.345881 0.825207,-0.497635 1.846333,-0.656483 1.2015,-0.18691 1.370612,-0.178782 1.77354,0.08524 0.838693,0.549531 1.926071,3.366585 1.908756,4.94498 -0.02253,2.053248 -0.658809,2.604758 -2.977246,2.580584 -0.775688,-0.008 -1.636209,-0.08041 -1.912268,-0.160738 z m -0.335712,-5.522338 c 0.369199,-0.141676 0.316689,-0.440845 -0.07738,-0.440845 -0.467284,0 -1.05331,0.971942 -0.782657,1.29806 0.164005,0.197614 0.230671,0.154154 0.399967,-0.260745 0.111737,-0.273836 0.318768,-0.542249 0.460067,-0.59647 z m -12.085847,7.17142 c 0.703602,-0.399559 1.416806,-0.913133 1.584897,-1.141277 0.850231,-1.153982 1.630946,-4.635705 1.3952,-6.222105 -0.105859,-0.712356 -0.248967,-0.95196 -1.012525,-1.695247 -0.489084,-0.4761 -1.098694,-0.907549 -1.354692,-0.95878 -0.255998,-0.05123 -0.689446,-0.173399 -0.963218,-0.271485 -3.917866,-1.403675 -6.516769,-0.363675 -8.387116,3.356264 -0.656285,1.305285 -0.690715,1.444908 -0.615505,2.496075 0.09008,1.25889 0.552304,2.20173 1.678249,3.423235 0.771781,0.837284 1.546829,1.275275 2.553222,1.442864 0.387368,0.0645 0.752465,0.195211 0.811331,0.29046 0.06777,0.109663 0.643183,0.142604 1.568956,0.08982 1.348193,-0.07688 1.561448,-0.139872 2.741201,-0.809824 z M 17.029045,74.45808 c -1.197419,-1.400862 -1.488791,-3.112829 -0.786491,-4.621053 0.615289,-1.321363 2.072399,-2.357665 3.549066,-2.524105 0.695659,-0.07841 0.753816,-0.04845 1.598498,0.823639 1.074496,1.109357 1.426169,2.040786 1.426169,3.777298 0,1.073671 -0.06185,1.350328 -0.419566,1.876756 -0.23076,0.339594 -0.624259,0.723297 -0.87444,0.85267 -0.55827,0.288693 -2.172286,0.597989 -3.120511,0.597989 -0.633199,0 -0.769971,-0.07803 -1.372725,-0.783194 z M 32.309863,64.24889 c 0.96205,-0.844132 2.28992,-2.149309 2.950822,-2.900392 0.866902,-0.985193 1.635113,-1.643611 2.757721,-2.36358 0.855845,-0.548884 1.556082,-1.068601 1.556082,-1.154923 0,-0.380324 -0.380884,-0.314886 -1.196624,0.205587 -0.482576,0.307899 -1.180053,0.749881 -1.549948,0.982182 -0.369896,0.232299 -1.265879,1.084342 -1.991075,1.893428 -0.725194,0.809087 -2.02157,2.087056 -2.880833,2.839931 -1.505339,1.318952 -1.592183,1.368861 -2.381932,1.368861 -0.450797,0 -1.241067,-0.104282 -1.756156,-0.231742 -0.515088,-0.127456 -1.857544,-0.273425 -2.983235,-0.324373 -1.818824,-0.08232 -2.129899,-0.141387 -2.793844,-0.530484 -0.410923,-0.240818 -0.908544,-0.624519 -1.105822,-0.852668 -0.19728,-0.228152 -0.844014,-0.700639 -1.437187,-1.049974 -0.593174,-0.349333 -1.579783,-1.150298 -2.192462,-1.779921 -1.267874,-1.302936 -2.39631,-1.986713 -3.536604,-2.143007 -1.083976,-0.148577 -0.937155,0.231993 0.244453,0.633634 1.035425,0.35195 1.661861,0.797641 3.244656,2.308468 0.638802,0.609758 1.422787,1.24068 1.742188,1.402049 0.319402,0.161369 0.935919,0.61174 1.370038,1.000824 1.563289,1.401114 1.988953,1.558781 4.468619,1.655195 1.214729,0.04723 2.65659,0.189824 3.204135,0.316877 0.547545,0.127052 1.338051,0.23726 1.75668,0.244909 0.73025,0.01334 0.832148,-0.04839 2.510328,-1.520881 z m 14.899612,17.016878 c -0.0013,-0.199943 0.07213,-0.409681 0.163384,-0.466081 0.21125,-0.130558 0.21125,0.253842 0,0.58073 -0.130763,0.20234 -0.161318,0.180898 -0.163384,-0.114649 z M 1.9878292,78.551397 C 1.8301664,78.296294 2.0461262,78.1317 2.2590858,78.34466 c 0.1191624,0.119164 0.1220254,0.21197 0.0087,0.282011 -0.092904,0.05741 -0.2188835,0.02355 -0.279956,-0.07527 z M 0.69076953,72.627991 c -0.13345851,-1.4131 -0.10934507,-3.806548 0.0514029,-5.102126 0.0844323,-0.680497 0.13123994,0.146482 0.14791454,2.613284 0.013416,1.984851 -0.00214,3.60882 -0.034574,3.60882 -0.032433,0 -0.10656696,-0.50399 -0.16474344,-1.119978 z M 50.072813,70.927282 c 0,-0.410659 0.03236,-0.578655 0.0719,-0.373326 0.03954,0.20533 0.03954,0.541323 0,0.746653 -0.03954,0.205329 -0.0719,0.03733 -0.0719,-0.373327 z M 2.4907473,64.954062 c 0.4566998,-0.19625 0.6190579,-0.19625 0.4977683,0 -0.0564,0.09125 -0.2661361,0.160675 -0.4660798,0.15426 -0.3504897,-0.01124 -0.3516267,-0.01678 -0.031688,-0.15426 z"
       style="fill:#ffffff;fill-opacity:1;stroke-width:0.16592278" />
    <path
       id="path837"
       d="m 22.847292,92.375242 c -0.418188,-0.03741 -0.690664,-0.138981 -0.655538,-0.244358 0.03841,-0.115245 0.586235,-0.167679 1.517828,-0.145272 1.548604,0.03724 1.982031,0.123068 1.833686,0.363094 -0.08939,0.144628 -1.248481,0.156037 -2.695976,0.02654 z m 2.955605,-0.165295 c 0,-0.51055 1.395552,-1.162904 2.526712,-1.181118 0.431487,-0.007 1.012001,-0.130268 1.290031,-0.274044 0.27803,-0.143775 0.911016,-0.336371 1.406634,-0.427992 0.495619,-0.09162 1.595072,-0.492653 2.443231,-0.891185 0.84816,-0.398534 2.536651,-1.066287 3.752206,-1.483898 2.264146,-0.777859 4.502836,-1.838126 5.23239,-2.478118 0.225654,-0.197952 0.715368,-0.606791 1.088252,-0.90853 0.597937,-0.483852 0.677973,-0.510175 0.677973,-0.222968 0,0.19538 -0.315276,0.560787 -0.788133,0.913452 -0.433475,0.323293 -0.980148,0.737485 -1.214832,0.920427 -1.241416,0.96771 -3.384487,1.976171 -6.459097,3.039447 -1.049462,0.362929 -2.256934,0.880522 -2.683275,1.150207 -0.528428,0.334261 -1.135779,0.54032 -1.908112,0.647373 -1.010026,0.140002 -2.507213,0.526393 -3.953636,1.020353 -0.795238,0.271577 -1.410344,0.348597 -1.410344,0.176594 z m -0.443094,-6.07926 c -0.924651,-0.440593 -1.216487,-0.811619 -1.215514,-1.545348 8.3e-4,-0.568315 0.563723,-1.537897 0.909516,-1.566434 0.41211,-0.03401 1.103251,-0.10835 2.176726,-0.234133 1.266098,-0.148351 2.178094,0.116036 2.398319,0.695268 0.195354,0.513817 -0.06708,1.049466 -1.041478,2.125719 -0.641922,0.709026 -0.806977,0.801353 -1.544207,0.863796 -0.635996,0.05387 -1.022371,-0.02391 -1.683362,-0.338868 z M 11.72358,85.471198 C 11.527799,85.2628 11.367616,85.03628 11.367616,84.967822 c 0,-0.06846 -0.158945,-0.493947 -0.353211,-0.94553 C 10.741458,83.387809 10.375459,82.973148 9.4037606,82.197502 8.5081064,81.48256 8.0498469,81.219001 7.8109964,81.281462 7.4572179,81.373982 5.571247,80.570706 5.5643395,80.324567 c -0.00467,-0.16671 0.4710649,-0.09283 2.0449486,0.317555 1.0113377,0.263705 1.2696696,0.422678 2.3474841,1.444611 0.8543978,0.8101 1.2966398,1.376082 1.5015618,1.9217 0.15976,0.425369 0.430052,0.973489 0.60065,1.218039 0.392872,0.563185 0.138285,0.748944 -0.335404,0.244726 z m 35.485895,-4.20543 c -0.0013,-0.199943 0.07213,-0.409681 0.163384,-0.466081 0.21125,-0.130558 0.21125,0.253842 0,0.58073 -0.130763,0.20234 -0.161318,0.180898 -0.163384,-0.114649 z M 1.9878292,78.551397 C 1.8301664,78.296294 2.0461262,78.1317 2.2590858,78.34466 c 0.1191624,0.119164 0.1220254,0.21197 0.0087,0.282011 -0.092904,0.05741 -0.2188835,0.02355 -0.279956,-0.07527 z M 17.029045,74.45808 c -1.197419,-1.400862 -1.488791,-3.112829 -0.786491,-4.621053 0.615289,-1.321363 2.072399,-2.357665 3.549066,-2.524105 0.695659,-0.07841 0.753816,-0.04845 1.598498,0.823639 1.074496,1.109357 1.426169,2.040786 1.426169,3.777298 0,1.073671 -0.06185,1.350328 -0.419566,1.876756 -0.23076,0.339594 -0.624259,0.723297 -0.87444,0.85267 -0.55827,0.288693 -2.172286,0.597989 -3.120511,0.597989 -0.633199,0 -0.769971,-0.07803 -1.372725,-0.783194 z m 1.274143,-3.895828 c 0.212528,-0.212528 0.264375,-0.931046 0.0984,-1.363589 -0.248841,-0.64847 -1.060745,0.02021 -1.060745,0.873627 0,0.327275 0.30491,0.68907 0.580729,0.68907 0.100387,0 0.272114,-0.08961 0.381623,-0.199108 z m 16.372421,4.503063 c -1.154672,-0.335943 -2.568098,-2.555134 -2.567026,-4.03044 6.74e-4,-0.953389 0.405459,-1.785523 1.027518,-2.11241 0.210213,-0.110465 0.61539,-0.403288 0.900393,-0.65072 0.398404,-0.345881 0.825207,-0.497635 1.846333,-0.656483 1.2015,-0.18691 1.370612,-0.178782 1.77354,0.08524 0.838693,0.549531 1.926071,3.366585 1.908756,4.94498 -0.02253,2.053248 -0.658809,2.604758 -2.977246,2.580584 -0.775688,-0.008 -1.636209,-0.08041 -1.912268,-0.160738 z m -0.115725,-4.562248 c 0.401188,-0.281002 0.486455,-0.885032 0.169659,-1.201828 -0.347566,-0.347565 -0.790895,-0.21623 -1.125083,0.333299 -0.299407,0.492335 -0.303533,0.554776 -0.05481,0.829613 0.329885,0.364523 0.534131,0.372389 1.01023,0.03891 z M 0.69076953,72.627991 c -0.13345851,-1.4131 -0.10934507,-3.806548 0.0514029,-5.102126 0.0844323,-0.680497 0.13123994,0.146482 0.14791454,2.613284 0.013416,1.984851 -0.00214,3.60882 -0.034574,3.60882 -0.032433,0 -0.10656696,-0.50399 -0.16474344,-1.119978 z M 50.072813,70.927282 c 0,-0.410659 0.03236,-0.578655 0.0719,-0.373326 0.03954,0.20533 0.03954,0.541323 0,0.746653 -0.03954,0.205329 -0.0719,0.03733 -0.0719,-0.373327 z m -0.807216,-1.178446 c -0.362057,-0.400069 -1.145972,-0.840394 -1.271925,-0.714443 -0.04672,0.04672 -0.690843,-0.29972 -1.431379,-0.769876 -1.044612,-0.663207 -1.346431,-0.940109 -1.346431,-1.235276 0,-0.209245 0.114949,-0.424558 0.255443,-0.47847 0.366964,-0.140816 0.895573,0.241971 0.856407,0.620159 -0.02387,0.2305 0.273224,0.521857 1.045147,1.024959 1.035302,0.674764 2.512463,1.889914 2.307154,1.897926 -0.0543,0.0022 -0.240787,-0.153121 -0.414416,-0.344979 z m -5.131205,-3.969969 c -0.07008,-0.113388 -0.153944,-1.172851 -0.186372,-2.354362 -0.04566,-1.663522 -0.01223,-2.132745 0.148154,-2.079683 0.145122,0.04801 0.231945,0.702849 0.290075,2.187813 0.08094,2.067569 0.01288,2.674579 -0.251857,2.246232 z M 2.4907473,64.954062 c 0.4566998,-0.19625 0.6190579,-0.19625 0.4977683,0 -0.0564,0.09125 -0.2661361,0.160675 -0.4660798,0.15426 -0.3504897,-0.01124 -0.3516267,-0.01678 -0.031688,-0.15426 z m 2.8531525,-0.350181 c -0.2666238,-0.15511 -0.2303153,-0.210569 0.3318455,-0.50686 0.8345061,-0.439833 1.5200509,-0.643003 1.6206125,-0.480291 0.1030225,0.166694 -0.3377824,0.555726 -1.0226277,0.902516 -0.617743,0.312813 -0.5484502,0.306507 -0.9298303,0.08463 z M 8.1605691,63.01909 c -0.060402,-0.0604 0.0681,-0.343088 0.2855604,-0.628193 0.2174599,-0.285105 0.5192341,-0.88317 0.6706091,-1.329034 0.3674603,-1.08233 0.5182209,-1.338527 0.6562454,-1.115199 0.060782,0.09836 -0.04088,0.628241 -0.2259231,1.177532 -0.1850428,0.549291 -0.3364412,1.225062 -0.3364412,1.501713 0,0.4417 -0.057292,0.503003 -0.4701146,0.503003 -0.2585627,0 -0.5195339,-0.04942 -0.579936,-0.109822 z M 26.096113,62.181141 c -0.604397,-0.670607 -0.433909,-1.987928 0.293397,-2.267022 0.804359,-0.308662 1.87223,1.635876 1.197057,2.17978 -0.437002,0.35204 -1.210971,0.397343 -1.490454,0.08724 z M 14.266299,54.658814 c -0.06117,-0.09898 -0.08509,-0.196557 -0.05313,-0.216838 0.03196,-0.02027 0.580752,-0.452966 1.219555,-0.961523 1.444734,-1.150166 4.2393,-2.629826 4.966833,-2.629826 0.293206,0 1.162247,-0.190401 1.931201,-0.423115 2.109023,-0.638261 6.644866,-1.188827 8.196759,-0.99493 1.552828,0.194013 1.022535,0.422508 -0.980556,0.422508 -1.043522,0 -2.102642,0.07806 -2.353605,0.173482 -0.250961,0.09542 -1.058474,0.212534 -1.79447,0.260262 -0.735998,0.04772 -1.759289,0.232006 -2.273981,0.409505 -0.514691,0.177499 -1.451894,0.387528 -2.082674,0.466731 -1.332436,0.167306 -3.606734,1.250601 -4.941928,2.353942 -1.340903,1.108059 -1.71134,1.338279 -1.834004,1.139802 z"
       style="fill:#8d8d92;fill-opacity:1;stroke-width:0.16592278" />
    <path
       id="path835"
       d="m 25.525919,85.870794 c -0.380481,-0.172752 -0.772474,-0.464865 -0.871094,-0.649138 -0.474031,-0.885734 0.100417,-1.997045 1.026251,-1.985359 0.295146,0.0037 1.000688,-0.04913 1.567872,-0.117462 1.114178,-0.134224 1.935218,0.07648 2.114055,0.542523 0.119474,0.311339 -0.572356,1.354222 -1.353132,2.039754 -0.669491,0.587822 -1.446162,0.640877 -2.483952,0.169682 z M 17.806466,75.112391 c -0.858125,-0.366438 -1.958936,-2.39678 -1.958936,-3.613075 0,-1.792048 1.769434,-3.781905 3.682029,-4.140709 0.702727,-0.131833 1.069402,0.03502 1.898163,0.863788 0.803578,0.80358 1.255635,1.883033 1.351873,3.228108 0.102079,1.426687 -0.0093,1.831936 -0.719733,2.618279 -0.426184,0.471737 -0.791671,0.691332 -1.364652,0.81993 -1.123183,0.25208 -2.561438,0.363447 -2.888744,0.223679 z m 0.601016,-4.445845 c 0.307324,-0.307324 0.347414,-1.411367 0.06163,-1.697152 -0.498118,-0.498119 -1.084121,-0.10199 -1.236289,0.83571 -0.146939,0.905478 0.590109,1.445995 1.174661,0.861442 z m 16.30278,4.343812 c -0.831737,-0.309081 -1.114215,-0.58169 -1.877113,-1.811545 -0.575915,-0.928424 -0.637377,-1.136464 -0.639677,-2.16527 l -0.0025,-1.13816 0.829614,-0.75168 c 1.190602,-1.078754 1.363979,-1.167999 2.804611,-1.443637 1.735379,-0.332033 2.232437,-0.02766 2.986859,1.828982 0.881695,2.169863 0.899261,4.323482 0.04226,5.180488 -0.394749,0.394747 -0.569297,0.437643 -1.971943,0.484601 -1.035858,0.03468 -1.745834,-0.02539 -2.172058,-0.183779 z m -0.02466,-4.351043 c 0.299958,-0.196539 0.40897,-0.416121 0.40897,-0.823777 0,-1.001048 -0.923429,-1.11734 -1.567758,-0.197435 -0.325282,0.464409 -0.324516,0.700585 0.0033,1.028443 0.331615,0.331615 0.641256,0.329678 1.155444,-0.0072 z M 0.68923349,72.562171 c -0.13369672,-1.279142 -0.10883379,-3.566546 0.052939,-4.870384 0.0858159,-0.691648 0.13096668,0.05541 0.14791458,2.447362 0.013416,1.893594 -0.0023,3.442898 -0.03493,3.442898 -0.032629,0 -0.10729384,-0.458944 -0.16592358,-1.019876 z M 50.066117,70.927282 c 0,-0.319402 0.03415,-0.450066 0.07588,-0.290365 0.04174,0.159702 0.04174,0.421029 0,0.58073 -0.04173,0.1597 -0.07588,0.02905 -0.07588,-0.290365 z M 8.4639672,62.631143 c 0.0564,-0.09125 0.1354718,-0.165922 0.1757148,-0.165922 0.040241,0 0.07317,0.07467 0.07317,0.165922 0,0.09125 -0.079072,0.165923 -0.1757148,0.165923 -0.096643,0 -0.1295696,-0.07467 -0.07317,-0.165923 z M 26.344645,61.998144 c -0.112698,-0.07158 -0.251141,-0.361322 -0.307649,-0.643866 -0.07996,-0.399854 -0.01939,-0.597065 0.27329,-0.889752 l 0.376034,-0.376034 0.387903,0.450965 c 0.526832,0.61248 0.510743,1.223582 -0.03771,1.432101 -0.501911,0.190827 -0.437207,0.188341 -0.691871,0.02658 z"
       style="fill:#616364;stroke-width:0.16592278" />
    <path
       id="path833"
       d="m 34.871438,74.844747 c -1.338527,-0.501209 -2.469043,-2.211842 -2.497497,-3.779067 -0.01837,-1.011581 0.390077,-1.823306 0.975272,-1.938226 0.274329,-0.05387 0.27589,-0.03249 0.0239,0.327285 -0.354447,0.506045 -0.341603,1.024114 0.03383,1.363866 0.433768,0.392555 1.071762,0.339155 1.580454,-0.132284 0.769929,-0.713546 0.482256,-1.680096 -0.564609,-1.897035 l -0.572626,-0.118664 0.451609,-0.298031 c 0.248385,-0.163917 1.010145,-0.376406 1.692803,-0.472198 1.621144,-0.227485 1.870273,-0.069 2.592668,1.649336 0.897426,2.134678 0.87964,4.718576 -0.03586,5.208535 -0.551184,0.294986 -2.971224,0.35186 -3.679936,0.08648 z M 17.144015,74.225639 c -0.582961,-0.722877 -1.130562,-2.039192 -1.130562,-2.717627 0,-0.505068 0.481416,-1.853908 0.73755,-2.06648 0.171262,-0.142135 0.211918,-0.03879 0.197722,0.502628 -0.01965,0.749297 0.325711,1.149045 0.992701,1.149045 0.600629,0 0.892715,-0.434241 0.892715,-1.327191 0,-0.674174 -0.07186,-0.862243 -0.440137,-1.15193 -0.242076,-0.190418 -0.410073,-0.373005 -0.373326,-0.40575 0.3356,-0.29906 1.262766,-0.599507 1.850048,-0.599507 0.61502,0 0.810482,0.09162 1.327433,0.62221 0.934993,0.959663 1.340186,2.038084 1.355935,3.60882 0.01149,1.147656 -0.04058,1.402938 -0.384684,1.885405 -0.534403,0.749283 -1.314156,1.045054 -3.016274,1.144108 l -1.423196,0.08282 z"
       style="fill:#060606;stroke-width:0.16592278" />
  </g>
</svg>
