<?xml version="1.0" encoding="UTF-8" standalone="no"?>
<svg
   xmlns:dc="http://purl.org/dc/elements/1.1/"
   xmlns:cc="http://creativecommons.org/ns#"
   xmlns:rdf="http://www.w3.org/1999/02/22-rdf-syntax-ns#"
   xmlns:svg="http://www.w3.org/2000/svg"
   xmlns="http://www.w3.org/2000/svg"
   viewBox="0 0 50 50"
   height="50"
   width="50"
   id="svg2"
   version="1.1">
  <metadata
     id="metadata8">
    <rdf:RDF>
      <cc:Work
         rdf:about="">
        <dc:format>image/svg+xml</dc:format>
        <dc:type
           rdf:resource="http://purl.org/dc/dcmitype/StillImage" />
        <dc:title></dc:title>
      </cc:Work>
    </rdf:RDF>
  </metadata>
  <defs
     id="defs6" />
  <g
     transform="matrix(0.52060557,0,0,0.52060557,0,0.02186512)"
     id="g817">
    <path
       id="path829"
       d="M 33.868186,95.463226 C 33.586013,95.142451 32.82329,92.952134 32.173245,90.595856 31.523202,88.239574 30.574069,85.179987 30.064062,83.796774 29.554054,82.413558 28.480633,78.318541 27.678681,74.696736 26.876729,71.074931 25.510486,65.566518 24.642586,62.455818 23.774685,59.345117 22.911582,56.195722 22.724578,55.457158 22.165201,53.247917 21.476275,52.934205 16.579365,52.658858 14.236715,52.527136 11.796881,52.435242 11.157514,52.45465 10.206965,52.483514 9.8157978,52.285811 9.0119485,51.370275 7.974057,50.188182 7.6202605,49.163062 7.0629562,45.723104 6.4647594,42.030736 6.6090029,40.201632 7.6630454,38.113587 9.4254966,34.622189 10.659264,34.1124 17.344887,34.113075 c 4.526903,3.2e-4 4.97103,0.243575 5.119624,2.802503 0.09282,1.598428 0.124577,1.647225 1.135489,1.744697 l 1.04,0.100275 v -6.441312 c 0,-3.542722 0.139038,-6.701107 0.308973,-7.018634 0.826193,-1.543755 9.255686,-3.62653 16.491027,-4.074634 2.782864,-0.17235 3.489955,-0.596763 3.16321,-1.89863 -0.100656,-0.401049 -0.277559,-2.64194 -0.393111,-4.979758 -0.196765,-3.980836 -0.255651,-4.273228 -0.927894,-4.6074898 -2.646253,-1.3158029 -3.73401,-4.4703581 -2.333501,-6.7672851 0.81839,-1.3422164 2.847491,-2.66491069 4.409558,-2.87442801 1.08209,-0.1451388 1.375636,-0.03525001 2.255076,0.84418785 1.900259,1.90026116 2.142003,5.15427596 0.539046,7.25586376 -0.80224,1.0517882 -0.861974,1.3432535 -0.819587,3.9990913 0.04874,3.054034 0.540406,7.623132 0.853811,7.93456 0.10401,0.103355 3.879069,0.148108 8.389021,0.09945 6.977085,-0.07527 8.456272,-0.0078 9.919001,0.452254 0.954781,0.300315 1.90736,0.837602 2.142544,1.208467 0.525184,0.828168 1.396084,4.964495 1.743834,8.282316 0.284752,2.716748 0.386438,2.958492 1.12519,2.675004 C 71.856541,32.715136 72,32.213021 72,31.121245 c 0,-1.6393 0.54488,-2.716562 1.681802,-3.325025 0.37894,-0.202802 2.510537,-0.487517 4.736886,-0.632701 4.013517,-0.261728 4.062483,-0.256578 5.763846,0.606255 2.020144,1.024501 2.933668,2.252134 3.841488,5.162367 0.820228,2.629427 1.416144,7.233773 1.132151,8.747577 C 88.890317,43.096867 87.058,44.831114 85.089149,45.529069 82.578829,46.418976 80.374486,47.04 79.726045,47.04 78.676704,47.04 78.08,47.394758 78.08,48.018624 c 0,0.324582 -0.231805,1.425178 -0.515123,2.445763 -0.419194,1.510042 -0.564317,4.656525 -0.779271,16.895613 -0.181033,10.307731 -0.414556,16.09721 -0.742182,18.4 -0.262922,1.848 -0.48825,3.392301 -0.50073,3.431782 -0.133305,0.421661 -2.3191,1.055639 -4.2396,1.229671 -3.88919,0.352429 -4.516387,-0.390835 -2.914675,-3.454051 0.841162,-1.608692 0.875053,-1.877175 1.07984,-8.554109 C 69.584541,74.621981 69.8404,69.216 70.036829,66.4 c 0.856457,-12.278061 1.098249,-16.491587 0.954608,-16.635229 -0.08439,-0.08439 -0.760861,0.707885 -1.503264,1.760611 -2.134823,3.027178 -2.021546,2.991178 -8.614003,2.737658 -5.297575,-0.203722 -6.116436,-0.153459 -12.337792,0.757306 -3.664992,0.536531 -7.423376,1.196377 -8.351968,1.466326 -0.928589,0.269949 -2.105959,0.475178 -2.616378,0.456067 -0.510416,-0.0191 -2.154387,0.06797 -3.653264,0.193511 -2.65228,0.222147 -2.752915,0.204966 -3.75934,-0.641888 -0.898812,-0.756298 -1.060719,-0.800797 -1.237498,-0.340119 -0.412622,1.075274 4.038547,16.547795 6.445737,22.405757 0.578583,1.408 1.528448,4.072 2.11081,5.92 0.799232,2.536195 1.51031,4.026106 2.900217,6.0768 1.646029,2.428576 1.79696,2.78504 1.422676,3.36 -0.512324,0.787011 -2.900432,1.618973 -5.486756,1.911456 -1.638512,0.185296 -2.006732,0.130266 -2.442428,-0.36503 z M 61.400998,53.470877 c 0.853597,-0.540659 0.03104,-1.044992 -1.35384,-0.83008 -2.385504,0.370195 -2.750108,0.596537 -1.327158,0.823878 1.932442,0.308746 2.202355,0.30937 2.680998,0.0062 z m 6.117818,-0.509616 c 0.944387,-1.005255 0.652675,-1.330787 -0.708557,-0.790701 -2.009613,0.797338 -2.481075,1.58944 -0.946038,1.58944 0.550368,0 1.197862,-0.31257 1.654595,-0.798739 z"
       style="fill:#f8d950;stroke-width:0.31999999" />
    <path
       id="path827"
       d="M 33.868186,95.463226 C 33.586013,95.142451 32.82329,92.952134 32.173245,90.595856 31.523202,88.239574 30.574069,85.179987 30.064062,83.796774 29.554054,82.413558 28.480633,78.318541 27.678681,74.696736 26.876729,71.074931 25.510486,65.566518 24.642586,62.455818 23.774685,59.345117 22.911582,56.195722 22.724578,55.457158 22.165489,53.249056 21.464886,52.927331 16.739365,52.708669 11.715204,52.476192 10.828942,52.186208 9.5757373,50.364736 7.2889136,47.04095 6.9132029,44.693501 7.8009706,39.275946 c 0.7085395,-4.323821 2.0707552,-5.099917 9.0491774,-5.155584 5.0563,-0.04034 5.461419,0.16136 5.614363,2.795216 0.09282,1.598428 0.124577,1.647225 1.135489,1.744697 l 1.04,0.100275 v -6.441312 c 0,-3.542722 0.139038,-6.701107 0.308973,-7.018634 0.826193,-1.543755 9.255686,-3.62653 16.491027,-4.074634 2.782864,-0.17235 3.489955,-0.596763 3.16321,-1.89863 -0.100656,-0.401049 -0.277559,-2.64194 -0.393111,-4.979758 -0.196765,-3.980836 -0.255651,-4.273228 -0.927894,-4.6074898 -2.646253,-1.3158029 -3.73401,-4.4703581 -2.333501,-6.7672851 0.81839,-1.3422164 2.847491,-2.66491069 4.409558,-2.87442801 1.08209,-0.1451388 1.375636,-0.03525001 2.255076,0.84418785 1.900259,1.90026116 2.142003,5.15427596 0.539046,7.25586376 -0.80224,1.0517882 -0.861974,1.3432535 -0.819587,3.9990913 0.04874,3.054034 0.540406,7.623132 0.853811,7.93456 0.10401,0.103355 3.879069,0.148108 8.389021,0.09945 6.977085,-0.07527 8.456272,-0.0078 9.919001,0.452254 0.954781,0.300315 1.90736,0.837602 2.142544,1.208467 0.525184,0.828168 1.396084,4.964495 1.743834,8.282316 0.284752,2.716748 0.386438,2.958492 1.12519,2.675004 C 71.856541,32.715136 72,32.213021 72,31.121245 c 0,-1.642902 0.544982,-2.716617 1.689866,-3.329339 0.383372,-0.205176 2.355987,-0.476846 4.383587,-0.603713 4.22624,-0.264434 5.250457,0.03349 7.785017,2.264499 1.104637,0.972339 1.551117,1.691735 2.116244,3.40982 0.859145,2.611946 1.478473,7.233984 1.181459,8.817206 C 88.890317,43.096867 87.058,44.831114 85.089149,45.529069 82.578829,46.418976 80.374486,47.04 79.726045,47.04 78.676704,47.04 78.08,47.394758 78.08,48.018624 c 0,0.324582 -0.231805,1.425178 -0.515123,2.445763 -0.419194,1.510042 -0.564317,4.656525 -0.779271,16.895613 -0.181033,10.307731 -0.414556,16.09721 -0.742182,18.4 -0.262922,1.848 -0.48825,3.392301 -0.50073,3.431782 -0.133305,0.421661 -2.3191,1.055639 -4.2396,1.229671 -3.88919,0.352429 -4.516387,-0.390835 -2.914675,-3.454051 0.841162,-1.608692 0.875053,-1.877175 1.07984,-8.554109 C 69.584541,74.621981 69.8404,69.216 70.036829,66.4 c 0.856457,-12.278061 1.098249,-16.491587 0.954608,-16.635229 -0.08439,-0.08439 -0.760861,0.707885 -1.503264,1.760611 -2.134823,3.027178 -2.021546,2.991178 -8.614003,2.737658 -5.297575,-0.203722 -6.116436,-0.153459 -12.337792,0.757306 -3.664992,0.536531 -7.423376,1.196377 -8.351968,1.466326 -0.928589,0.269949 -2.105959,0.475178 -2.616378,0.456067 -0.510416,-0.0191 -2.154387,0.06797 -3.653264,0.193511 -2.65228,0.222147 -2.752915,0.204966 -3.75934,-0.641888 -0.898812,-0.756298 -1.060719,-0.800797 -1.237498,-0.340119 -0.412622,1.075274 4.038547,16.547795 6.445737,22.405757 0.578583,1.408 1.528448,4.072 2.11081,5.92 0.799232,2.536195 1.51031,4.026106 2.900217,6.0768 1.646029,2.428576 1.79696,2.78504 1.422676,3.36 -0.512324,0.787011 -2.900432,1.618973 -5.486756,1.911456 -1.638512,0.185296 -2.006732,0.130266 -2.442428,-0.36503 z m 1.98592,-39.422298 c 0.62376,-0.145094 1.47032,-0.13943 1.881251,0.01258 0.431264,0.159536 0.898816,0.153747 1.105894,-0.0137 1.087248,-0.879133 16.082106,-3.072403 18.758749,-2.743805 0.968,0.118839 3.416,0.249827 5.44,0.291088 3.303306,0.06734 3.753702,0.0088 4.4,-0.571817 0.396,-0.355764 0.72,-0.779028 0.72,-0.940586 0,-0.161562 0.282125,-0.652413 0.626944,-1.090778 0.964272,-1.225872 2.028032,-4.29694 1.627213,-4.69776 C 70.181949,46.053942 70.08,46.22135 70.08,46.83488 c 0,0.48991 -0.13839,0.797354 -0.310918,0.690726 -0.171005,-0.105686 -2.151005,0.02323 -4.4,0.286506 -2.248996,0.263264 -5.803108,0.634266 -7.898026,0.824445 -2.094922,0.190179 -4.902922,0.547926 -6.24,0.794992 C 45.732349,50.447606 44.937974,50.56 43.255434,50.56 c -0.966804,0 -3.930788,0.222371 -6.586631,0.49416 -3.845504,0.393533 -5.01512,0.628816 -5.74377,1.155434 -0.74839,0.54088 -1.054249,0.597811 -1.68,0.3127 C 28.824265,52.330579 28.48,52.233261 28.48,52.306029 c 0,0.538995 0.76236,1.891062 1.611714,2.858422 0.942814,1.073805 1.142401,1.155008 2.821435,1.147914 0.993769,-0.0042 2.3172,-0.126346 2.940957,-0.271437 z M 15.075044,50.79841 c 1.539451,-1.324429 2.298806,-3.802605 2.460834,-8.031008 0.133928,-3.495072 0.08821,-3.896733 -0.582816,-5.12 -0.40048,-0.730071 -0.94507,-1.579402 -1.2102,-1.887402 -0.669745,-0.778038 -2.95777,-0.728653 -4.579816,0.09885 -1.8186527,0.927808 -2.2756402,2.183914 -2.4538444,6.744791 l -0.1454912,3.723638 1.0678198,2.003437 c 1.6185628,3.036733 3.6903918,3.975952 5.4435138,2.467693 z m 16.945993,-6.009668 c 0.491565,-0.263078 0.607891,-0.641795 0.565171,-1.84 -0.05367,-1.505321 -0.05409,-1.505849 -0.183846,-0.2328 C 32.254749,44.164189 31.84582,44.8 31.061979,44.8 29.740072,44.8 29.345251,44.019862 28.776781,40.284608 28.47171,38.280074 28.211012,37.072 28.197451,37.6 c -0.01356,0.528 0.173248,2.177552 0.415131,3.66567 0.556419,3.423216 1.593012,4.494666 3.408455,3.523072 z m 55.005488,-1.539193 c 1.526288,-1.451923 1.565849,-1.821773 0.682368,-6.379328 C 87.019014,33.311395 86.371814,31.554567 85.344726,30.452692 84.26465,29.293967 81.780758,28.16 80.322717,28.16 c -1.099475,0 -1.346403,0.125843 -1.610637,0.820832 -0.699341,1.839407 -0.09943,5.636438 1.414272,8.951398 1.527376,3.344906 4.093821,6.462202 5.380173,6.534957 0.124589,0.007 0.808589,-0.540889 1.52,-1.217638 z M 67.390934,41.032 c 0.04459,-0.2244 0.0079,-0.2604 -0.0816,-0.08 -0.08947,0.1804 -0.426921,0.328 -0.7499,0.328 -1.012423,0 -1.81393,-1.859808 -2.206525,-5.12 -0.554416,-4.603967 -0.582906,-4.75031 -0.622935,-3.2 -0.06443,2.495507 0.748506,6.554371 1.533581,7.656906 0.736525,1.034355 1.957024,1.272496 2.127379,0.415094 z M 32.218595,40.58 c -0.10215,-0.255274 -0.177977,-0.17945 -0.193331,0.193334 -0.01389,0.337332 0.06173,0.526333 0.16807,0.42 0.106333,-0.106336 0.1177,-0.382336 0.02525,-0.613334 z m -6.195887,-8.068733 c 0.09168,-4.326496 0.03892,-7.144909 -0.128804,-6.88 C 25.737647,25.87807 25.618964,29.32 25.630163,33.28 c 0.0112,3.96 0.06916,7.056 0.128803,6.88 0.05964,-0.176 0.178326,-3.61793 0.263742,-7.648733 z M 67.745834,38.32 c -0.07627,-0.396 -0.138679,-0.072 -0.138679,0.72 0,0.792 0.06241,1.116 0.138679,0.72 0.07627,-0.396 0.07627,-1.044 0,-1.44 z m -35.931878,0.533715 c -0.118275,-0.630457 -0.332672,-2.250457 -0.47644,-3.6 L 31.076122,32.8 l 0.141595,2.88 c 0.135498,2.755962 0.379555,4.32 0.674105,4.32 0.07545,0 0.04041,-0.515827 -0.07787,-1.146285 z M 67.431914,34.805731 C 67.360694,34.230579 67.300954,34.624 67.299158,35.68 c -0.0019,1.056 0.05647,1.526579 0.129492,1.045731 0.07301,-0.480848 0.07448,-1.344848 0.0033,-1.92 z M 28.666453,32.020608 C 28.827904,31.86744 29.248,31.665555 29.6,31.571974 c 0.482843,-0.128366 0.44552,-0.155638 -0.15199,-0.11106 -1.071866,0.07997 -1.607891,1.256398 -1.557861,3.419086 l 0.04071,1.76 0.221021,-2.170454 c 0.121562,-1.193748 0.353118,-2.295773 0.514568,-2.448938 z M 67.113536,30.487137 C 67.044262,29.823212 66.986426,30.288 66.985005,31.52 c -0.0013,1.232 0.05526,1.775213 0.125949,1.207136 0.07069,-0.568074 0.07185,-1.576073 0.0026,-2.239999 z m -36.353828,1.42753 c -0.316037,-0.313686 -0.352793,-0.276929 -0.179134,0.179135 0.12017,0.31559 0.299101,0.49319 0.397625,0.394665 0.09852,-0.09853 2.03e-4,-0.356733 -0.218491,-0.5738 z m 33.798177,-3.254651 c 0.879129,-1.004204 1.184073,-1.022396 1.823971,-0.108814 0.373651,0.533463 0.498144,0.583241 0.498144,0.199182 0,-0.74707 -0.830147,-1.314726 -1.57633,-1.077897 -0.928819,0.294796 -1.950755,1.873163 -1.901545,2.936911 0.0421,0.909986 0.04226,0.909912 0.24,-0.109382 0.108832,-0.560991 0.520921,-1.388991 0.91576,-1.84 z M 44.24,21.86807 c -0.22,-0.08877 -0.58,-0.08877 -0.8,0 -0.22,0.08877 -0.04,0.161404 0.4,0.161404 0.44,0 0.62,-0.07263 0.4,-0.161404 z m 4.48,-0.32 c -0.22,-0.08877 -0.58,-0.08877 -0.8,0 -0.22,0.08877 -0.04,0.161404 0.4,0.161404 0.44,0 0.62,-0.07263 0.4,-0.161404 z"
       style="fill:#cbb460;stroke-width:0.31999999" />
    <path
       id="path825"
       d="M 33.868186,95.463226 C 33.586013,95.142451 32.82329,92.952134 32.173245,90.595856 31.523202,88.239574 30.574069,85.179987 30.064062,83.796774 29.554054,82.413558 28.480633,78.318541 27.678681,74.696736 26.876729,71.074931 25.510486,65.566518 24.642586,62.455818 23.774685,59.345117 22.91566,56.210867 22.733642,55.490816 22.191946,53.347914 21.536581,52.986941 17.808091,52.777846 L 14.56,52.595693 l 3.230404,-0.05785 c 2.880026,-0.05157 3.296522,-0.133539 3.84,-0.755728 L 22.24,51.084237 21.488129,51.59457 c -0.61051,0.414384 -1.33248,0.477273 -3.84,0.334486 -1.698471,-0.09671 -3.154501,-0.234691 -3.235623,-0.306611 -0.08112,-0.07192 0.222647,-0.448394 0.675044,-0.836605 1.543544,-1.32455 2.291077,-3.796442 2.439217,-8.06584 0.12811,-3.692138 0.100292,-3.898413 -0.722434,-5.356979 C 16.333713,36.528682 15.816211,35.764182 15.65433,35.664134 15.492448,35.564086 15.36,35.3324 15.36,35.149277 c 0,-0.214295 1.030625,-0.293098 2.891873,-0.221117 3.324936,0.128589 3.493335,0.256842 3.508127,2.67184 0.0054,0.88 0.14939,1.816 0.32,2.08 0.244959,0.379046 0.31123,0.308432 0.3151,-0.335744 0.0045,-0.743158 0.104558,-0.804109 1.1249,-0.684989 l 1.12,0.130752 v -6.533846 c 0,-4.732868 0.110255,-6.679015 0.4,-7.060498 0.386992,-0.509522 3.44,-1.976502 3.44,-1.652931 0,0.088 -0.629529,0.429847 -1.398953,0.759661 -1.161147,0.497726 -1.431378,0.781373 -1.589705,1.668628 -0.20505,1.149096 -0.276412,5.070831 -0.208695,11.468967 0.06294,5.946749 0.580612,3.788013 0.652265,-2.72 0.03294,-2.992 0.151063,-6.376 0.262491,-7.52 L 26.4,25.12 29.12,24.224857 c 3.296173,-1.084761 7.47497,-1.785195 12.739606,-2.135365 2.166784,-0.144121 4.026784,-0.349215 4.133335,-0.455765 0.106547,-0.10655 -1.378275,-0.222339 -3.299607,-0.25731 -2.863033,-0.05211 -3.0603,-0.0828 -1.093334,-0.170076 2.622774,-0.116377 3.333926,-0.561319 3.00321,-1.879001 -0.100656,-0.401049 -0.277559,-2.64194 -0.393111,-4.979758 -0.196765,-3.980836 -0.255651,-4.273228 -0.927894,-4.6074898 -2.646253,-1.3158029 -3.73401,-4.4703581 -2.333501,-6.7672851 0.81839,-1.3422164 2.847491,-2.66491069 4.409558,-2.87442801 1.08209,-0.1451388 1.375636,-0.03525001 2.255076,0.84418785 1.900259,1.90026116 2.142003,5.15427596 0.539046,7.25586376 -0.80224,1.0517882 -0.861974,1.3432535 -0.819587,3.9990913 0.04789,3.000708 0.538624,7.620565 0.841664,7.923606 0.09733,0.09733 1.033728,0.181894 2.080886,0.187918 2.348275,0.01351 2.544973,0.476524 0.224653,0.528815 -0.924,0.02082 -2.112,0.136742 -2.64,0.257597 -0.91697,0.209888 -0.927501,0.230744 -0.234976,0.465298 0.398762,0.135059 1.190762,0.09524 1.76,-0.08848 C 49.934259,21.28856 53.784,21.101822 57.92,21.057307 c 6.398861,-0.06887 7.695066,-0.0027 8.694243,0.443787 0.645834,0.288599 1.315427,0.788916 1.487984,1.111815 0.480346,0.898851 1.606103,7.244319 1.920845,10.827091 l 0.281117,3.2 0.08503,-2.4 c 0.04676,-1.32 0.152464,-2.139779 0.234886,-1.821731 0.08518,0.328672 0.379927,0.534489 0.68288,0.476841 0.40074,-0.07625 0.574343,-0.565539 0.699536,-1.97158 0.136756,-1.535898 0.325828,-2.00719 1.057844,-2.636844 0.49023,-0.421677 1.063296,-0.760921 1.273481,-0.753874 0.210186,0.007 0.01654,0.21172 -0.430297,0.45483 -0.446852,0.24311 -0.977399,0.777345 -1.178996,1.187188 C 72.283498,30.079622 72.001178,33.6 72.373674,33.6 72.520154,33.6 72.64,32.816029 72.64,31.857844 c 0,-2.410817 0.782598,-3.275135 3.400954,-3.756087 2.498585,-0.458952 3.105065,-0.26227 2.675465,0.867658 -0.703683,1.850827 -0.107744,5.639155 1.409933,8.962815 1.070205,2.343716 3.370218,5.590816 4.241245,5.98768 0.413821,0.188551 0.752403,0.454992 0.752403,0.59209 0,0.402016 -5.244784,1.885616 -6.766275,1.91399 L 76.96,46.45197 l 0.96,0.439575 c 0.528,0.241769 0.78,0.446073 0.56,0.454013 -0.22,0.0079 -0.4,0.295404 -0.4,0.638819 0,0.343414 -0.231805,1.459414 -0.515123,2.48 -0.419194,1.510041 -0.564317,4.656525 -0.779271,16.895613 -0.181033,10.307731 -0.414556,16.097209 -0.742182,18.4 -0.262922,1.848 -0.48825,3.3923 -0.50073,3.431782 -0.133305,0.421661 -2.3191,1.055638 -4.2396,1.22967 -3.88919,0.352429 -4.516387,-0.390835 -2.914675,-3.454051 0.841162,-1.608691 0.875053,-1.877174 1.07984,-8.554109 0.116282,-3.791312 0.372141,-9.197292 0.56857,-12.013292 0.856457,-12.278061 1.098249,-16.491588 0.954608,-16.635229 -0.08439,-0.08439 -0.760861,0.707885 -1.503264,1.760611 -2.134823,3.027178 -2.021546,2.991178 -8.614003,2.737658 -5.297575,-0.203722 -6.116436,-0.15346 -12.337792,0.757305 -3.664992,0.536531 -7.423376,1.196378 -8.351968,1.466327 -0.928589,0.269948 -2.105959,0.475177 -2.616378,0.456067 -0.510416,-0.0191 -2.154387,0.06797 -3.653264,0.19351 -2.65228,0.222147 -2.752915,0.204967 -3.75934,-0.641888 -0.898812,-0.756297 -1.060719,-0.800797 -1.237498,-0.340118 -0.412622,1.075273 4.038547,16.547795 6.445737,22.405757 0.578583,1.408 1.528448,4.072 2.11081,5.92 0.799232,2.536195 1.51031,4.026105 2.900217,6.0768 1.646029,2.428576 1.79696,2.78504 1.422676,3.36 -0.512324,0.787011 -2.900432,1.618972 -5.486756,1.911456 -1.638512,0.185296 -2.006732,0.130265 -2.442428,-0.365031 z M 35.593437,56.46097 c 1.0592,-0.274464 2.087987,-0.439732 2.286192,-0.367258 0.198205,0.07247 1.872371,-0.13511 3.720371,-0.461293 1.848,-0.326185 4.512,-0.747593 5.92,-0.936461 1.408,-0.188867 4.216,-0.57695 6.24,-0.862403 2.024,-0.285456 3.769763,-0.496861 3.879475,-0.469792 0.109709,0.02707 1.017002,0.110589 2.016202,0.185597 0.999197,0.075 1.905433,0.225085 2.013856,0.333507 0.274409,0.274407 2.493209,0.247725 2.774297,-0.03336 0.126775,-0.126774 0.691136,-0.190813 1.254141,-0.142307 0.876554,0.07552 1.264935,-0.166378 2.702839,-1.683431 0.923555,-0.97439 1.683769,-2.026352 1.689366,-2.337692 0.0056,-0.311341 0.2216,-0.845597 0.48,-1.187236 0.497398,-0.657619 0.604221,-1.696265 0.265293,-2.579497 -0.265373,-0.691549 -0.743431,-0.0167 -0.75057,1.059545 -0.0026,0.406388 -0.144813,0.652413 -0.315817,0.546727 -0.171005,-0.105687 -2.151005,0.02323 -4.4,0.286505 -2.248996,0.263264 -5.803108,0.634266 -7.898026,0.824445 -2.094922,0.190179 -4.902922,0.547927 -6.24,0.794992 C 45.732349,50.447606 44.937974,50.56 43.255434,50.56 c -0.966804,0 -3.930788,0.222371 -6.586631,0.49416 -3.787821,0.387629 -5.020692,0.632755 -5.718915,1.137056 -0.789303,0.570086 -1.015813,0.597443 -2,0.241555 C 28.33945,52.212035 27.84,51.892358 27.84,51.722381 c 0,-0.169975 -0.07375,-0.235303 -0.163881,-0.145165 -0.353228,0.353226 1.261249,3.301411 2.361192,4.31175 1.354933,1.24456 2.504094,1.362864 5.556126,0.572004 z M 26.138596,45.7 c -0.102152,-0.255274 -0.177978,-0.17945 -0.193333,0.193334 -0.01389,0.337332 0.06174,0.526333 0.16807,0.42 0.106334,-0.106336 0.117702,-0.382336 0.02526,-0.613334 z m 5.882441,-0.911258 c 0.76384,-0.408796 0.813008,-1.867513 0.149283,-4.428921 -0.258326,-0.996906 -0.60079,-3.238803 -0.761033,-4.981987 -0.308811,-3.359367 -0.7335,-4.151024 -2.118955,-3.949911 -1.543641,0.224076 -1.747602,3.1968 -0.674976,9.837747 0.552884,3.423063 1.589278,4.495181 3.405681,3.523072 z M 30.72,43.912019 C 29.98846,43.656006 29.7698,43.160784 29.7698,41.76 c 0,-0.943149 0.08163,-1.15368 0.3102,-0.8 0.265096,0.410208 0.310912,0.398576 0.3151,-0.08 0.0027,-0.308 -0.192548,-0.56 -0.433874,-0.56 -0.441228,0 -1.064267,-3.083626 -0.697203,-3.450688 0.09679,-0.09679 0.175977,0.217725 0.175977,0.698918 0,0.711005 0.112822,0.839088 0.602273,0.683744 0.469139,-0.148899 0.642508,0.0055 0.784291,0.698436 0.951794,4.651769 0.937293,5.326918 -0.106564,4.961609 z M 29.788164,36.88 C 29.56224,36.308 29.247479,35.84 29.088696,35.84 28.929913,35.84 28.8,35.326534 28.8,34.698963 28.8,33.494957 29.268326,32.32 29.748233,32.32 c 0.360369,0 0.746458,2.993597 0.577793,4.48 l -0.127089,1.12 z m -7.156677,4.32 c -0.07099,-0.572 -0.129063,-0.104 -0.129063,1.04 0,1.144 0.05808,1.612 0.129063,1.04 0.07098,-0.572 0.07098,-1.508 0,-2.08 z m 3.180443,1.6 c -0.08877,-0.22 -0.161404,-0.04 -0.161404,0.4 0,0.44 0.07263,0.62 0.161404,0.4 0.08877,-0.22 0.08877,-0.58 0,-0.8 z M 50.8,42.32689 c -0.66,-0.06904 -1.74,-0.06904 -2.4,0 -0.66,0.06904 -0.12,0.125523 1.2,0.125523 1.32,0 1.86,-0.05648 1.2,-0.125523 z M 70.629626,40.4044 c -0.07355,-0.486419 -0.1357,-0.1644 -0.138103,0.7156 -0.0022,0.88 0.05778,1.277981 0.133735,0.8844 0.07595,-0.393581 0.07792,-1.113581 0.0044,-1.6 z m -3.0925,0.350554 c 0.418778,-1.101472 -0.431184,-12.097132 -0.98686,-12.766684 -0.596925,-0.719249 -1.243802,-0.564282 -2.281479,0.546552 -0.906157,0.970045 -0.93951,1.107713 -0.755907,3.12 0.492208,5.394653 0.902432,7.564845 1.653062,8.745178 0.917229,1.442301 1.901744,1.58968 2.371184,0.354954 z M 66.249731,39.954237 C 66.244387,39.665066 66.045862,39.353974 65.808586,39.262922 65.383587,39.099837 65.204595,38.05632 64.64513,32.48 c -0.212144,-2.114467 -0.170618,-2.65746 0.238608,-3.12 0.664947,-0.751575 1.126809,-0.709408 0.876262,0.08 -0.123334,0.388588 -0.0575,0.64 0.167578,0.64 0.252124,0 0.338528,0.639743 0.270115,2 -0.05532,1.1 0.01117,2.178547 0.14775,2.396771 0.136586,0.218224 0.217943,1.239091 0.180791,2.268592 -0.03715,1.029504 0.03504,2.037815 0.160428,2.240695 0.125386,0.20288 0.08056,0.622012 -0.09961,0.931408 -0.289671,0.49742 -0.328714,0.501676 -0.337319,0.03677 z M 49.84,32.404787 c -0.836,-0.06592 -2.204,-0.06592 -3.04,0 -0.836,0.06592 -0.152,0.119853 1.52,0.119853 1.672,0 2.356,-0.05393 1.52,-0.119853 z M 12.56,52.259414 c 0.308,-0.08049 0.812,-0.08049 1.12,0 0.308,0.08049 0.056,0.146346 -0.56,0.146346 -0.616,0 -0.868,-0.06586 -0.56,-0.146346 z M 79.706666,46.925018 C 79.78,46.861776 80.272,46.713402 80.8,46.595296 c 0.701094,-0.156822 0.830547,-0.127136 0.48,0.110083 -0.432118,0.292419 -1.894448,0.49656 -1.573334,0.219639 z M 83.9464,45.650182 c 1.547715,-0.532608 2.575968,-1.141923 3.52,-2.085856 1.194922,-1.194796 1.355677,-1.540966 1.545901,-3.328896 L 89.224602,38.24 89.15728,40.397725 c -0.06145,1.969501 -0.16041,2.253766 -1.134458,3.258729 C 86.898995,44.815949 84.757514,45.877792 82.88,46.206496 82.264,46.314342 82.743882,46.064 83.9464,45.650182 Z M 22.105263,35.778144 c -0.01389,-0.298019 -0.345304,-0.766019 -0.736465,-1.04 C 20.977637,34.464166 20.811319,34.24 20.999202,34.24 c 0.543662,0 1.483039,1.2016 1.2989,1.661485 -0.111935,0.279555 -0.175964,0.238601 -0.192839,-0.123341 z M 12.4,34.334166 c 0.396,-0.07628 1.044,-0.07628 1.44,0 0.396,0.07627 0.072,0.138679 -0.72,0.138679 -0.792,0 -1.116,-0.06241 -0.72,-0.138679 z m 7.38,0.0072 c 0.231,-0.09244 0.507,-0.08107 0.613333,0.02525 0.106334,0.106336 -0.08267,0.181965 -0.42,0.168071 C 19.600552,34.519357 19.524725,34.443536 19.78,34.341386 Z M 16.245731,34.00808 c 0.575152,-0.07122 1.439152,-0.06975 1.92,0.0033 0.480848,0.07302 0.01027,0.131286 -1.045731,0.129491 -1.056,-0.0019 -1.449421,-0.06154 -0.874269,-0.132755 z M 70.167155,29.76 c 0,-0.792 0.06241,-1.116 0.138679,-0.72 0.07627,0.396 0.07627,1.044 0,1.44 -0.07627,0.396 -0.138679,0.072 -0.138679,-0.72 z m -0.35663,-2.24 c 0,-0.44 0.07263,-0.62 0.161405,-0.4 0.08877,0.22 0.08877,0.58 0,0.8 -0.08877,0.22 -0.161405,0.04 -0.161405,-0.4 z M 76,27.317897 c 2.292045,-0.237988 4.888771,-0.258699 4.751469,-0.0379 -0.08208,0.132 -1.400743,0.216955 -2.930355,0.188788 C 76.291501,27.440622 75.472,27.372721 76,27.317897 Z M 69.490525,25.92 c 0,-0.44 0.07263,-0.62 0.161405,-0.4 0.08877,0.22 0.08877,0.58 0,0.8 -0.08877,0.22 -0.161405,0.04 -0.161405,-0.4 z m -0.520826,-2.16 c -0.12184,-0.66 -0.522966,-1.524 -0.891392,-1.92 -0.368429,-0.396 -0.504086,-0.72 -0.301465,-0.72 0.538585,0 1.263491,1.263116 1.515097,2.64 0.120608,0.66 0.147287,1.2 0.05929,1.2 -0.088,0 -0.259687,-0.54 -0.381527,-1.2 z M 30.98,22.821404 c 0.231,-0.09244 0.507,-0.08107 0.613333,0.02526 0.106334,0.106333 -0.08267,0.181965 -0.42,0.16807 C 30.800552,22.999384 30.724725,22.923554 30.98,22.8214 Z m 1.28,-0.32 c 0.230998,-0.09244 0.506998,-0.08107 0.613334,0.02526 0.106333,0.106333 -0.08267,0.181965 -0.42,0.16807 -0.372784,-0.01535 -0.448608,-0.09118 -0.193334,-0.19333 z m 6.08,-0.96 c 0.230998,-0.09244 0.506998,-0.08107 0.613334,0.02526 0.106333,0.106333 -0.08267,0.181965 -0.42,0.16807 C 38.16055,21.719384 38.084726,21.643557 38.34,21.541404 Z M 66.08,20.8 c -0.421997,-0.181338 -0.476499,-0.28101 -0.16,-0.292609 0.264,-0.0097 0.696,0.121999 0.96,0.292609 0.58495,0.378023 0.07971,0.378023 -0.8,0 z M 53.6,20.478573 c 1.293651,-0.284695 3.579299,-0.420446 3.333334,-0.197977 C 56.86,20.346923 55.792,20.481982 54.56,20.580727 52.838522,20.718703 52.616298,20.695056 53.6,20.478573 Z m 6.32,-0.235049 c 1.012,-0.0635 2.668,-0.0635 3.68,0 1.012,0.0635 0.184,0.115462 -1.84,0.115462 -2.024,0 -2.852,-0.05196 -1.84,-0.115462 z"
       style="fill:#9f9e9e;stroke-width:0.31999999" />
    <path
       id="path823"
       d="m 33.970381,94.8 c -0.190992,-0.484 -0.638499,-2.032 -0.994458,-3.44 -0.802358,-3.173757 -1.657198,-5.90944 -2.502465,-8.008458 -0.356246,-0.884649 -1.316404,-4.628649 -2.133686,-8.32 C 27.522491,71.340195 26.145905,65.8 25.280693,62.72 c -0.865212,-3.08 -1.743706,-6.297078 -1.952209,-7.149059 -0.218721,-0.893738 -0.730893,-1.875264 -1.210675,-2.320144 -0.737505,-0.683853 -0.783857,-0.847501 -0.409731,-1.44657 0.40532,-0.649021 0.394547,-0.656365 -0.274986,-0.187405 -0.555396,0.389015 -1.32364,0.452391 -3.784963,0.312234 -1.698471,-0.09671 -3.154501,-0.234691 -3.235623,-0.306611 -0.08112,-0.07192 0.222647,-0.448394 0.675044,-0.836605 1.543544,-1.32455 2.291077,-3.796442 2.439217,-8.06584 0.12811,-3.692138 0.100292,-3.898413 -0.722434,-5.356979 C 16.333713,36.528682 15.816211,35.764182 15.65433,35.664134 15.492448,35.564086 15.36,35.3324 15.36,35.149277 c 0,-0.214295 1.030625,-0.293098 2.891873,-0.221117 3.324936,0.128589 3.493335,0.256842 3.508127,2.67184 0.0054,0.88 0.14939,1.816 0.32,2.08 0.2068,0.32 0.311833,0.346666 0.3151,0.08 0.0028,-0.22512 0.402928,-0.4 0.915304,-0.4 0.93969,0 1.952582,0.826342 1.992087,1.625197 0.01338,0.270608 0.133873,0.195606 0.297509,-0.185197 0.15126,-0.352 0.30197,-3.088 0.334912,-6.08 0.03294,-2.992 0.151063,-6.376 0.262491,-7.52 L 26.4,25.12 29.12,24.224857 c 3.296173,-1.084761 7.47497,-1.785195 12.739606,-2.135365 2.166784,-0.144121 4.026784,-0.349215 4.133335,-0.455765 C 46.099488,21.527177 45.968384,21.44 45.701597,21.44 c -0.386131,0 -0.52721,-0.636373 -0.691677,-3.12 -0.113635,-1.716 -0.207354,-4.152223 -0.208266,-5.413828 -0.0019,-2.864017 -0.141827,-3.2224462 -1.473459,-3.7788379 -1.440848,-0.6020243 -2.365497,-2.1861655 -2.366998,-4.0552243 -0.0013,-1.3938071 0.108889,-1.5885047 1.739798,-3.0790626 2.685757,-2.45463104 3.841936,-2.44864438 5.094183,0.026378 1.215699,2.4027872 1.161948,4.3171174 -0.163604,5.826839 l -1.008425,1.1485334 0.258553,4.5426014 c 0.142205,2.498431 0.271997,5.300323 0.288426,6.226428 0.03414,1.92468 0.47111,2.264803 2.194896,1.708454 C 49.934259,21.28856 53.784,21.101823 57.92,21.057307 c 6.398861,-0.06887 7.695066,-0.0027 8.694243,0.443788 0.645834,0.288598 1.314461,0.788915 1.485843,1.111815 0.528535,0.995825 1.609284,7.130403 1.879258,10.66709 0.176141,2.307466 0.28769,2.883853 0.356102,1.84 0.0983,-1.499929 0.11418,-1.52 1.202087,-1.52 H 72.64 v -1.742155 c 0,-2.410818 0.782598,-3.275135 3.400954,-3.756088 2.498585,-0.458952 3.105065,-0.26227 2.675465,0.867658 -0.703683,1.850827 -0.107744,5.639155 1.409933,8.962816 1.070205,2.343715 3.370218,5.590816 4.241245,5.98768 0.413821,0.18855 0.752403,0.454992 0.752403,0.592089 0,0.4132 -5.27047,1.887642 -6.766275,1.892899 -0.820394,0.0029 -1.227962,0.110135 -0.990765,0.260717 0.405216,0.257245 0.298544,1.139271 -0.606432,5.014384 -0.16441,0.704 -0.430163,8.048 -0.59056,16.32 -0.300765,15.51081 -0.604864,20.096039 -1.384502,20.87568 -1.003271,1.003271 -5.895303,1.439296 -6.601492,0.588387 -0.299708,-0.361126 -0.205945,-0.7291 0.450935,-1.769664 1.137248,-1.80152 1.449091,-3.791542 1.449091,-9.247344 0,-2.566076 0.140547,-6.614422 0.31233,-8.996323 0.281936,-3.909315 0.553203,-8.011139 1.270464,-19.210736 0.220412,-3.441581 0.194102,-3.717177 -0.406112,-4.253849 -0.732826,-0.655248 -1.163271,-0.290576 -1.171783,0.992736 -0.0026,0.406387 -0.144813,0.652412 -0.315817,0.546726 -0.171005,-0.105686 -2.151005,0.02323 -4.4,0.286506 -2.248996,0.263264 -5.803108,0.634265 -7.898026,0.824444 -2.094922,0.19018 -4.902922,0.547927 -6.24,0.794992 C 45.732349,50.447606 44.937974,50.56 43.255434,50.56 c -0.966804,0 -3.930788,0.222371 -6.586631,0.49416 -3.787821,0.387629 -5.020692,0.632755 -5.718915,1.137056 -0.789303,0.570086 -1.015813,0.597443 -2,0.241555 C 28.33945,52.212035 27.84,51.892358 27.84,51.722381 c 0,-0.169975 -0.07562,-0.233427 -0.168042,-0.141005 -0.09242,0.09242 0.114529,0.827254 0.459894,1.632957 0.498115,1.162057 0.559357,1.651062 0.296221,2.365293 -0.268117,0.72775 -0.112387,1.759305 0.812253,5.380374 1.302507,5.100867 4.584717,15.530688 5.639335,17.92 0.388419,0.88 1.269286,3.328 1.957481,5.44 0.963015,2.955398 1.663338,4.442902 3.040064,6.457158 0.98384,1.439437 1.700458,2.760093 1.592487,2.934797 -0.107971,0.174701 -0.878823,0.557747 -1.713002,0.851213 -0.834179,0.293466 -1.766736,0.664806 -2.072349,0.825203 C 37.37873,95.548768 36.496202,95.68 35.723165,95.68 c -1.235776,0 -1.447459,-0.106278 -1.752784,-0.88 z M 26.138596,45.7 c -0.102152,-0.255274 -0.177978,-0.17945 -0.193333,0.193334 -0.01389,0.337332 0.06174,0.526333 0.16807,0.42 0.106334,-0.106336 0.117702,-0.382336 0.02526,-0.613334 z m 5.882441,-0.911258 c 0.76384,-0.408796 0.813008,-1.867513 0.149283,-4.428921 -0.258326,-0.996906 -0.60079,-3.238803 -0.761033,-4.981987 -0.308811,-3.359367 -0.7335,-4.151024 -2.118955,-3.949911 -1.543641,0.224076 -1.747602,3.1968 -0.674976,9.837747 0.552884,3.423063 1.589278,4.495181 3.405681,3.523072 z M 22.631487,41.2 c -0.07099,-0.572 -0.129063,-0.104 -0.129063,1.04 0,1.144 0.05808,1.612 0.129063,1.04 0.07098,-0.572 0.07098,-1.508 0,-2.08 z m 3.180443,1.6 c -0.08877,-0.22 -0.161404,-0.04 -0.161404,0.4 0,0.44 0.07263,0.62 0.161404,0.4 0.08877,-0.22 0.08877,-0.58 0,-0.8 z M 50.8,42.32689 c -0.66,-0.06904 -1.74,-0.06904 -2.4,0 -0.66,0.06904 -0.12,0.125523 1.2,0.125523 1.32,0 1.86,-0.05648 1.2,-0.125523 z M 70.629626,40.4044 c -0.07355,-0.486419 -0.1357,-0.1644 -0.138103,0.7156 -0.0022,0.88 0.05778,1.277981 0.133735,0.8844 0.07595,-0.393581 0.07792,-1.113581 0.0044,-1.6 z m -3.0925,0.350554 c 0.418778,-1.101472 -0.431184,-12.097132 -0.98686,-12.766684 -0.596925,-0.719249 -1.243802,-0.564282 -2.281479,0.546552 -0.906157,0.970045 -0.93951,1.107713 -0.755907,3.12 0.492208,5.394653 0.902432,7.564845 1.653062,8.745178 0.917229,1.442301 1.901744,1.58968 2.371184,0.354954 z M 49.84,32.404787 c -0.836,-0.06592 -2.204,-0.06592 -3.04,0 -0.836,0.06592 -0.152,0.119853 1.52,0.119853 1.672,0 2.356,-0.05393 1.52,-0.119853 z"
       style="fill:#fac805;stroke-width:0.31999999" />
    <path
       id="path821"
       d="m 33.970381,94.8 c -0.190992,-0.484 -0.638499,-2.032 -0.994458,-3.44 -0.802358,-3.173757 -1.657198,-5.90944 -2.502465,-8.008458 -0.356246,-0.884649 -1.316404,-4.628649 -2.133686,-8.32 C 27.522491,71.340195 26.145905,65.8 25.280693,62.72 c -0.865212,-3.08 -1.743706,-6.297078 -1.952209,-7.149059 -0.218721,-0.893738 -0.730893,-1.875264 -1.210675,-2.320144 -0.727656,-0.67472 -0.780432,-0.852986 -0.422307,-1.426435 0.398051,-0.63738 0.387505,-0.641085 -0.384613,-0.135175 -0.436638,0.286096 -1.126212,0.456679 -1.532388,0.379072 -0.692913,-0.132393 -0.687241,-0.143792 0.0919,-0.184681 0.456722,-0.02397 1.104722,-0.346605 1.44,-0.71697 0.550667,-0.608298 0.605444,-1.172845 0.566641,-5.84 -0.04743,-5.704979 -0.331611,-9.161459 -0.792494,-9.639094 -0.16584,-0.171869 -1.557707,-0.40888 -3.093039,-0.526695 L 15.2,34.946618 l 2.971873,0.04669 C 21.592884,35.047056 21.74504,35.157594 21.76,37.6 c 0.0054,0.88 0.14939,1.816 0.32,2.08 0.2068,0.32 0.311833,0.346666 0.3151,0.08 0.0028,-0.22512 0.402928,-0.4 0.915304,-0.4 0.888879,0 1.707867,0.635312 2.062577,1.6 0.128628,0.349824 0.188845,0.306432 0.222039,-0.16 l 0.04555,-0.64 0.256667,0.64 c 0.141167,0.352 0.357929,1.648 0.481692,2.88 0.208675,2.077238 0.57225,3.653389 1.642395,7.12 0.235673,0.763437 0.287984,1.36 0.119256,1.36 -0.16532,0 -0.30058,-0.168 -0.30058,-0.373334 0,-0.205332 -0.07562,-0.297712 -0.168042,-0.20529 -0.09242,0.09242 0.114529,0.827254 0.459894,1.632957 0.498115,1.162057 0.559357,1.651062 0.296221,2.365293 -0.268117,0.72775 -0.112387,1.759305 0.812253,5.380374 1.302507,5.100867 4.584717,15.530688 5.639335,17.92 0.388419,0.88 1.269286,3.328 1.957481,5.44 0.963015,2.955398 1.663338,4.442902 3.040064,6.457158 0.98384,1.439437 1.700458,2.760093 1.592487,2.934797 -0.107971,0.174701 -0.878823,0.557747 -1.713002,0.851213 -0.834179,0.293466 -1.766736,0.664806 -2.072349,0.825203 C 37.37873,95.548768 36.496202,95.68 35.723165,95.68 c -1.235776,0 -1.447459,-0.106278 -1.752784,-0.88 z M 26.138596,45.7 c -0.102152,-0.255274 -0.177978,-0.17945 -0.193333,0.193334 -0.01389,0.337332 0.06174,0.526333 0.16807,0.42 0.106334,-0.106336 0.117702,-0.382336 0.02526,-0.613334 z m -3.507109,-4.5 c -0.07099,-0.572 -0.129063,-0.104 -0.129063,1.04 0,1.144 0.05808,1.612 0.129063,1.04 0.07098,-0.572 0.07098,-1.508 0,-2.08 z m 3.180443,1.6 c -0.08877,-0.22 -0.161404,-0.04 -0.161404,0.4 0,0.44 0.07263,0.62 0.161404,0.4 0.08877,-0.22 0.08877,-0.58 0,-0.8 z M 68.179974,89.464067 C 67.880266,89.102941 67.974029,88.734966 68.630909,87.694403 69.768157,85.892883 70.08,83.902861 70.08,78.447059 c 0,-2.566077 0.140547,-6.614422 0.31233,-8.996323 0.281936,-3.909315 0.553203,-8.011139 1.270464,-19.210736 0.220412,-3.441581 0.194102,-3.717178 -0.406112,-4.25385 -0.495658,-0.443187 -0.698768,-0.48166 -0.892023,-0.168969 -0.449571,0.727421 -0.700851,-0.618442 -0.507597,-2.718698 C 70.287939,38.415786 68.925722,24.773269 67.818778,22.68521 67.312451,21.73011 64.737533,21.278118 60,21.31273 c -4.347722,0.03176 -4.39969,0.02435 -1.76,-0.251059 4.85536,-0.506579 9.124358,0.165041 9.860086,1.551238 0.528535,0.995825 1.609284,7.130404 1.879258,10.667091 0.176141,2.307466 0.28769,2.883853 0.356102,1.84 0.0983,-1.49993 0.11418,-1.52 1.202087,-1.52 H 72.64 v -1.716845 c 0,-2.289368 0.740992,-3.234526 2.898598,-3.697249 0.887098,-0.190248 2.001815,-0.330327 2.477152,-0.311286 0.475338,0.01904 -0.21575,0.230401 -1.53575,0.469688 -3.023555,0.548104 -3.52,1.068907 -3.52,3.692706 0,3.029415 2.698973,11.965076 4.07247,13.482986 0.701344,0.775085 2.315936,0.703088 5.34722,-0.238445 1.396832,-0.433862 2.596544,-0.731987 2.666028,-0.662502 0.272746,0.272742 -5.379932,1.781235 -6.691993,1.785846 -0.820394,0.0029 -1.227962,0.110135 -0.990765,0.260717 0.405216,0.257245 0.298544,1.13927 -0.606432,5.014384 -0.16441,0.704 -0.430163,8.048 -0.59056,16.32 -0.300765,15.51081 -0.604864,20.096038 -1.384502,20.87568 -1.003271,1.00327 -5.895303,1.439296 -6.601492,0.588387 z M 70.629626,40.4044 c -0.07355,-0.486419 -0.1357,-0.1644 -0.138103,0.7156 -0.0022,0.88 0.05778,1.277981 0.133735,0.8844 0.07595,-0.393581 0.07792,-1.113581 0.0044,-1.6 z M 15.44,51.60689 c 0.66,-0.06904 1.74,-0.06904 2.4,0 0.66,0.06904 0.12,0.125523 -1.2,0.125523 -1.32,0 -1.86,-0.05648 -1.2,-0.125523 z M 36.049699,45.2 c -0.441337,-0.715338 -0.901475,-4.688496 -1.072669,-9.262195 -0.169228,-4.52118 -0.125619,-5.286509 0.341876,-5.999999 0.529984,-0.808854 1.592598,-1.094046 1.945974,-0.522273 0.100454,0.162543 0.936954,0.540578 1.858883,0.840079 0.92193,0.2995 1.973517,0.81451 2.336861,1.144467 C 42.047354,31.932894 42.680922,32 47.124698,32 h 5.003449 l 1.215927,-1.455566 C 54.677184,28.948587 57.465562,26.88 58.283587,26.88 c 1.177837,0 1.441555,1.335169 2.205338,11.1652 0.310889,4.001219 0.29456,4.668461 -0.124519,5.087536 -0.38712,0.38712 -0.660201,0.411942 -1.383369,0.125741 C 58.485466,43.062352 57.144,42.903341 56,42.90512 c -1.144,0.0019 -3.304,-0.0052 -4.8,-0.01558 -1.496,-0.01037 -3.8,0.108477 -5.12,0.26407 -1.779446,0.209754 -2.663277,0.17616 -3.418227,-0.129923 -0.975248,-0.395401 -1.096807,-0.353478 -2.88,0.993223 -1.722432,1.300816 -3.342576,1.814416 -3.732074,1.1831 z m 3.316272,-3.556739 c 0.643639,-0.643639 0.863511,-1.120285 0.738061,-1.6 -0.205923,-0.787456 -0.297171,-0.805744 -1.656282,-0.331955 -0.898147,0.313094 -1.00775,0.48711 -1.00775,1.6 0,1.54286 0.609939,1.647987 1.925971,0.331955 z M 50.8,42.32689 c -0.66,-0.06904 -1.74,-0.06904 -2.4,0 -0.66,0.06904 -0.12,0.125523 1.2,0.125523 1.32,0 1.86,-0.05648 1.2,-0.125523 z m 7.644554,-1.847607 c 0.101459,-0.264393 0.09902,-0.821152 -0.0054,-1.237241 -0.150724,-0.600532 -0.4629,-0.793149 -1.513917,-0.934122 -1.844243,-0.247363 -2.258592,-0.02051 -2.142458,1.172928 0.08732,0.897274 0.227744,1.018992 1.377229,1.193741 2.051552,0.311885 2.091229,0.308493 2.284554,-0.195306 z M 39.474208,37.11608 C 39.85591,36.759034 38.193872,35.72783 37.60247,35.954771 37.33711,36.056602 37.12,36.515875 37.12,36.975382 c 0,0.774199 0.07627,0.819399 1.04,0.61633 0.572,-0.120525 1.163395,-0.33456 1.314208,-0.475632 z M 58.180842,35.6 C 58.052733,34.923738 56.513955,34.700435 55.261997,35.176429 53.80664,35.729754 54.279709,36.16 56.343462,36.16 c 1.678,0 1.928976,-0.07649 1.83738,-0.56 z M 40,33.479181 c 0,-0.61393 -0.687923,-1.120765 -1.83169,-1.34952 -1.136704,-0.22734 -1.546908,0.218697 -1.051849,1.143725 C 37.535046,34.055523 40,34.231446 40,33.479181 Z M 57.2,32.60033 c 0.512218,-0.18816 0.718586,-0.520733 0.715101,-1.15241 -0.0088,-1.585879 -0.428128,-1.8601 -1.562314,-1.021562 C 55.318048,31.191373 54.4,32.37344 54.4,32.940742 c 0,0.331376 1.45168,0.154887 2.8,-0.340412 z m -7.36,-0.195543 c -0.836,-0.06592 -2.204,-0.06592 -3.04,0 -0.836,0.06592 -0.152,0.119853 1.52,0.119853 1.672,0 2.356,-0.05393 1.52,-0.119853 z M 26.56,25.16634 c 0,-0.592791 6.909146,-2.200348 12.48,-2.903732 1.386646,-0.17508 1.37479,-0.164682 -0.32,0.280659 -0.968,0.254361 -2.624,0.554157 -3.68,0.666212 -1.056,0.112055 -2.784,0.467053 -3.84,0.788882 -1.056,0.32183 -2.302622,0.669243 -2.770272,0.772028 -0.467649,0.102785 -1.079649,0.274902 -1.36,0.382483 C 26.789378,25.260452 26.56,25.266513 26.56,25.16634 Z M 45.28,21.76 c 0.528,-0.134353 0.729718,-0.261316 0.448262,-0.282139 C 45.312291,21.447086 45.177862,20.856127 45.00992,18.32 44.896285,16.604 44.802566,14.167777 44.801654,12.906172 44.799734,10.042155 44.659827,9.6837258 43.328195,9.1273341 41.887347,8.5253098 40.962698,6.9411686 40.961197,5.0721098 c -0.0013,-1.3938071 0.108889,-1.5885047 1.739798,-3.0790626 2.685757,-2.45463104 3.841936,-2.44864438 5.094183,0.026378 1.215699,2.4027872 1.161948,4.3171174 -0.163604,5.826839 l -1.008425,1.1485334 0.258553,4.5426014 c 0.142205,2.498431 0.271997,5.298601 0.288426,6.222601 0.01642,0.924 0.146371,1.68 0.288758,1.68 0.142388,0 0.169888,0.144 0.06111,0.32 -0.108774,0.176 -0.873274,0.302963 -1.698886,0.282139 C 44.473757,22.008156 44.41833,21.979258 45.28,21.76 Z m 6.009654,-0.555607 c 0.841312,-0.06614 2.137312,-0.06534 2.88,0.0018 0.742692,0.06711 0.05435,0.121223 -1.529654,0.120248 -1.584,-9.6e-4 -2.191654,-0.05588 -1.350346,-0.122021 z"
       style="fill:#dbae0a;stroke-width:0.31999999" />
    <path
       id="path819"
       d="m 33.970381,94.8 c -0.190992,-0.484 -0.638499,-2.032 -0.994458,-3.44 -0.802358,-3.173757 -1.657198,-5.90944 -2.502465,-8.008458 -0.356246,-0.884649 -1.316404,-4.628649 -2.133686,-8.32 C 27.522491,71.340195 26.145905,65.8 25.280693,62.72 24.415481,59.64 23.536987,56.422922 23.328484,55.570941 23.110739,54.681194 22.597643,53.695725 22.122962,53.255574 L 21.296536,52.48927 21.928268,51.444634 C 22.492453,50.511696 22.56,49.809818 22.56,44.880346 v -5.519655 l 0.830404,-3.2e-4 c 1.416691,-6.4e-4 1.904816,0.935418 2.381809,4.567258 0.2411,1.835737 0.576939,3.683011 0.746309,4.105049 0.169371,0.422042 0.488854,1.487348 0.709964,2.367348 0.22111,0.88 0.656107,2.202832 0.96666,2.939625 0.440207,1.044397 0.491539,1.538048 0.232927,2.24 -0.268117,0.727751 -0.112387,1.759306 0.812253,5.380375 1.302507,5.100867 4.584717,15.530688 5.639335,17.92 0.388419,0.88 1.269286,3.328 1.957481,5.44 0.963015,2.955398 1.663338,4.442902 3.040064,6.457158 0.98384,1.439437 1.700458,2.760093 1.592487,2.934797 -0.107971,0.174701 -0.878823,0.557747 -1.713002,0.851213 -0.834179,0.293465 -1.766736,0.664806 -2.072349,0.825203 -0.305612,0.160397 -1.18814,0.291629 -1.961177,0.291629 -1.235776,0 -1.447459,-0.106279 -1.752784,-0.88 z M 68.179974,89.464067 C 67.880266,89.102941 67.974029,88.734966 68.630909,87.694403 69.768157,85.892883 70.08,83.902861 70.08,78.447059 c 0,-2.566077 0.140547,-6.614422 0.31233,-8.996323 C 70.674131,65.543299 70.939261,61.534518 71.662886,50.24 71.888,46.726381 71.867456,46.531066 71.208509,45.92 70.554451,45.313472 70.515555,44.974576 70.464784,39.44 L 70.41121,33.6 h 0.907507 c 0.894003,0 0.927014,0.06859 2.218694,4.61009 1.48816,5.232297 2.364935,7.300787 3.459575,8.161833 0.815049,0.641117 0.806774,0.823827 -0.240458,5.308077 -0.16441,0.704 -0.430163,8.048 -0.59056,16.32 -0.300765,15.51081 -0.604864,20.096038 -1.384502,20.87568 -1.003271,1.00327 -5.895303,1.439296 -6.601492,0.588387 z M 42.969574,42.545683 C 42.578838,42.392797 42.188106,41.937472 42.10128,41.533853 41.717498,39.74984 41.28,36.064698 41.28,34.616026 c 0,-1.97905 -0.04068,-1.965898 6.098838,-1.971658 5.488295,-0.0052 5.913405,0.157082 5.79225,2.210384 -0.04312,0.730762 0.07947,2.481638 0.272416,3.890838 0.52312,3.820653 0.71144,3.651088 -4.07985,3.673581 -2.246009,0.01053 -4.443654,0.105866 -4.883654,0.211831 -0.44,0.105961 -1.119693,0.06757 -1.510426,-0.08532 z M 45.011008,18.336594 C 44.896774,16.611467 44.802566,14.167777 44.801654,12.906172 44.799734,10.042155 44.659827,9.6837258 43.328195,9.1273341 41.887347,8.5253098 40.962698,6.9411686 40.961197,5.0721098 c -0.0013,-1.3938071 0.108889,-1.5885047 1.739798,-3.0790626 2.685757,-2.45463104 3.841936,-2.44864438 5.094183,0.026378 1.215699,2.4027872 1.161948,4.3171174 -0.163604,5.826839 l -1.008425,1.1485334 0.252505,4.5426014 c 0.449549,8.087419 0.480148,7.727409 -0.6663,7.839195 l -0.990647,0.09659 z"
       style="fill:#575756;stroke-width:0.31999999" />
  </g>
</svg>
