<?xml version="1.0" encoding="UTF-8" standalone="no"?>
<svg
   xmlns:dc="http://purl.org/dc/elements/1.1/"
   xmlns:cc="http://creativecommons.org/ns#"
   xmlns:rdf="http://www.w3.org/1999/02/22-rdf-syntax-ns#"
   xmlns:svg="http://www.w3.org/2000/svg"
   xmlns="http://www.w3.org/2000/svg"
   viewBox="0 0 49.999999 50"
   height="50"
   width="50"
   id="svg2"
   version="1.1">
  <metadata
     id="metadata8">
    <rdf:RDF>
      <cc:Work
         rdf:about="">
        <dc:format>image/svg+xml</dc:format>
        <dc:type
           rdf:resource="http://purl.org/dc/dcmitype/StillImage" />
        <dc:title></dc:title>
      </cc:Work>
    </rdf:RDF>
  </metadata>
  <defs
     id="defs6" />
  <g
     transform="translate(-3.0805886,-78.208443)"
     id="g817">
    <path
       id="path827"
       d="m 7.6538538,127.67593 c -0.4353768,-0.77465 -0.64479,-2.02856 -0.7432895,-4.45061 -0.069242,-1.70272 -0.050889,-2.38163 0.072453,-2.6794 0.090856,-0.21936 0.212053,-0.39883 0.2693192,-0.39883 0.057268,0 0.37089,-0.25926 0.6969406,-0.57616 0.4378573,-0.42554 0.7436717,-0.60208 1.1699137,-0.67534 l 0.5770932,-0.0992 -0.4419222,-0.1563 c -0.5960453,-0.21082 -0.9941194,-0.61827 -1.1996588,-1.22795 -0.4181931,-1.24047 -0.2938929,-6.31702 0.2012177,-8.21787 0.2370747,-0.9102 1.1186157,-2.8106 1.4175245,-3.05586 0.2757423,-0.22626 0.2813629,-0.63474 0.017418,-1.26643 -0.1637495,-0.39191 -0.1740138,-0.57093 -0.052139,-0.9093 0.1327626,-0.36861 0.093949,-0.58718 -0.3101421,-1.74663 C 8.6955767,100.39983 8.0713548,97.578444 7.967786,96.065475 7.9204621,95.374121 7.8053106,94.570298 7.7118988,94.279201 7.4808749,93.559267 7.8854617,89.870214 8.3555406,88.410419 8.5347192,87.853994 8.8724402,86.752337 9.1060322,85.96229 L 9.5307459,84.525842 9.2491537,84.024817 C 8.8977928,83.399655 8.7422773,81.809536 8.9556813,81.024122 9.1308994,80.37925 9.6871862,79.855714 10.396904,79.667753 c 2.09256,-0.554191 4.890646,-0.976032 7.172213,-1.081286 4.821422,-0.222419 18.12789,-0.395002 19.715172,-0.2557 0.836901,0.07345 1.852355,0.153047 2.256562,0.176888 1.046947,0.06175 1.901921,0.511251 2.315831,1.217534 0.487153,0.831261 0.600341,2.54486 0.224257,3.395059 l -0.266981,0.603557 0.384855,1.175884 c 0.599968,1.833144 1.384044,4.657877 1.566193,5.642432 0.111278,0.601453 0.285866,1.045585 0.53353,1.357229 0.524953,0.660567 0.98929,1.916074 1.250892,3.382236 0.185416,1.0392 0.213624,1.788633 0.156885,4.167974 -0.03804,1.59552 -0.127445,3.2582 -0.198657,3.69485 -0.143322,0.8788 -0.476021,2.22273 -0.59986,2.4231 -0.04383,0.0708 0.35826,0.56697 0.893542,1.10232 1.496815,1.49698 2.433764,3.64136 2.745333,6.28319 0.197872,1.67777 0.08782,4.03989 -0.223165,4.78965 -0.251872,0.60725 -0.163649,0.80967 0.355043,0.81459 0.247444,0.002 0.87157,0.58883 0.966875,0.90854 0.03576,0.12 0.216503,0.88373 0.401623,1.69719 0.29681,1.30422 0.336368,1.77331 0.334777,3.96949 -0.0013,1.36977 -0.03382,2.60958 -0.07294,2.75513 -0.07077,0.26323 -0.183071,0.26463 -21.229233,0.26463 H 7.9215542 Z m 1.6532691,-7.99428 c 0.2424068,-0.18952 0.2313854,-0.19882 -0.1960747,-0.16539 -0.2491046,0.0195 -0.4773507,0.10984 -0.5072133,0.20081 -0.075929,0.2313 0.3923099,0.20771 0.703288,-0.0354 z m 8.7581861,-1.20731 c 1.298144,-0.0926 1.359046,-0.13531 1.076474,-0.75548 l -0.147452,-0.32363 -0.463462,0.27345 c -0.254906,0.1504 -0.73932,0.3235 -1.076476,0.38467 -1.480183,0.26855 -1.653134,0.3184 -1.71138,0.49313 -0.04913,0.14741 0.05554,0.16758 0.518399,0.0999 0.318982,-0.0467 1.130736,-0.12406 1.803897,-0.17207 z m 20.599317,-0.29745 c 0.08404,-0.13596 -0.58247,-1.38577 -0.684562,-1.28369 -0.105288,0.10529 -0.282547,1.18842 -0.212926,1.30108 0.08653,0.14001 0.808856,0.12602 0.897488,-0.0174 z M 9.3654919,117.96186 c 0,-0.0879 -0.3565503,-1.49789 -0.628405,-2.48525 -0.3221325,-1.16997 -0.4806092,-1.0968 -0.40007,0.18469 0.068789,1.09454 0.3554551,2.0631 0.6697368,2.26283 0.1855918,0.11794 0.3587382,0.13616 0.3587382,0.0378 z m 9.9018691,-7.48133 c -0.06782,-0.46352 -0.375074,-0.48452 -0.375074,-0.0256 0,0.21225 0.04068,0.4266 0.09042,0.47633 0.152556,0.15256 0.331478,-0.13074 0.284657,-0.45071 z m 9.019404,-1.44802 c -0.256531,-0.16579 -0.396949,-0.16579 -0.396949,0 0,0.0728 0.13397,0.13139 0.297712,0.13028 0.240742,-0.002 0.259732,-0.0266 0.09924,-0.13028 z M 9.7898569,91.307405 c 0.2417201,-0.142619 0.8514271,-0.35484 1.3549021,-0.471604 0.503476,-0.116763 1.246903,-0.351205 1.652059,-0.520982 0.405155,-0.169775 1.629784,-0.488104 2.721395,-0.707398 2.672091,-0.536793 4.805369,-0.601834 13.872327,-0.422941 6.733302,0.132849 7.305706,0.162183 7.938995,0.406871 0.399124,0.154211 1.286821,0.315987 2.137981,0.389629 0.800515,0.06926 1.73831,0.16226 2.083987,0.206664 0.621479,0.07983 0.628504,0.07653 0.628504,-0.295832 0,-0.39529 -0.496442,-2.225512 -1.138125,-4.195896 -0.245976,-0.755308 -0.473628,-1.219826 -0.646262,-1.318686 -0.193689,-0.110918 -1.947859,-0.141606 -6.419241,-0.1123 -4.959279,0.0325 -6.576203,0.08859 -8.335946,0.289143 -4.820317,0.549361 -5.420702,0.576046 -9.394478,0.417527 -2.074062,-0.08273 -3.979421,-0.199648 -4.23413,-0.259802 -0.25471,-0.06016 -0.611965,-0.07394 -0.793901,-0.03064 -0.352019,0.08377 -0.285326,-0.08649 -1.4790469,3.776117 -0.3698247,1.196673 -0.6557987,3.109439 -0.4648858,3.109439 0.042006,0 0.2741451,-0.116687 0.5158656,-0.259306 z M 14.92279,90.438726 c 0.400257,-0.0966 1.352937,-0.272747 2.117064,-0.391425 1.531645,-0.237882 2.094189,-0.491476 0.845828,-0.381296 -1.310921,0.115701 -4.683008,0.874223 -4.683008,1.053405 0,0.0782 0.719812,-0.03925 1.720116,-0.280684 z m 24.875519,0.218621 c 0.568357,-0.0915 0.544297,-0.100588 -0.529267,-0.200036 -0.61858,-0.0573 -1.536982,-0.247927 -2.040894,-0.423609 -0.881814,-0.307434 -1.040745,-0.318668 -4.234132,-0.299286 l -3.317926,0.02013 2.447856,0.113145 c 2.457197,0.113574 3.430665,0.227552 4.167972,0.487999 0.913024,0.32252 2.518667,0.460649 3.506391,0.301651 z"
       style="fill:#9d9f98;stroke-width:0.13231659" />
    <path
       id="path825"
       d="m 8.2884779,127.77867 c -0.5201873,-0.71711 -0.6830172,-1.5568 -0.7456341,-3.84508 -0.039426,-1.44074 -0.00857,-2.4092 0.086809,-2.72765 0.1850116,-0.61752 0.6265408,-1.19075 0.9184683,-1.19246 0.1220729,-8.3e-4 0.5345481,-0.14682 0.9166122,-0.3247 0.5262166,-0.24498 0.6946617,-0.39326 0.6946617,-0.61144 0,-0.25908 0.04989,-0.27987 0.49619,-0.2068 0.272902,0.0447 1.121382,0.14711 1.885511,0.22762 0.764128,0.0805 1.746577,0.20259 2.183223,0.27131 0.436646,0.0687 1.002299,0.10902 1.257008,0.0896 0.25471,-0.0194 0.86365,-0.0345 1.353206,-0.0334 0.602995,9.9e-4 0.911076,-0.0527 0.955142,-0.1676 0.04413,-0.11501 0.353469,-0.16887 0.962336,-0.16755 0.493509,9.8e-4 1.879739,-0.0601 3.080512,-0.13596 1.200774,-0.0759 3.135904,-0.19488 4.30029,-0.26454 1.976014,-0.11822 12.635113,0.0242 15.745673,0.21028 1.331784,0.0797 3.674528,-0.10711 4.532353,-0.36141 0.558354,-0.16551 0.566079,-0.16319 0.966121,0.29066 0.566638,0.64284 1.27899,2.15108 1.530259,3.23994 0.137887,0.59754 0.235759,1.81953 0.277879,3.46951 l 0.06503,2.5471 H 42.33739 c -5.806384,0 -7.427197,-0.0358 -7.479474,-0.16539 -0.05339,-0.13231 -0.06883,-0.13231 -0.07718,0 -0.0082,0.13025 -1.603816,0.16539 -7.508386,0.16539 -4.123866,0 -7.462258,-0.0356 -7.418645,-0.0793 0.04361,-0.0437 -0.266808,-0.3673 -0.689823,-0.71936 -0.811553,-0.67537 -1.098988,-1.19709 -0.922453,-1.67431 0.177487,-0.47979 0.573356,-0.59642 1.752048,-0.51625 2.27248,0.15461 9.031007,0.23282 9.48415,0.10976 l 0.463108,-0.12577 -0.72774,-0.0799 c -1.471825,-0.16162 -10.489968,-0.21228 -10.77495,-0.0605 -0.416901,0.22198 -0.595439,0.5212 -0.600071,1.00569 -0.0035,0.3667 0.136979,0.58206 0.841517,1.29009 l 0.845727,0.84989 -5.509886,-0.004 -5.509886,-0.004 z m 7.2025391,-2.74445 c 0.373368,-0.10367 0.556715,-0.25402 0.715255,-0.58648 0.197552,-0.41428 0.196613,-0.47236 -0.01281,-0.79196 -0.124293,-0.1897 -0.356845,-0.39322 -0.516782,-0.45227 -0.159935,-0.059 -1.527501,-0.1472 -3.039034,-0.19591 l -2.7482437,-0.0886 -0.3281174,0.32812 c -0.6857695,0.68578 -0.1753314,1.64921 0.8897951,1.67946 0.813379,0.0231 4.248067,0.19837 4.405542,0.2248 0.07277,0.0122 0.358247,-0.0406 0.634385,-0.11721 z m 16.070584,-0.0862 c -0.200129,-0.0303 -0.527613,-0.0303 -0.727741,0 -0.200129,0.0303 -0.03639,0.0551 0.36387,0.0551 0.400258,0 0.564,-0.0248 0.363871,-0.0551 z m 14.149716,-0.24773 c 0.308308,-0.42164 0.260834,-1.06847 -0.105956,-1.44379 -0.245521,-0.25121 -0.432389,-0.26458 -3.685977,-0.26368 -3.269829,8.3e-4 -3.444458,0.0137 -3.799664,0.27771 -0.501944,0.37313 -0.570126,1.01964 -0.154227,1.46235 l 0.303175,0.32271 3.634548,-0.0589 c 3.302334,-0.0535 3.65041,-0.0807 3.808101,-0.29633 z M 28.654373,123.9339 c 1.039087,-0.025 1.927262,-0.0833 1.973722,-0.12978 0.04646,-0.0465 -0.148734,-0.0859 -0.433765,-0.0877 -0.285034,-0.002 -0.740062,-0.0546 -1.011175,-0.11765 -0.278261,-0.0646 -1.171429,-0.064 -2.050907,9.9e-4 -0.856886,0.0637 -2.943751,0.13625 -4.637481,0.16121 l -3.079507,0.0454 -0.08428,-0.33578 c -0.0886,-0.35301 0.232861,-1.4264 0.590784,-1.97266 0.112525,-0.17173 0.523508,-0.51624 0.913291,-0.76559 0.639699,-0.40921 0.801932,-0.45335 1.666297,-0.45335 0.52668,0 1.165606,-0.0634 1.419835,-0.14097 0.25423,-0.0775 0.998117,-0.16268 1.653084,-0.18923 0.654966,-0.0266 2.023909,-0.11379 3.04209,-0.19388 1.928165,-0.15166 2.722614,-0.0749 3.57374,0.34575 l 0.39695,0.19615 -0.347081,-0.35299 c -0.517953,-0.52675 -1.876679,-0.69172 -3.985935,-0.48394 -0.891677,0.0879 -1.98948,0.15922 -2.439559,0.15863 -0.450082,-8.4e-4 -1.236233,0.0869 -1.747004,0.19425 -0.510772,0.10745 -1.311753,0.184 -1.77996,0.17012 -0.792468,-0.0234 -0.904882,0.011 -1.627069,0.49932 -0.642958,0.43472 -0.853944,0.68026 -1.232277,1.43407 -0.48514,0.96663 -0.575055,1.63537 -0.269399,2.00366 0.197105,0.2375 0.157227,0.23744 9.495602,0.0135 z m 2.907228,-0.17314 c -0.127355,-0.0333 -0.335753,-0.0333 -0.463108,0 -0.127355,0.0333 -0.02317,0.0605 0.231553,0.0605 0.25471,0 0.35891,-0.0273 0.231555,-0.0605 z m 1.848142,-1.46169 c -0.03041,-0.20113 -0.05611,-0.0679 -0.0571,0.29591 -9.09e-4,0.36385 0.02389,0.52843 0.05529,0.36568 0.03141,-0.16275 0.03222,-0.46046 0.0018,-0.66159 z m 16.778292,1.25519 c -0.03023,-0.091 -0.145846,-0.66545 -0.256905,-1.27664 -0.135811,-0.74738 -0.401072,-1.5206 -0.810129,-2.36147 -0.334509,-0.68762 -0.576148,-1.28228 -0.536971,-1.32146 0.107459,-0.10745 0.712397,0.32539 0.872281,0.62413 0.300574,0.56163 1.061515,4.50085 0.869428,4.50085 -0.04549,0 -0.107466,-0.0745 -0.137704,-0.16541 z M 6.8514764,121.20137 c 0,-0.26189 0.4010824,-1.09425 0.4862407,-1.00909 0.1105472,0.11055 -0.2283605,1.14566 -0.3751026,1.14566 -0.061128,0 -0.1111381,-0.0615 -0.1111381,-0.13657 z m 8.9727196,-2.07088 c 0.09552,-0.0383 0.209638,-0.0335 0.253607,0.0105 0.04396,0.044 -0.03418,0.0753 -0.173666,0.0695 -0.154141,-0.006 -0.185494,-0.0378 -0.07995,-0.0799 z m 1.744926,-0.17425 c 0,-0.0727 0.08931,-0.13231 0.198474,-0.13231 0.109162,0 0.198475,0.0596 0.198475,0.13231 0,0.0728 -0.08931,0.13232 -0.198475,0.13232 -0.109161,0 -0.198474,-0.0596 -0.198474,-0.13232 z m -4.035657,-0.22064 c -1.125328,-0.0933 -3.5748387,-0.46827 -3.781855,-0.57905 -0.2865384,-0.15336 -0.421551,-0.52228 -0.9421018,-2.57439 -0.4810709,-1.89645 -0.5421427,-3.28039 -0.2347283,-5.31909 0.1939223,-1.28604 0.9589201,-3.19064 1.5335091,-3.81796 0.417679,-0.45599 0.468626,-0.47394 1.334293,-0.47013 0.495019,0.002 1.316832,-0.0294 1.82625,-0.0702 0.50942,-0.0408 1.534375,-0.0329 2.277679,0.0175 l 1.351463,0.0917 0.637527,1.01306 c 1.369724,2.17652 1.363869,2.14765 1.287085,6.34809 -0.03549,1.9416 -0.0641,3.6649 -0.06357,3.8296 0.0012,0.38731 -0.767102,0.74381 -2.090484,0.96995 -0.685819,0.11719 -1.004389,0.23553 -1.096269,0.4072 -0.131551,0.24581 -0.547752,0.27717 -2.038795,0.15368 z m 7.0564,-0.40546 c -0.339879,-0.027 -0.683175,-0.1277 -0.762881,-0.22375 -0.07971,-0.096 -0.27126,-0.6735 -0.425674,-1.28326 -0.240451,-0.9495 -0.268784,-1.33221 -0.197384,-2.66605 0.105496,-1.97082 0.389889,-3.23724 0.878405,-3.91163 l 0.378391,-0.52234 3.019883,-0.0856 c 1.660938,-0.0471 3.258056,-0.0778 3.549152,-0.0683 0.291097,0.01 2.434625,0.0266 4.763398,0.0381 l 4.23413,0.0208 0.422904,0.79389 c 0.868565,1.63052 0.988406,2.25821 0.94197,4.93376 -0.03816,2.1987 -0.06422,2.42493 -0.30634,2.65938 -0.255112,0.24704 -0.407485,0.25231 -4.234132,0.1464 -3.007035,-0.0833 -4.627179,-0.0648 -6.681987,0.0758 -2.572772,0.17616 -4.193258,0.20315 -5.579835,0.093 z m 19.76277,-0.0166 c -1.517083,-0.0945 -1.608745,-0.14976 -2.12259,-1.27818 -0.302042,-0.6633 -0.465824,-4.21422 -0.268424,-5.81963 0.18186,-1.47904 0.644045,-3.66975 0.819497,-3.88432 0.102531,-0.12541 0.359649,-0.16182 0.853511,-0.12086 0.587424,0.0487 0.728739,0.0176 0.836833,-0.1844 0.0943,-0.17621 0.283388,-0.24357 0.687746,-0.24501 0.30673,-9.9e-4 0.79586,-0.0879 1.086957,-0.19267 0.638829,-0.23014 1.661343,-0.2536 2.381699,-0.0546 1.04026,0.28733 2.430763,2.32124 2.703282,3.95414 0.208538,1.24955 0.449574,5.33582 0.352805,5.98113 -0.125882,0.83942 -0.555805,1.43005 -1.203655,1.65358 -0.617992,0.21322 -4.0524,0.32017 -6.127661,0.19084 z m 7.463832,-0.39479 c -0.04258,-0.0689 0.01149,-0.33802 0.120163,-0.59809 0.230335,-0.55128 0.278514,-3.06543 0.09291,-4.84792 -0.11805,-1.13367 -0.08919,-1.50916 0.10671,-1.38809 0.43253,0.26731 0.630141,5.35803 0.246204,6.34251 -0.206361,0.52914 -0.425271,0.71928 -0.56598,0.49159 z m -10.727251,-7.2919 c -0.311169,-0.60174 -0.264831,-0.82531 0.160867,-0.77618 0.392555,0.0453 0.50908,0.30882 0.374197,0.84623 -0.107387,0.42787 -0.289936,0.40397 -0.535064,-0.07 z m -17.775169,-0.67641 c 0.03184,-0.0955 0.136036,-0.19971 0.231554,-0.23155 0.09924,-0.0331 0.148855,0.0165 0.115777,0.11578 -0.03184,0.0955 -0.13604,0.19971 -0.231554,0.23155 -0.09924,0.0331 -0.148857,-0.0165 -0.115777,-0.11578 z m 9.70046,-1.00022 c -0.529998,-0.16 -1.016861,-0.18 -2.447858,-0.10052 -1.900065,0.10549 -2.950935,0.11706 -5.48773,0.0605 -1.519223,-0.0339 -1.597639,-0.0496 -1.906515,-0.38293 -0.231628,-0.24993 -0.33504,-0.53446 -0.368094,-1.01275 -0.06967,-1.00805 -0.150104,-1.23447 -0.474675,-1.33604 -0.163574,-0.0512 -0.465716,-0.2338 -0.67143,-0.40578 -0.283998,-0.23743 -0.53375,-0.31269 -1.037661,-0.31269 -0.463287,0 -0.765207,-0.0799 -1.000066,-0.26464 -0.185034,-0.14553 -0.462367,-0.26084 -0.616295,-0.25623 -0.273072,0.008 -0.272638,0.0113 0.01784,0.12805 0.621723,0.2499 0.309696,0.39574 -0.661583,0.30923 -1.055233,-0.0941 -1.228195,-0.15279 -0.788124,-0.26788 0.160565,-0.042 0.291935,-0.12974 0.291935,-0.195 0,-0.0653 -0.223284,-0.0204 -0.496187,0.0997 -0.272903,0.12012 -0.674816,0.24749 -0.893137,0.28303 -0.218323,0.0355 -0.46894,0.12196 -0.556927,0.19204 -0.20919,0.16659 -0.964715,-9.8e-4 -0.964715,-0.21451 0,-0.0908 -0.154139,-0.54449 -0.342533,-1.00812 -0.308418,-0.75902 -0.321582,-0.85831 -0.132161,-0.99682 0.115705,-0.0847 0.374045,-0.12418 0.574089,-0.088 0.200042,0.0363 0.32558,0.0246 0.278971,-0.0259 -0.0466,-0.0505 -0.340848,-0.10328 -0.653866,-0.11732 l -0.569123,-0.0254 -0.3602079,-1.02811 c -0.5870168,-1.67547 -1.1753039,-4.331312 -1.266315,-5.716825 -0.081985,-1.248167 -0.074146,-1.301652 0.2237207,-1.526336 0.2746531,-0.207173 0.3097984,-0.345314 0.318762,-1.252951 0.00955,-0.969466 0.029777,-1.035846 0.4070228,-1.337154 0.4500742,-0.359479 1.3636784,-0.674047 3.3740744,-1.161742 2.337637,-0.567081 4.681325,-0.997142 6.247821,-1.146458 2.823218,-0.269108 16.161386,0.06751 16.810971,0.42426 0.449989,0.247134 1.526861,0.374905 4.044961,0.479939 2.647707,0.110436 2.601355,0.08703 2.748522,1.387809 0.112784,0.996882 0.409506,1.346144 1.042722,1.227351 0.436394,-0.08187 0.438011,-0.08019 0.715342,0.741033 0.252232,0.746906 0.276884,1.105452 0.266365,3.873757 -0.01451,3.817477 -0.07547,4.358067 -0.498324,4.417917 l -0.311449,0.0441 0.278369,0.19498 c 0.33513,0.23474 0.363656,0.84013 0.08832,1.87446 -0.242188,0.90986 -0.370692,1.0508 -0.899059,0.98607 -0.322094,-0.0395 -0.382841,-0.0186 -0.237898,0.0815 0.236605,0.16349 0.203654,0.19259 -0.426197,0.37632 -0.410511,0.11975 -0.496186,0.11187 -0.496186,-0.0456 0,-0.1047 0.13397,-0.2442 0.297712,-0.31003 0.237581,-0.0955 0.249667,-0.12135 0.05983,-0.12804 -0.130829,-0.005 -0.378237,0.14308 -0.549799,0.32818 -0.300122,0.32385 -0.386257,0.33934 -2.276143,0.4097 -1.080318,0.0402 -2.041514,0.1366 -2.135992,0.21418 -0.117244,0.0963 -0.163596,0.45016 -0.14601,1.11461 0.01417,0.53546 0.0022,0.99312 -0.02669,1.01704 -0.02886,0.0239 -0.558577,0.13912 -1.177156,0.25602 -1.659939,0.3137 -6.33758,0.40591 -7.211254,0.14216 z m -5.506168,-5.53391 c 0.246445,-0.0359 0.484615,-0.10538 0.529266,-0.15421 0.04466,-0.0488 -0.20995,-0.0506 -0.565784,-0.004 -0.355835,0.0467 -0.981031,0.0891 -1.389324,0.0941 -0.52885,0.007 -0.666244,0.0413 -0.47772,0.12047 0.252343,0.10599 0.928766,0.086 1.903562,-0.0563 z m -9.511766,-0.0734 c 0.217624,-0.0698 -0.07661,-0.10594 -0.860057,-0.10594 -0.783448,0 -1.077683,0.0362 -0.860058,0.10594 0.181935,0.0582 0.568962,0.10594 0.860058,0.10594 0.291096,0 0.678122,-0.0477 0.860057,-0.10594 z m 7.13224,0.0108 c 0.193509,-0.12251 -0.506722,-0.21387 -2.567318,-0.33499 -0.68338,-0.0402 -0.941297,-0.0218 -0.72774,0.0517 0.181935,0.0626 0.658275,0.12575 1.058532,0.14026 0.400258,0.0145 0.876598,0.0741 1.058532,0.13232 0.456784,0.14628 0.956705,0.15084 1.177994,0.0108 z m 5.636311,-0.14306 c 0.169953,-0.073 -0.256112,-0.11631 -1.190849,-0.12098 -0.985569,-0.005 -1.391403,0.0342 -1.257007,0.12098 0.242979,0.15704 2.082439,0.15704 2.447856,0 z m -12.010487,-0.08 c -0.04396,-0.0439 -0.15809,-0.0486 -0.253607,-0.0104 -0.105553,0.0423 -0.07419,0.0736 0.07994,0.08 0.139484,0.006 0.217634,-0.0255 0.173667,-0.0696 z m 2.020585,-0.0524 c 0,-0.0747 -0.3775,-0.13232 -0.867868,-0.13232 -0.544884,0 -0.837433,0.0492 -0.78609,0.13232 0.04498,0.0728 0.435517,0.13231 0.867867,0.13231 0.43585,0 0.786091,-0.0589 0.786091,-0.13231 z m 12.76855,0 c 0.177461,-0.0761 -0.09752,-0.11679 -0.834787,-0.12301 -0.701457,-0.006 -1.06982,0.0387 -1.017644,0.12301 0.09866,0.15966 1.480899,0.15966 1.852431,0 z m 3.837182,0 c 0.190136,-0.0817 0.05978,-0.11371 -0.463108,-0.11371 -0.522875,0 -0.653244,0.032 -0.463109,0.11371 0.145549,0.0625 0.353947,0.11371 0.463109,0.11371 0.109161,0 0.31756,-0.0512 0.463108,-0.11371 z m 2.778648,0.008 c 0.475165,-0.0983 0.43041,-0.11103 -0.437837,-0.1247 -0.614626,-0.01 -0.9373,0.033 -0.885329,0.11711 0.0967,0.15646 0.589734,0.1593 1.323166,0.008 z m -4.697239,-0.2215 c 0,-0.0279 -0.152371,-0.0507 -0.338601,-0.0507 -0.186231,0 -0.305256,0.0539 -0.2645,0.1199 0.06778,0.1097 0.603101,0.0483 0.603101,-0.0691 z m 9.989902,0.0816 c 0.163012,-0.07 -0.548336,-0.1165 -1.852431,-0.12099 -1.41258,-0.005 -2.05102,0.0354 -1.918591,0.12099 0.243684,0.15749 3.404543,0.15749 3.771022,0 z m 1.653958,-0.26464 0.330792,-0.10593 -0.330792,0.002 c -0.181935,9.8e-4 -0.509419,0.048 -0.727742,0.10348 l -0.396948,0.101 0.396948,0.002 c 0.218323,9.8e-4 0.545807,-0.0452 0.727742,-0.10346 z M 38.442,100.49703 c 0.510745,-0.25552 1.188599,-0.705734 1.506339,-1.000483 l 0.577711,-0.535906 -0.727741,0.5567 c -0.708847,0.542239 -2.158358,1.311629 -2.471485,1.311839 -0.08578,5e-5 -0.249512,-0.0935 -0.363871,-0.20783 -0.11436,-0.11435 -0.207927,-0.15603 -0.207927,-0.0926 0,0.18972 0.302166,0.43286 0.537953,0.43286 0.121216,0 0.638275,-0.20906 1.149021,-0.46457 z m -23.748247,0.24546 c -0.08959,-0.0362 -0.268209,-0.0385 -0.396949,-0.005 -0.12874,0.0336 -0.05545,0.0632 0.162877,0.0659 0.218323,0.003 0.323655,-0.0247 0.234072,-0.061 z m 1.816835,-0.17784 c 0.145549,-0.14555 0.264634,-0.39143 0.264634,-0.54642 0,-0.352706 -0.551458,-2.386458 -0.626693,-2.311222 -0.03045,0.03045 0.06833,0.496152 0.219512,1.03491 0.434908,1.549912 0.361882,1.814702 -0.540868,1.961172 l -0.573593,0.0931 0.496188,0.0165 c 0.336148,0.0113 0.581542,-0.0688 0.76082,-0.24807 z m -2.844805,-0.16068 c -0.218324,-0.15655 -0.688968,-0.586346 -1.045877,-0.955111 -0.366685,-0.378863 -0.530204,-0.497833 -0.375962,-0.273531 0.301756,0.438817 0.85012,0.967232 1.352041,1.302872 0.478317,0.31985 0.535133,0.25942 0.0698,-0.0742 z m 6.715065,-0.065 c -0.163741,-0.0315 -0.431682,-0.0315 -0.595424,0 -0.163742,0.0316 -0.02977,0.0573 0.297713,0.0573 0.327483,0 0.461452,-0.0257 0.297711,-0.0573 z m -1.157769,-0.17125 c -0.145549,-0.0626 -0.353947,-0.11372 -0.463109,-0.11372 -0.125102,0 -0.100645,0.0421 0.06617,0.11372 0.145548,0.0626 0.353947,0.11372 0.463108,0.11372 0.125102,0 0.100645,-0.0421 -0.06617,-0.11372 z m 2.944043,0.0376 c -0.200128,-0.0303 -0.527612,-0.0303 -0.72774,0 -0.20013,0.0303 -0.03639,0.0551 0.36387,0.0551 0.400258,0 0.564,-0.0248 0.36387,-0.0551 z m 3.840679,-0.13372 c -0.270979,-0.0284 -0.747319,-0.0288 -1.058532,-9.1e-4 -0.311215,0.028 -0.0895,0.0512 0.49269,0.0517 0.582193,5.3e-4 0.836821,-0.0223 0.565842,-0.0508 z m 10.711474,-1.190955 c -0.02865,-0.274525 -0.05256,-0.08234 -0.05314,0.427078 -5.37e-4,0.509419 0.02284,0.734027 0.05208,0.499138 0.02922,-0.234892 0.0297,-0.651689 0.0011,-0.926216 z m -18.488571,0.889966 c -0.145549,-0.145549 -0.264633,-0.3341 -0.264633,-0.419002 0,-0.0849 -0.03784,-0.116534 -0.08409,-0.07029 -0.10601,0.10601 0.310004,0.753921 0.484082,0.753921 0.0711,0 0.01017,-0.11908 -0.135367,-0.264631 z m 13.330897,0.16582 c -0.855096,-0.0231 -2.254344,-0.0231 -3.10944,0 -0.855096,0.023 -0.155473,0.04187 1.55472,0.04187 1.710191,0 2.409815,-0.01878 1.55472,-0.04187 z m 2.745569,-0.169277 c 0.176703,-0.07824 0.06679,-0.09102 -0.330791,-0.03845 -0.327484,0.0433 -0.620235,0.100217 -0.650556,0.126475 -0.114936,0.09952 0.72864,0.02387 0.981347,-0.08803 z m 1.007287,-0.500588 c 0.354148,-0.316432 0.422375,-0.478818 0.458646,-1.091612 l 0.04261,-0.719883 -0.109685,0.681273 c -0.133084,0.826624 -0.189801,0.925083 -0.718632,1.247546 -0.228576,0.139378 -0.342103,0.253638 -0.252284,0.253908 0.08982,2.66e-4 0.350524,-0.166783 0.579346,-0.371232 z M 17.791824,98.819314 c -0.04224,-0.105553 -0.0736,-0.07421 -0.07994,0.07995 -0.0057,0.139484 0.02552,0.217632 0.0695,0.173666 0.04396,-0.04396 0.04867,-0.158093 0.01043,-0.253608 z m -6.389113,-1.19912 c -0.401067,-0.798438 -0.523759,-0.961646 -0.385597,-0.512929 0.106323,0.345311 0.591317,1.207592 0.679217,1.207592 0.03043,0 -0.101704,-0.312598 -0.29362,-0.694663 z m 25.439947,0 c -0.03671,-0.09097 -0.06674,-0.01654 -0.06674,0.165396 0,0.181936 0.03003,0.256364 0.06674,0.165396 0.03671,-0.09097 0.03671,-0.239824 0,-0.330792 z M 17.394874,97.496149 c -0.04224,-0.105554 -0.0736,-0.07421 -0.07994,0.07994 -0.0057,0.139482 0.02552,0.217633 0.0695,0.173666 0.04396,-0.04396 0.04866,-0.158093 0.01043,-0.253607 z M 36.97773,97.099198 c -0.04225,-0.105552 -0.0736,-0.0742 -0.07994,0.07995 -0.0057,0.139483 0.02553,0.217633 0.0695,0.173665 0.04396,-0.04396 0.04866,-0.158092 0.01043,-0.253607 z M 16.20127,96.826294 c -0.03671,-0.09097 -0.06675,-0.01654 -0.06675,0.165398 0,0.181934 0.03002,0.256362 0.06675,0.165395 0.03671,-0.09097 0.03671,-0.239824 0,-0.330793 z m 1.37049,-1.120199 c 0.107709,-0.136958 0.06187,-0.108806 -0.101877,0.06256 -0.230091,0.240806 -0.29348,0.452654 -0.279082,0.9327 l 0.01863,0.621127 0.08324,-0.683687 c 0.04578,-0.376026 0.171372,-0.795743 0.279083,-0.932701 z m 18.085798,0.590934 c -0.03154,-0.163742 -0.05734,-0.02976 -0.05734,0.297712 0,0.327484 0.02581,0.461454 0.05734,0.297713 0.03154,-0.163742 0.03154,-0.431683 0,-0.595425 z m 6.792124,0.287828 c 0.151281,-0.296533 0.25669,-0.588157 0.234244,-0.648055 -0.02244,-0.0599 -0.170986,0.182721 -0.33009,0.53915 -0.350372,0.784914 -0.286216,0.85781 0.09585,0.108905 z M 10.914355,95.90008 c -0.03154,-0.163742 -0.05734,-0.02976 -0.05734,0.297712 0,0.327483 0.02581,0.461454 0.05734,0.297712 0.03154,-0.163742 0.03154,-0.431684 0,-0.595424 z M 38.06031,95.089984 c 0.364759,-0.388563 0.406902,-0.474219 0.174397,-0.35446 -0.307432,0.158351 -1.087371,1.259564 -1.077432,1.521253 0.0028,0.07672 0.09907,-0.03914 0.21367,-0.25746 0.114607,-0.218323 0.42482,-0.627522 0.689365,-0.909333 z m -2.72453,0.06864 c -0.25391,-0.342497 -1.162982,-0.942131 -1.425559,-0.940316 -0.07277,5.37e-4 0.165394,0.163265 0.529266,0.361693 0.415326,0.226491 0.735459,0.516341 0.860058,0.778702 0.109161,0.229856 0.220378,0.357656 0.247151,0.284 0.02678,-0.07365 -0.06813,-0.291492 -0.210916,-0.484079 z M 11.807406,94.895623 c -0.09911,-0.111139 -0.602626,0.153278 -0.724103,0.380257 -0.121494,0.227018 -0.09138,0.222999 0.315017,-0.04203 0.247147,-0.161182 0.431236,-0.313379 0.409086,-0.338218 z m 29.650301,0.384756 c -0.04797,-0.07761 -0.187904,-0.134214 -0.310963,-0.125772 -0.201716,0.01384 -0.200947,0.02131 0.0077,0.07587 0.127355,0.03328 0.231554,0.12561 0.231554,0.205177 0,0.07957 0.03573,0.108934 0.07941,0.06526 0.04367,-0.04367 0.04016,-0.142914 -0.0077,-0.220527 z m 1.209636,-0.03362 c -0.04224,-0.105553 -0.0736,-0.07421 -0.07994,0.07995 -0.0057,0.139482 0.02553,0.217634 0.06949,0.173667 0.04396,-0.04396 0.04866,-0.158092 0.01043,-0.253608 z M 15.321362,95.142287 c -0.126687,-0.236718 -0.528025,-0.532299 -0.722753,-0.532299 -0.07234,0 0.743977,0.781691 0.825023,0.790022 0.02076,0.0022 -0.02527,-0.113843 -0.10227,-0.257723 z m 3.637084,-0.003 c 0.166803,-0.07168 0.191261,-0.113718 0.06617,-0.113718 -0.109161,0 -0.31756,0.05117 -0.463109,0.113718 -0.166803,0.07168 -0.19126,0.113717 -0.06617,0.113717 0.10916,0 0.31756,-0.05117 0.463108,-0.113717 z m 0.956539,-0.212259 c -0.04396,-0.04396 -0.158093,-0.04866 -0.253607,-0.01043 -0.105554,0.04225 -0.07421,0.0736 0.07994,0.07994 0.139483,0.0057 0.217633,-0.02553 0.173666,-0.06949 z M 12.505256,94.7947 c -0.04396,-0.04396 -0.158092,-0.04866 -0.253607,-0.01043 -0.105554,0.04224 -0.0742,0.0736 0.07994,0.07994 0.139485,0.0057 0.217634,-0.02553 0.173667,-0.06949 z m 0.862814,-0.140007 c -0.09097,-0.03671 -0.239824,-0.03671 -0.330792,0 -0.09097,0.03671 -0.01654,0.06675 0.165396,0.06675 0.181934,0 0.256363,-0.03003 0.165396,-0.06675 z m 7.737764,0.0076 c -0.04396,-0.04396 -0.158092,-0.04866 -0.253608,-0.01043 -0.105552,0.04224 -0.0742,0.0736 0.07995,0.07994 0.139483,0.0057 0.217632,-0.02553 0.173664,-0.06949 z M 42.13955,94.2679 c -0.204187,-0.175743 -0.501899,-0.314166 -0.661583,-0.307601 -0.214976,0.0088 -0.178333,0.04425 0.141176,0.136482 0.237331,0.06851 0.503019,0.239054 0.590415,0.379 0.08739,0.139946 0.190932,0.222321 0.230074,0.183052 0.03914,-0.03926 -0.0959,-0.215188 -0.300082,-0.390933 z m -20.303218,0.254419 c -0.09097,-0.03671 -0.239825,-0.03671 -0.330793,0 -0.09097,0.03671 -0.01654,0.06675 0.165397,0.06675 0.181935,0 0.256362,-0.03003 0.165396,-0.06675 z m 17.43271,-0.30286 c 0.109161,-0.07411 0.138932,-0.134311 0.06616,-0.133806 -0.07277,5.37e-4 -0.281173,0.122672 -0.463108,0.271487 -0.323373,0.264504 -0.06201,0.173846 0.39695,-0.137681 z m -15.38026,0.167263 c -0.126507,-0.03312 -0.364677,-0.03431 -0.529267,-0.0026 -0.16459,0.03167 -0.06109,0.05876 0.230011,0.06024 0.291096,0.0015 0.425762,-0.02443 0.299256,-0.05755 z m 1.718572,-0.136177 c -0.200129,-0.03032 -0.527612,-0.03032 -0.727741,0 -0.200129,0.03032 -0.03639,0.05513 0.36387,0.05513 0.400259,0 0.564,-0.0248 0.363871,-0.05513 z m 2.910965,-0.128755 c -0.127354,-0.03328 -0.335754,-0.03328 -0.463108,0 -0.127355,0.03328 -0.02317,0.06051 0.231554,0.06051 0.254709,0 0.358909,-0.02724 0.231554,-0.06051 z m 4.961873,0.0036 c -0.09097,-0.03671 -0.239824,-0.03671 -0.330792,0 -0.09097,0.03671 -0.01654,0.06675 0.165396,0.06675 0.181934,0 0.256363,-0.03003 0.165396,-0.06675 z m -3.771024,-0.13586 c -0.127354,-0.03328 -0.335753,-0.03328 -0.463107,0 -0.127356,0.03328 -0.02317,0.06051 0.231554,0.06051 0.25471,0 0.358909,-0.02724 0.231553,-0.06051 z m 2.447857,0.0036 c -0.09097,-0.03671 -0.239824,-0.03671 -0.330791,0 -0.09097,0.03671 -0.01654,0.06675 0.165396,0.06675 0.181934,0 0.256363,-0.03003 0.165395,-0.06675 z m 7.737764,0.0076 c -0.04396,-0.04397 -0.158091,-0.04868 -0.253606,-0.01044 -0.105553,0.04224 -0.07421,0.07359 0.07994,0.07995 0.139482,0.0057 0.217633,-0.02552 0.173664,-0.0695 z m -2.08123,13.92254 c 0,-0.18195 0.05954,-0.3676 0.132317,-0.41257 0.07473,-0.0462 0.132316,0.0622 0.132316,0.24901 0,0.18194 -0.05954,0.36759 -0.132316,0.41258 -0.07474,0.0462 -0.132317,-0.0622 -0.132317,-0.24902 z m -19.780422,-1.08455 c -0.195267,-0.33319 -0.327417,-0.63342 -0.29367,-0.66717 0.110894,-0.11089 0.755871,0.75819 0.755871,1.01851 0,0.37274 -0.06827,0.32084 -0.462201,-0.35134 z m 26.574226,-1.612 c 0.04434,-0.23734 0.151838,-0.81789 0.23884,-1.29009 0.087,-0.47219 0.213959,-0.85854 0.282115,-0.85854 0.129761,0 0.08765,0.37441 -0.178536,1.5878 -0.175034,0.79786 -0.480095,1.29749 -0.342419,0.56083 z m -34.8449215,-0.7514 c 0,-0.17764 0.05526,-0.35714 0.1227898,-0.39887 0.1492457,-0.0923 0.3243397,0.40129 0.2087337,0.58836 -0.1499355,0.24258 -0.3315235,0.1388 -0.3315235,-0.18949 z m 35.3425435,-1.95948 c -0.06147,-0.16374 -0.05821,-0.92291 0.0071,-1.68703 0.06544,-0.76413 0.08023,-2.520643 0.03287,-3.903351 -0.07963,-2.324675 -0.115463,-2.59725 -0.475583,-3.619165 -0.214195,-0.607832 -0.35637,-1.138225 -0.315942,-1.178651 0.04044,-0.04044 0.255799,0.328544 0.478609,0.819937 0.633499,1.397151 0.920398,3.277486 0.920398,6.03224 0,2.97705 -0.281135,4.51218 -0.647569,3.53602 z M 14.85663,84.755679 c -0.07277,-0.0231 -0.970961,-0.115068 -1.995973,-0.20438 -1.335667,-0.116381 -1.938759,-0.122192 -2.128751,-0.02051 -0.403559,0.215978 -0.7825612,0.04998 -1.173333,-0.513904 -0.2927673,-0.422465 -0.3657805,-0.700638 -0.4219978,-1.607779 -0.1121937,-1.810405 0.372365,-2.455156 2.0182968,-2.68553 0.362163,-0.05068 1.343216,-0.241219 2.180118,-0.423397 1.106594,-0.240887 2.189324,-0.361484 3.969498,-0.442135 1.346322,-0.06099 3.519621,-0.172011 4.829556,-0.246704 3.493585,-0.199204 14.942283,-0.231329 16.449278,-0.04615 2.809539,0.345226 3.461795,0.963549 3.46363,3.283432 6.62e-4,0.810307 -0.05156,1.015853 -0.395841,1.558731 -0.218119,0.343937 -0.490351,0.661323 -0.60496,0.705304 -0.114611,0.04397 -0.606003,0.01882 -1.091984,-0.05592 -1.320113,-0.203006 -12.76428,0.0094 -14.644525,0.271921 -2.75484,0.384501 -4.374101,0.490264 -7.343571,0.479654 -1.637418,-0.0058 -3.036666,-0.02953 -3.109441,-0.05263 z"
       style="fill:#ffffff;fill-opacity:1;stroke-width:0.13231659" />
    <path
       id="path823"
       d="m 19.853692,128.00678 c 0.04361,-0.0437 -0.266807,-0.3673 -0.689823,-0.71936 -0.811553,-0.67537 -1.098988,-1.19709 -0.922452,-1.6743 0.196506,-0.53121 0.576877,-0.61772 2.165698,-0.49252 1.725099,0.13595 8.396704,0.12986 10.413814,-0.01 1.614974,-0.11157 2.214857,0.0189 2.568462,0.55856 0.125722,0.19188 0.406635,0.49868 0.624253,0.68179 0.415264,0.34943 0.756633,1.01072 0.756633,1.46573 0,0.26715 -0.04871,0.26889 -7.497939,0.26889 -4.123867,0 -7.462258,-0.0357 -7.418646,-0.0793 z m -0.522708,-4.53577 c -0.0886,-0.35302 0.232861,-1.42641 0.590784,-1.97266 0.112525,-0.17172 0.523508,-0.51625 0.913291,-0.7656 0.639698,-0.4092 0.801932,-0.45334 1.666297,-0.45334 0.52668,0 1.165606,-0.0634 1.419835,-0.14097 0.254229,-0.0775 0.998117,-0.16268 1.653084,-0.18923 0.654966,-0.0266 2.023909,-0.11379 3.04209,-0.19389 1.981414,-0.15584 2.746892,-0.0741 3.639898,0.38881 0.815403,0.42266 0.992374,0.79528 0.992374,2.08951 v 1.14179 l -0.595424,0.17673 c -0.676367,0.20074 -2.730835,0.23148 -3.470058,0.0519 -0.290506,-0.0706 -1.132732,-0.0721 -2.050907,-0.004 -0.856886,0.0637 -2.943751,0.13624 -4.637481,0.16122 l -3.079507,0.0454 -0.08428,-0.33579 z m -3.506788,-4.34052 c 0.09552,-0.0383 0.209638,-0.0335 0.253607,0.0105 0.04396,0.044 -0.03418,0.0753 -0.173666,0.0695 -0.154141,-0.006 -0.185494,-0.0378 -0.07995,-0.0799 z m 1.744926,-0.17425 c 0,-0.0727 0.08931,-0.13231 0.198474,-0.13231 0.109162,0 0.198475,0.0596 0.198475,0.13231 0,0.0728 -0.08931,0.13232 -0.198475,0.13232 -0.109161,0 -0.198474,-0.0596 -0.198474,-0.13232 z m 11.445385,-10.00602 c -0.529998,-0.16 -1.016861,-0.18 -2.447858,-0.10052 -1.900065,0.10549 -2.950935,0.11706 -5.48773,0.0605 -1.519223,-0.0339 -1.597639,-0.0496 -1.906515,-0.38293 -0.231628,-0.24993 -0.33504,-0.53446 -0.368094,-1.01275 -0.06967,-1.00805 -0.150104,-1.23447 -0.474675,-1.33604 -0.163574,-0.0512 -0.465716,-0.2338 -0.67143,-0.40578 -0.28286,-0.23648 -0.534101,-0.31269 -1.03081,-0.31269 -0.445063,0 -0.772362,-0.0844 -1.015301,-0.26153 -0.476813,-0.34783 -1.90635,-0.39783 -2.50617,-0.0877 -0.230656,0.11927 -0.55928,0.21687 -0.730275,0.21687 -0.170994,0 -0.376463,0.0656 -0.456599,0.1457 -0.185833,0.18583 -0.965759,0.0247 -0.965759,-0.19957 0,-0.0908 -0.152638,-0.54078 -0.339197,-0.99991 -0.240457,-0.59178 -0.298075,-0.87589 -0.197931,-0.97604 0.168323,-0.16832 0.832401,-0.14544 1.951913,0.0672 0.642289,0.12203 0.980898,0.11952 1.566829,-0.0115 1.003703,-0.22463 3.413681,-0.27961 4.957382,-0.1131 2.578674,0.27813 3.671826,0.32329 4.498765,0.18587 0.327483,-0.0544 1.250392,-0.12214 2.050907,-0.15046 0.800515,-0.0284 2.050907,-0.0847 2.778648,-0.12526 1.545604,-0.0862 3.370557,-0.11357 5.954246,-0.0896 4.893957,0.0456 6.77697,0.0192 7.333237,-0.1029 0.333169,-0.073 1.035223,-0.20421 1.560124,-0.29131 1.135857,-0.18852 1.362019,-0.0789 1.359604,0.6592 -0.0021,0.57378 -0.326273,1.85314 -0.518669,2.04554 -0.07527,0.0754 -0.464241,0.12169 -0.864375,0.10315 -0.637479,-0.0296 -0.767208,0.009 -1.04823,0.31236 -0.311046,0.33561 -0.379894,0.34826 -2.284927,0.41917 -1.080318,0.0402 -2.041515,0.1366 -2.135992,0.21418 -0.117244,0.0963 -0.163596,0.45015 -0.146009,1.11461 0.01417,0.53546 0.0022,0.99312 -0.02669,1.01704 -0.02886,0.0239 -0.558577,0.13913 -1.177156,0.25602 -1.659938,0.31369 -6.33758,0.4059 -7.211254,0.14214 z m 15.592856,-3.72334 c 0.04434,-0.23734 0.151838,-0.81789 0.23884,-1.29009 0.087,-0.47219 0.213959,-0.85854 0.282115,-0.85854 0.129761,0 0.08765,0.37441 -0.178536,1.5878 -0.175034,0.79786 -0.480095,1.29749 -0.342419,0.56083 z M 9.7624415,104.47539 c 0,-0.17764 0.05526,-0.35714 0.1227898,-0.39887 0.1492457,-0.0923 0.3243397,0.40129 0.2087337,0.58836 -0.1499355,0.24259 -0.3315235,0.1388 -0.3315235,-0.18949 z M 14.4613,100.7324 c -1.355727,-0.20403 -3.577628,-3.164585 -3.48178,-4.639252 0.03408,-0.524251 0.102844,-0.656585 0.469057,-0.902624 0.466157,-0.313189 2.453311,-0.666193 2.990787,-0.531296 0.168864,0.04239 0.614657,0.402333 0.990651,0.799891 0.671802,0.71033 0.683624,0.736996 0.683624,1.541814 0,0.450441 0.126919,1.282103 0.282043,1.848137 0.301052,1.098518 0.264023,1.65619 -0.116955,1.76139 -0.41892,0.11568 -1.415011,0.18252 -1.817427,0.12194 z m 0.108013,-2.745162 c 0.249471,-0.051 0.61811,-0.530082 0.61811,-0.803298 0,-0.157814 -0.510413,-0.03528 -0.577116,0.138543 -0.0419,0.10916 -0.215506,0.198474 -0.385817,0.198474 -0.396752,0 -0.825882,0.311063 -0.70313,0.50968 0.05197,0.08408 0.23969,0.122885 0.417163,0.08623 0.177476,-0.03666 0.461332,-0.095 0.63079,-0.129629 z m 0.330894,-1.571428 c 0.03367,-0.174802 -0.02063,-0.2291 -0.195436,-0.195437 -0.133127,0.02564 -0.263027,0.155538 -0.288667,0.288667 -0.03367,0.174801 0.02063,0.229099 0.195438,0.195435 0.133127,-0.02564 0.263027,-0.155538 0.288665,-0.288665 z m 22.062746,4.20514 c -0.444004,-0.44401 -0.15451,-3.5025 0.440853,-4.657613 0.290931,-0.56446 0.91484,-1.178894 1.63129,-1.606512 0.968949,-0.578326 2.786949,-0.478849 3.216004,0.175971 0.465178,0.709951 0.476458,1.115872 0.05752,2.070364 -0.21629,0.492798 -0.393254,0.976965 -0.393254,1.075929 0,0.323415 -0.403884,0.766242 -0.955531,1.047674 -0.297602,0.151825 -0.844435,0.516979 -1.215185,0.811454 -0.652026,0.517883 -2.09921,1.290333 -2.417834,1.290553 -0.08578,6e-5 -0.249512,-0.0935 -0.363871,-0.20782 z m 3.583686,-3.569835 c 0.243385,-0.185639 0.442518,-0.453579 0.442518,-0.595424 0,-0.141845 -0.02804,-0.257899 -0.06229,-0.257899 -0.182434,0 -1.260878,0.870575 -1.260878,1.017845 0,0.276092 0.401256,0.201129 0.88065,-0.164522 z m 0.823342,-1.502139 c 0.213483,-0.135219 0.08608,-0.409718 -0.190158,-0.409718 -0.104865,0 -0.190666,0.119086 -0.190666,0.264634 0,0.287272 0.09762,0.324462 0.380824,0.145084 z m -22.510138,4.530864 c -0.719422,-0.220234 -0.795266,-0.330709 -1.234491,-1.798152 -0.570358,-1.905554 -0.346486,-2.745566 0.803826,-3.016145 2.785492,-0.655204 3.750534,-0.776236 7.806679,-0.979087 0.87329,-0.04367 2.272538,-0.144663 3.109441,-0.224421 2.067797,-0.197061 4.147627,0.01689 5.093812,0.523978 0.943906,0.505877 1.127648,0.948239 1.163003,2.799952 0.02795,1.463443 0.0246,1.481212 -0.335866,1.792758 -0.628004,0.542756 -1.179781,0.615782 -5.523999,0.731098 -2.292386,0.06085 -5.388593,0.172129 -6.880464,0.247269 -3.251513,0.1638 -3.212058,0.16457 -4.001941,-0.0773 z M 14.85663,84.755679 c -0.07277,-0.0231 -0.970961,-0.115068 -1.995973,-0.20438 -1.335667,-0.116381 -1.938759,-0.122192 -2.128751,-0.02051 -0.403559,0.215978 -0.7825612,0.04998 -1.173333,-0.513904 -0.2927673,-0.422465 -0.3657805,-0.700638 -0.4219978,-1.607779 -0.1121937,-1.810405 0.372365,-2.455156 2.0182968,-2.68553 0.362163,-0.05068 1.343216,-0.241219 2.180118,-0.423397 1.106594,-0.240887 2.189324,-0.361484 3.969498,-0.442135 1.346322,-0.06099 3.519621,-0.172011 4.829556,-0.246704 3.493585,-0.199204 14.942283,-0.231329 16.449278,-0.04615 2.809539,0.345226 3.461795,0.963549 3.46363,3.283432 6.62e-4,0.810307 -0.05156,1.015853 -0.395841,1.558731 -0.218119,0.343937 -0.490351,0.661323 -0.60496,0.705304 -0.114611,0.04397 -0.606003,0.01882 -1.091984,-0.05592 -1.320113,-0.203006 -12.76428,0.0094 -14.644525,0.271921 -2.75484,0.384501 -4.374101,0.490264 -7.343571,0.479654 -1.637418,-0.0058 -3.036666,-0.02953 -3.109441,-0.05263 z"
       style="fill:#e0e0e0;fill-opacity:1;stroke-width:0.13231659" />
    <path
       id="path821"
       d="m 19.853692,128.00678 c 0.04361,-0.0437 -0.266807,-0.3673 -0.689823,-0.71936 -0.811553,-0.67537 -1.098988,-1.19709 -0.922452,-1.6743 0.196506,-0.53121 0.576877,-0.61772 2.165698,-0.49252 1.725099,0.13595 8.396704,0.12986 10.413814,-0.01 1.614974,-0.11157 2.214857,0.0189 2.568462,0.55856 0.125722,0.19188 0.406635,0.49868 0.624253,0.68179 0.415264,0.34943 0.756633,1.01072 0.756633,1.46573 0,0.26715 -0.04871,0.26889 -7.497939,0.26889 -4.123867,0 -7.462258,-0.0357 -7.418646,-0.0793 z m -0.522708,-4.53577 c -0.0886,-0.35302 0.232861,-1.42641 0.590784,-1.97266 0.112525,-0.17172 0.523508,-0.51625 0.913291,-0.7656 0.639698,-0.4092 0.801932,-0.45334 1.666297,-0.45334 0.52668,0 1.165606,-0.0634 1.419835,-0.14097 0.254229,-0.0775 0.998117,-0.16268 1.653084,-0.18923 0.654966,-0.0266 2.023909,-0.11379 3.04209,-0.19389 1.981414,-0.15584 2.746892,-0.0741 3.639898,0.38881 0.815403,0.42266 0.992374,0.79528 0.992374,2.08951 v 1.14179 l -0.595424,0.17673 c -0.676367,0.20074 -2.730835,0.23148 -3.470058,0.0519 -0.290506,-0.0706 -1.132732,-0.0721 -2.050907,-0.004 -0.856886,0.0637 -2.943751,0.13624 -4.637481,0.16122 l -3.079507,0.0454 -0.08428,-0.33579 z m -3.506788,-4.34052 c 0.09552,-0.0383 0.209638,-0.0335 0.253607,0.0105 0.04396,0.044 -0.03418,0.0753 -0.173666,0.0695 -0.154141,-0.006 -0.185494,-0.0378 -0.07995,-0.0799 z m 1.744926,-0.17425 c 0,-0.0727 0.08931,-0.13231 0.198474,-0.13231 0.109162,0 0.198475,0.0596 0.198475,0.13231 0,0.0728 -0.08931,0.13232 -0.198475,0.13232 -0.109161,0 -0.198474,-0.0596 -0.198474,-0.13232 z m 25.107072,-13.58392 c 0.09097,-0.0367 0.239824,-0.0367 0.330791,0 0.09097,0.0367 0.01654,0.0667 -0.165395,0.0667 -0.181936,0 -0.256364,-0.03 -0.165396,-0.0667 z m -28.580383,-0.53501 c 0.163742,-0.0315 0.431682,-0.0315 0.595424,0 0.163742,0.0315 0.02977,0.0573 -0.297712,0.0573 -0.327484,0 -0.461454,-0.0258 -0.297712,-0.0573 z m 7.021048,-1.4525 c 0.09552,-0.0383 0.209639,-0.0335 0.253607,0.0104 0.04396,0.044 -0.03418,0.0753 -0.173664,0.0696 -0.154143,-0.006 -0.185496,-0.0378 -0.07995,-0.08 z m -9.733539,-0.13313 c 0.127356,-0.0333 0.335754,-0.0333 0.463109,0 0.127354,0.0333 0.02316,0.0605 -0.231554,0.0605 -0.254709,0 -0.358909,-0.0273 -0.231555,-0.0605 z m 12.776823,7.9e-4 c 0.09552,-0.0383 0.209636,-0.0335 0.253606,0.0104 0.04396,0.044 -0.03419,0.0753 -0.173666,0.0695 -0.154142,-0.006 -0.185495,-0.0378 -0.07994,-0.08 z m -9.262164,-0.13233 c 0.09552,-0.0383 0.209641,-0.0335 0.253607,0.0104 0.04396,0.044 -0.03418,0.0753 -0.173665,0.0695 -0.15414,-0.007 -0.185494,-0.0378 -0.07995,-0.08 z m 2.174954,-0.004 c 0.20013,-0.0303 0.527613,-0.0303 0.727742,0 0.200129,0.0303 0.03639,0.0551 -0.36387,0.0551 -0.400258,0 -0.564,-0.0248 -0.363872,-0.0551 z m 10.056062,0.004 c 0.127355,-0.0333 0.335753,-0.0333 0.463107,0 0.127355,0.0333 0.02316,0.0605 -0.231554,0.0605 -0.254709,0 -0.358908,-0.0273 -0.231553,-0.0605 z m 6.414404,-0.004 c 0.234892,-0.0293 0.65169,-0.0298 0.926215,-9.9e-4 0.274526,0.0287 0.08234,0.0526 -0.427077,0.0531 -0.509419,5.3e-4 -0.734031,-0.0229 -0.499138,-0.0521 z m -3.50162,-0.13176 c 0.201129,-0.0304 0.498842,-0.0297 0.661583,0.002 0.162743,0.0314 -0.0018,0.0563 -0.36569,0.0553 -0.36387,-9.9e-4 -0.497022,-0.0267 -0.295893,-0.0571 z m 1.323166,0 c 0.201129,-0.0304 0.498842,-0.0297 0.661583,0.002 0.162742,0.0314 -0.0018,0.0563 -0.36569,0.0553 -0.363871,-9.9e-4 -0.497022,-0.0267 -0.295893,-0.0571 z m 5.557297,0 c 0.20113,-0.0304 0.498841,-0.0297 0.661582,0.002 0.162742,0.0314 -0.0018,0.0563 -0.365689,0.0553 -0.363871,-9.9e-4 -0.497022,-0.0267 -0.295893,-0.0571 z m 4.827737,-0.12499 c 0.09097,-0.0367 0.239823,-0.0367 0.330791,0 0.09097,0.0367 0.01654,0.0667 -0.165396,0.0667 -0.181936,0 -0.256363,-0.03 -0.165395,-0.0667 z m 1.786274,-0.26823 c 0.127354,-0.0333 0.335753,-0.0333 0.463107,0 0.127356,0.0333 0.02317,0.0606 -0.231554,0.0606 -0.25471,0 -0.358909,-0.0273 -0.231553,-0.0606 z M 14.4613,100.73233 c -1.355727,-0.20403 -3.577628,-3.164585 -3.48178,-4.639252 0.03408,-0.524251 0.102844,-0.656585 0.469057,-0.902624 0.466157,-0.313189 2.453311,-0.666194 2.990787,-0.531296 0.168864,0.04239 0.614657,0.402333 0.990651,0.799891 0.671802,0.71033 0.683624,0.736996 0.683624,1.541814 0,0.45044 0.126919,1.282101 0.282043,1.848137 0.301052,1.098518 0.264023,1.65619 -0.116955,1.76139 -0.41892,0.11568 -1.415011,0.18252 -1.817427,0.12194 z m 0.108013,-2.745162 c 0.249471,-0.051 0.61811,-0.530084 0.61811,-0.803298 0,-0.157814 -0.510413,-0.03528 -0.577116,0.138543 -0.0419,0.10916 -0.215506,0.198474 -0.385817,0.198474 -0.396752,0 -0.825882,0.311063 -0.70313,0.50968 0.05197,0.08408 0.23969,0.122885 0.417163,0.08623 0.177476,-0.03666 0.461332,-0.09499 0.63079,-0.129627 z m 0.330894,-1.571429 c 0.03367,-0.174801 -0.02063,-0.229099 -0.195436,-0.195436 -0.133127,0.02564 -0.263027,0.155538 -0.288667,0.288666 -0.03367,0.174802 0.02063,0.2291 0.195438,0.195436 0.133127,-0.02564 0.263027,-0.155539 0.288665,-0.288666 z m 22.062746,4.205141 c -0.444004,-0.44401 -0.15451,-3.502502 0.440853,-4.657613 0.290931,-0.56446 0.91484,-1.178894 1.63129,-1.606512 0.968949,-0.578328 2.786949,-0.478849 3.216004,0.175969 0.465178,0.709953 0.476458,1.115874 0.05752,2.070366 -0.21629,0.492798 -0.393254,0.976965 -0.393254,1.075929 0,0.323413 -0.403884,0.766242 -0.955531,1.047673 -0.297602,0.151825 -0.844435,0.51698 -1.215185,0.811454 -0.652026,0.517884 -2.09921,1.290324 -2.417834,1.290554 -0.08578,6e-5 -0.249512,-0.0935 -0.363871,-0.20782 z m 3.583686,-3.569835 c 0.243385,-0.185639 0.442518,-0.453579 0.442518,-0.595425 0,-0.141844 -0.02804,-0.257898 -0.06229,-0.257898 -0.182434,0 -1.260878,0.870575 -1.260878,1.017845 0,0.276091 0.401256,0.201129 0.88065,-0.164522 z m 0.823342,-1.502139 c 0.213483,-0.135219 0.08608,-0.409718 -0.190158,-0.409718 -0.104865,0 -0.190666,0.119086 -0.190666,0.264634 0,0.287272 0.09762,0.324461 0.380824,0.145084 z m -22.510138,4.530854 c -0.719422,-0.220235 -0.795266,-0.33071 -1.234491,-1.798152 -0.570358,-1.905554 -0.346486,-2.745567 0.803826,-3.016145 2.785492,-0.655205 3.750534,-0.776237 7.806679,-0.979087 0.87329,-0.04367 2.272538,-0.144663 3.109441,-0.224421 2.067797,-0.197063 4.147627,0.01689 5.093812,0.523978 0.943906,0.505877 1.127648,0.948238 1.163003,2.799952 0.02795,1.463443 0.0246,1.481212 -0.335866,1.792758 -0.628004,0.542754 -1.179781,0.61578 -5.523999,0.731097 -2.292386,0.06085 -5.388593,0.17213 -6.880464,0.24727 -3.251513,0.1638 -3.212058,0.16456 -4.001941,-0.0773 z M 14.85663,84.755679 c -0.07277,-0.0231 -0.970961,-0.115068 -1.995973,-0.20438 -1.335667,-0.116381 -1.938759,-0.122192 -2.128751,-0.02051 -0.403559,0.215978 -0.7825612,0.04998 -1.173333,-0.513904 -0.2927673,-0.422465 -0.3657805,-0.700638 -0.4219978,-1.607779 -0.1121937,-1.810405 0.372365,-2.455156 2.0182968,-2.68553 0.362163,-0.05068 1.343216,-0.241219 2.180118,-0.423397 1.106594,-0.240887 2.189324,-0.361484 3.969498,-0.442135 1.346322,-0.06099 3.519621,-0.172011 4.829556,-0.246704 3.493585,-0.199204 14.942283,-0.231329 16.449278,-0.04615 2.809539,0.345226 3.461795,0.963549 3.46363,3.283432 6.62e-4,0.810307 -0.05156,1.015853 -0.395841,1.558731 -0.218119,0.343937 -0.490351,0.661323 -0.60496,0.705304 -0.114611,0.04397 -0.606003,0.01882 -1.091984,-0.05592 -1.320113,-0.203006 -12.76428,0.0094 -14.644525,0.271921 -2.75484,0.384501 -4.374101,0.490264 -7.343571,0.479654 -1.637418,-0.0058 -3.036666,-0.02953 -3.109441,-0.05263 z"
       style="fill:#ed0f0b;stroke-width:0.13231659" />
    <path
       id="path819"
       d="m 19.853692,128.00678 c 0.04361,-0.0437 -0.266807,-0.3673 -0.689823,-0.71936 -0.811553,-0.67537 -1.098988,-1.19709 -0.922452,-1.6743 0.196506,-0.53121 0.576877,-0.61772 2.165698,-0.49252 1.725099,0.13595 8.396704,0.12986 10.413814,-0.01 1.614974,-0.11157 2.214857,0.0189 2.568462,0.55856 0.125722,0.19188 0.406635,0.49868 0.624253,0.68179 0.415264,0.34943 0.756633,1.01072 0.756633,1.46573 0,0.26715 -0.04871,0.26889 -7.497939,0.26889 -4.123867,0 -7.462258,-0.0357 -7.418646,-0.0793 z m -0.522708,-4.53577 c -0.0886,-0.35302 0.232861,-1.42641 0.590784,-1.97266 0.112525,-0.17172 0.523508,-0.51625 0.913291,-0.7656 0.639698,-0.4092 0.801932,-0.45334 1.666297,-0.45334 0.52668,0 1.165606,-0.0634 1.419835,-0.14097 0.254229,-0.0775 0.998117,-0.16268 1.653084,-0.18923 0.654966,-0.0266 2.023909,-0.11379 3.04209,-0.19389 1.981414,-0.15584 2.746892,-0.0741 3.639898,0.38881 0.815403,0.42266 0.992374,0.79528 0.992374,2.08951 v 1.14179 l -0.595424,0.17673 c -0.676367,0.20074 -2.730835,0.23148 -3.470058,0.0519 -0.290506,-0.0706 -1.132732,-0.0721 -2.050907,-0.004 -0.856886,0.0637 -2.943751,0.13624 -4.637481,0.16122 l -3.079507,0.0454 -0.08428,-0.33579 z m -3.506788,-4.34052 c 0.09552,-0.0383 0.209638,-0.0335 0.253607,0.0105 0.04396,0.044 -0.03418,0.0753 -0.173666,0.0695 -0.154141,-0.006 -0.185494,-0.0378 -0.07995,-0.0799 z m 1.744926,-0.17425 c 0,-0.0727 0.08931,-0.13231 0.198474,-0.13231 0.109162,0 0.198475,0.0596 0.198475,0.13231 0,0.0728 -0.08931,0.13232 -0.198475,0.13232 -0.109161,0 -0.198474,-0.0596 -0.198474,-0.13232 z m 25.107072,-13.58392 c 0.09097,-0.0367 0.239824,-0.0367 0.330791,0 0.09097,0.0367 0.01654,0.0667 -0.165395,0.0667 -0.181936,0 -0.256364,-0.03 -0.165396,-0.0667 z m -28.580383,-0.53501 c 0.163742,-0.0315 0.431682,-0.0315 0.595424,0 0.163742,0.0315 0.02977,0.0573 -0.297712,0.0573 -0.327484,0 -0.461454,-0.0258 -0.297712,-0.0573 z m 7.021048,-1.4525 c 0.09552,-0.0383 0.209639,-0.0335 0.253607,0.0104 0.04396,0.044 -0.03418,0.0753 -0.173664,0.0696 -0.154143,-0.006 -0.185496,-0.0378 -0.07995,-0.08 z m -9.733539,-0.13313 c 0.127356,-0.0333 0.335754,-0.0333 0.463109,0 0.127354,0.0333 0.02316,0.0605 -0.231554,0.0605 -0.254709,0 -0.358909,-0.0273 -0.231555,-0.0605 z m 12.776823,7.9e-4 c 0.09552,-0.0383 0.209636,-0.0335 0.253606,0.0104 0.04396,0.044 -0.03419,0.0753 -0.173666,0.0695 -0.154142,-0.006 -0.185495,-0.0378 -0.07994,-0.08 z m -9.262164,-0.13233 c 0.09552,-0.0383 0.209641,-0.0335 0.253607,0.0104 0.04396,0.044 -0.03418,0.0753 -0.173665,0.0695 -0.15414,-0.007 -0.185494,-0.0378 -0.07995,-0.08 z m 2.174954,-0.004 c 0.20013,-0.0303 0.527613,-0.0303 0.727742,0 0.200129,0.0303 0.03639,0.0551 -0.36387,0.0551 -0.400258,0 -0.564,-0.0248 -0.363872,-0.0551 z m 10.056062,0.004 c 0.127355,-0.0333 0.335753,-0.0333 0.463107,0 0.127355,0.0333 0.02316,0.0605 -0.231554,0.0605 -0.254709,0 -0.358908,-0.0273 -0.231553,-0.0605 z m 6.414404,-0.004 c 0.234892,-0.0293 0.65169,-0.0298 0.926215,-9.9e-4 0.274526,0.0287 0.08234,0.0526 -0.427077,0.0531 -0.509419,5.3e-4 -0.734031,-0.0229 -0.499138,-0.0521 z m -3.50162,-0.13176 c 0.201129,-0.0304 0.498842,-0.0297 0.661583,0.002 0.162743,0.0314 -0.0018,0.0563 -0.36569,0.0553 -0.36387,-9.9e-4 -0.497022,-0.0267 -0.295893,-0.0571 z m 1.323166,0 c 0.201129,-0.0304 0.498842,-0.0297 0.661583,0.002 0.162742,0.0314 -0.0018,0.0563 -0.36569,0.0553 -0.363871,-9.9e-4 -0.497022,-0.0267 -0.295893,-0.0571 z m 5.557297,0 c 0.20113,-0.0304 0.498841,-0.0297 0.661582,0.002 0.162742,0.0314 -0.0018,0.0563 -0.365689,0.0553 -0.363871,-9.9e-4 -0.497022,-0.0267 -0.295893,-0.0571 z m 4.827737,-0.12499 c 0.09097,-0.0367 0.239823,-0.0367 0.330791,0 0.09097,0.0367 0.01654,0.0667 -0.165396,0.0667 -0.181936,0 -0.256363,-0.03 -0.165395,-0.0667 z m 1.786274,-0.26823 c 0.127354,-0.0333 0.335753,-0.0333 0.463107,0 0.127356,0.0333 0.02317,0.0606 -0.231554,0.0606 -0.25471,0 -0.358909,-0.0273 -0.231553,-0.0606 z M 12.900127,98.8427 c -0.484631,-0.38121 -0.806664,-1.30978 -0.720219,-2.076717 0.121107,-1.07446 1.188814,-1.725854 2.527995,-1.5423 0.477334,0.06542 0.705681,0.185999 1.011155,0.533914 0.344055,0.391857 0.394581,0.550991 0.394581,1.242741 0,0.743642 -0.02981,0.820024 -0.476063,1.219324 -0.979644,0.876597 -2.09297,1.129988 -2.737449,0.623038 z m 1.669186,-0.855462 c 0.249471,-0.051 0.61811,-0.530082 0.61811,-0.803298 0,-0.157814 -0.510413,-0.03528 -0.577116,0.138543 -0.0419,0.10916 -0.215506,0.198474 -0.385817,0.198474 -0.396752,0 -0.825882,0.311063 -0.70313,0.50968 0.05197,0.08408 0.23969,0.122885 0.417163,0.08623 0.177476,-0.03666 0.461332,-0.095 0.63079,-0.129629 z m 0.330894,-1.571428 c 0.03367,-0.174802 -0.02063,-0.2291 -0.195436,-0.195437 -0.133127,0.02564 -0.263027,0.155538 -0.288667,0.288667 -0.03367,0.174801 0.02063,0.229099 0.195438,0.195435 0.133127,-0.02564 0.263027,-0.155538 0.288665,-0.288665 z m 6.065389,2.289977 c -0.966301,-0.760091 -0.567357,-2.375678 0.586637,-2.375678 0.586952,0 0.851296,0.227785 1.055568,0.909583 0.129397,0.431887 0.112449,0.57451 -0.12314,1.036302 -0.391521,0.767444 -0.905086,0.91275 -1.519065,0.429793 z m 18.799553,0.08369 c -0.794147,-0.213653 -1.091373,-0.484555 -1.569107,-1.430135 -0.414966,-0.821343 -0.467567,-1.226985 -0.227446,-1.753992 0.345946,-0.75927 1.751696,-1.197356 2.644763,-0.824207 0.415497,0.173603 0.467738,0.24506 0.407925,0.55795 -0.06096,0.318903 -0.03682,0.34876 0.216943,0.26822 0.23989,-0.07614 0.32019,-0.0097 0.50226,0.415325 0.286223,0.668211 0.286184,1.639548 -7.8e-5,2.07644 -0.179406,0.273812 -1.135767,0.908622 -1.308325,0.868439 -0.02109,-0.0049 -0.321216,-0.08503 -0.666935,-0.17804 z m 0.78149,-1.738355 c 0.243385,-0.185639 0.442518,-0.453579 0.442518,-0.595424 0,-0.141845 -0.02804,-0.257899 -0.06229,-0.257899 -0.182434,0 -1.260878,0.870575 -1.260878,1.017845 0,0.276092 0.401256,0.201129 0.88065,-0.164522 z m -8.650083,1.327863 c -0.603894,-0.422984 -0.513996,-1.924928 0.142749,-2.384931 0.411979,-0.288559 0.72351,-0.236277 1.153352,0.193568 0.333795,0.333794 0.386772,0.486528 0.386772,1.115087 0,0.629212 -0.04745,0.765631 -0.348636,1.002551 -0.411717,0.323857 -0.935779,0.352814 -1.334237,0.07372 z M 24.314536,98.0475 c -0.247295,-0.247295 -0.28319,-0.400364 -0.233732,-0.996753 0.03214,-0.387524 0.13555,-0.797513 0.229807,-0.911086 0.217062,-0.261542 0.849591,-0.2678 1.063118,-0.01051 0.182165,0.219497 0.413907,1.805507 0.284031,1.94387 -0.04592,0.04891 -0.30119,0.128928 -0.567273,0.177795 -0.395264,0.0726 -0.537248,0.03539 -0.775951,-0.203307 z m 4.755951,-0.251725 c -0.673851,-0.673849 -0.477137,-1.464938 0.423873,-1.704614 0.588947,-0.156665 0.74529,-0.06888 0.911888,0.512018 0.184042,0.641714 0.170372,0.717066 -0.212654,1.172267 -0.426283,0.506607 -0.633086,0.510351 -1.123107,0.02033 z M 14.85663,84.755679 c -0.07277,-0.0231 -0.970961,-0.115068 -1.995973,-0.20438 -1.335667,-0.116381 -1.938759,-0.122192 -2.128751,-0.02051 -0.403559,0.215978 -0.7825612,0.04998 -1.173333,-0.513904 -0.2927673,-0.422465 -0.3657805,-0.700638 -0.4219978,-1.607779 -0.1121937,-1.810405 0.372365,-2.455156 2.0182968,-2.68553 0.362163,-0.05068 1.343216,-0.241219 2.180118,-0.423397 1.106594,-0.240887 2.189324,-0.361484 3.969498,-0.442135 1.346322,-0.06099 3.519621,-0.172011 4.829556,-0.246704 3.493585,-0.199204 14.942283,-0.231329 16.449278,-0.04615 2.809539,0.345226 3.461795,0.963549 3.46363,3.283432 6.62e-4,0.810307 -0.05156,1.015853 -0.395841,1.558731 -0.218119,0.343937 -0.490351,0.661323 -0.60496,0.705304 -0.114611,0.04397 -0.606003,0.01882 -1.091984,-0.05592 -1.320113,-0.203006 -12.76428,0.0094 -14.644525,0.271921 -2.75484,0.384501 -4.374101,0.490264 -7.343571,0.479654 -1.637418,-0.0058 -3.036666,-0.02953 -3.109441,-0.05263 z"
       style="fill:#535150;stroke-width:0.13231659" />
  </g>
</svg>
