<?xml version="1.0" encoding="UTF-8" standalone="no"?>
<svg
   xmlns:dc="http://purl.org/dc/elements/1.1/"
   xmlns:cc="http://creativecommons.org/ns#"
   xmlns:rdf="http://www.w3.org/1999/02/22-rdf-syntax-ns#"
   xmlns:svg="http://www.w3.org/2000/svg"
   xmlns="http://www.w3.org/2000/svg"
   viewBox="0 0 50 50"
   height="50"
   width="50"
   id="svg2"
   version="1.1">
  <metadata
     id="metadata8">
    <rdf:RDF>
      <cc:Work
         rdf:about="">
        <dc:format>image/svg+xml</dc:format>
        <dc:type
           rdf:resource="http://purl.org/dc/dcmitype/StillImage" />
        <dc:title></dc:title>
      </cc:Work>
    </rdf:RDF>
  </metadata>
  <defs
     id="defs6" />
  <g
     transform="translate(0.2885924,-46.464297)"
     id="g817">
    <path
       id="path829"
       d="m 4.3145574,95.842747 c 0,-0.807211 -0.6246254,-4.111457 -1.2456385,-6.589383 C 2.2971209,86.173789 2.0521769,74.63535 2.7194293,72.790169 2.8644956,72.389011 3.2452833,71.770681 3.5656241,71.416102 3.8859648,71.061524 4.148062,70.71262 4.148062,70.640763 c 0,-0.07185 -0.3778976,-0.50245 -0.8397722,-0.956869 -0.9655743,-0.94999 -2.36389282,-2.908603 -2.81688422,-3.945588 -0.1705902,-0.390514 -0.4360122,-1.59037 -0.5898266,-2.666346 -0.2624044,-1.835596 -0.2622154,-2.077048 0.003061,-3.912643 0.1554983,-1.075977 0.3887734,-2.161701 0.5183891,-2.412719 0.5173452,-1.001911 2.70151762,-3.394605 3.37669732,-3.699069 1.0757302,-0.485086 2.0518676,-1.539256 2.7359967,-2.954712 0.9795774,-2.026735 0.8954905,-1.99413 5.8480099,-2.267617 2.292531,-0.126598 4.954929,-0.249459 5.91644,-0.273025 0.961512,-0.02357 2.085355,-0.126361 2.497432,-0.228431 0.412076,-0.10207 1.185997,-0.187413 1.719824,-0.189651 0.533827,-0.0022 1.657672,-0.07549 2.497431,-0.162803 0.839761,-0.08731 3.633913,-0.244868 6.209228,-0.350145 5.129231,-0.209676 5.000543,-0.225788 6.056564,0.758293 1.059392,0.987223 2.168623,1.736821 2.836025,1.916533 0.463558,0.124824 0.733589,0.323098 0.913286,0.670592 0.293271,0.567122 0.912561,0.686334 0.912561,0.175665 0,-0.283253 0.115975,-0.313922 1.069576,-0.282847 1.024335,0.03338 1.099119,0.0653 1.767963,0.754494 0.94702,0.975839 1.503178,2.296721 2.213527,5.257157 1.01874,4.245672 1.028424,8.93196 0.02201,10.649282 l -0.412115,0.70322 0.351164,0.317584 c 0.615905,0.557012 0.943086,1.444417 1.130682,3.066717 0.635698,5.497424 0.902704,9.113515 1.032531,13.983657 0.138225,5.185161 0.295337,8.171297 0.567204,10.780579 0.106787,1.024888 0.08751,1.207093 -0.127672,1.207093 -0.323962,0 -0.455099,-0.349977 -0.457398,-1.22071 -0.0027,-1.0343 -0.185726,-1.949339 -0.367387,-1.837066 -0.151134,0.0934 -0.04816,2.092633 0.142453,2.765814 0.07805,0.275665 -1.077515,0.290771 -22.239083,0.290732 l -22.321421,-4.1e-5 z"
       style="fill:#a5a69f;stroke-width:0.16649541" />
    <path
       id="path827"
       d="m 4.3145574,96.339246 c 0,-0.131954 0.074923,-0.286222 0.1664954,-0.342817 0.091572,-0.05659 0.1664954,0.01155 0.1664954,0.151444 0,0.15768 0.094915,0.217921 0.2497431,0.158509 0.1373587,-0.05271 0.2497432,-0.0129 0.2497432,0.08847 0,0.101371 -0.1873073,0.18431 -0.4162386,0.18431 -0.2514163,0 -0.4162385,-0.09501 -0.4162385,-0.239917 z M 5.1610955,95.954805 C 5.0701974,95.611409 4.9061068,94.955833 4.79645,94.49797 4.6867934,94.040108 4.5202723,93.365802 4.4264033,92.999511 4.3325341,92.633221 4.2701757,92.273715 4.2878288,92.200606 4.305482,92.127499 4.1324187,91.303346 3.9032436,90.369157 3.1596808,87.338163 3.1452615,87.15674 3.1529191,80.928593 c 0.00748,-6.088976 0.087698,-7.208388 0.5854961,-8.171022 0.1469845,-0.284238 0.2252202,-0.626307 0.1738572,-0.760157 -0.05231,-0.136319 -0.020992,-0.198623 0.071201,-0.141642 0.090524,0.05594 0.1645885,0.03126 0.1645885,-0.05485 0,-0.08611 0.206038,-0.372083 0.4578623,-0.635493 0.2518244,-0.263411 0.3866856,-0.422148 0.2996918,-0.352748 -0.2509624,0.200212 -0.4245633,0.147609 -0.4245633,-0.128642 0,-0.140157 -0.2630057,-0.485752 -0.5844573,-0.767991 C 3.1876095,69.29355 1.436326,66.995862 0.96160628,66.065334 c -0.7003132,-1.372728 -1.3617486,-5.429904 -1.0076505,-6.180824 0.090924,-0.192818 0.2798621,-0.973144 0.4198626,-1.734059 0.2404633,-1.306938 0.3081577,-1.444535 1.22354182,-2.487 0.5329473,-0.606935 1.0457551,-1.257305 1.1395729,-1.445267 0.093818,-0.187961 0.5434377,-0.529808 0.9991559,-0.759661 1.1770371,-0.593667 2.0465175,-1.536661 2.9094045,-3.155393 1.1197005,-2.100501 1.0315292,-2.062532 5.1284815,-2.208461 1.895318,-0.06751 4.045416,-0.188166 4.777996,-0.26813 0.73258,-0.07996 1.714512,-0.113042 2.182071,-0.0735 0.467559,0.03953 1.141866,-0.012 1.498459,-0.114512 0.356594,-0.102515 2.409041,-0.295755 4.560994,-0.429424 2.151953,-0.133667 4.399641,-0.317313 4.994862,-0.4081 0.595222,-0.09079 2.232734,-0.192428 3.63892,-0.225869 l 2.556697,-0.0608 1.399712,1.220407 c 1.46501,1.277341 2.165377,1.726228 2.693315,1.726228 0.334889,0 0.86655,0.48578 0.86655,0.791769 0,0.100549 0.215311,0.290227 0.478471,0.421508 0.50939,0.254116 1.019988,0.114255 1.019988,-0.279391 0,-0.148425 0.249839,-0.209858 0.806537,-0.198319 0.748795,0.01552 0.856354,0.07427 1.50232,0.82063 0.892216,1.030873 1.082348,1.495866 1.848582,4.520886 0.502695,1.984594 0.657735,2.967262 0.75502,4.785429 0.100553,1.879255 0.07887,2.355155 -0.121384,2.663926 -0.134095,0.206763 -0.410371,0.900391 -0.613948,1.541398 -0.203579,0.641007 -0.547562,1.437501 -0.764409,1.769988 -0.389878,0.597789 -0.3907,0.60835 -0.07373,0.94857 0.187805,0.201584 0.25229,0.386224 0.155729,0.445903 -0.09064,0.05601 -0.164802,0.01809 -0.164802,-0.08429 0,-0.102381 -0.06888,-0.143575 -0.153072,-0.09154 -0.08419,0.05204 -0.252767,3.33e-4 -0.374615,-0.115045 -0.25452,-0.240856 -0.787525,-0.274246 -1.104924,-0.06922 -0.11957,0.07724 -0.663575,0.15922 -1.208901,0.182179 -1.310708,0.05519 -1.48419,0.260121 -0.2202,0.260121 0.600737,0 1.126836,-0.09607 1.33869,-0.244458 0.311156,-0.217944 0.376279,-0.213429 0.60038,0.04163 0.517276,0.588717 0.935669,1.680487 1.449541,3.782486 0.291025,1.190443 0.57206,2.276825 0.624526,2.414184 0.05246,0.137359 0.106032,0.362127 0.119038,0.499486 0.162811,1.719469 0.347278,2.72592 0.533809,2.91245 0.263161,0.263161 0.304365,0.484814 0.06231,0.335219 -0.274483,-0.169639 0.01704,1.936361 0.356752,2.577205 l 0.307598,0.580269 v -0.59007 c 0,-0.324538 -0.110001,-0.735505 -0.244448,-0.913259 -0.282793,-0.373886 -0.330803,-0.639412 -0.08854,-0.489685 0.209608,0.129545 0.223389,0.325673 -0.166136,-2.364563 -0.182946,-1.26352 -0.638217,-3.458614 -1.011711,-4.877987 -0.373495,-1.419374 -0.716592,-2.733815 -0.762441,-2.92098 -0.04744,-0.193666 0.05218,-0.507686 0.231195,-0.728758 0.46517,-0.574458 0.943276,-0.339577 1.438167,0.706538 0.429456,0.907794 0.467158,1.161813 1.116402,7.521823 0.384749,3.769 0.609769,11.142598 0.345032,11.306213 -0.09958,0.06155 -0.213125,-0.26585 -0.281217,-0.810832 -0.06438,-0.515281 -0.251319,-1.072149 -0.428499,-1.276439 -0.384965,-0.443868 -0.388506,-0.586519 0.04902,1.974257 0.281747,1.649036 0.357751,2.724505 0.338539,4.790362 -0.01362,1.46516 0.03511,3.094733 0.108303,3.621275 l 0.133078,0.957349 H 37.710646 26.541697 l -0.01796,-0.374615 c -0.0238,-0.496435 -0.506667,-3.293343 -0.927011,-5.369477 -0.345789,-1.707901 -0.643555,-6.716739 -0.474855,-7.987756 l 0.08786,-0.661957 2.16444,-0.453121 c 1.190442,-0.249217 2.988593,-0.533841 3.99589,-0.6325 3.756465,-0.36792 4.773186,-0.850935 5.502804,-2.614226 0.434549,-1.050189 0.475493,-1.339625 0.5387,-3.808303 0.05091,-1.988335 3.32e-4,-3.035048 -0.197752,-4.092113 -0.146385,-0.781208 -0.266155,-1.462226 -0.266155,-1.513372 0,-0.05115 0.338603,-0.143769 0.752451,-0.205828 0.413849,-0.06206 0.709119,-0.182951 0.656157,-0.268649 -0.131158,-0.212218 -1.149373,-0.184206 -2.157838,0.05937 -0.770221,0.186029 -0.832298,0.238419 -0.830085,0.700551 0.0014,0.274718 0.151162,0.720883 0.332992,0.991475 0.301007,0.447952 0.330598,0.775816 0.330598,3.662899 0,2.912397 -0.02968,3.234512 -0.364099,3.951036 -0.581625,1.2462 -1.152702,1.495752 -4.131278,1.805307 -0.915724,0.09517 -2.564029,0.355258 -3.662899,0.577974 -2.654716,0.538054 -5.079826,0.751124 -8.408019,0.738724 l -2.747174,-0.01024 -1.149175,-0.780479 c -1.31689,-0.894388 -1.797715,-1.618272 -2.635785,-3.968182 -0.466598,-1.308319 -0.526769,-1.68292 -0.534834,-3.329621 -0.0073,-1.481218 0.0453,-1.917771 0.260541,-2.164441 0.148295,-0.169945 0.306989,-0.517681 0.352653,-0.772749 0.118153,-0.659969 -0.358101,-0.891211 -1.270669,-0.616967 -0.375967,0.112984 -0.758499,0.227878 -0.850071,0.255318 -0.09157,0.02744 0.01009,0.05581 0.225932,0.06303 0.312808,0.01048 0.36485,0.07226 0.256499,0.304512 -0.07476,0.160252 -0.162361,1.302826 -0.194667,2.539055 -0.05602,2.143884 -0.03493,2.320286 0.456615,3.819634 0.482487,1.471711 1.312443,3.315228 1.71292,3.804776 0.0969,0.11845 0.782413,0.642911 1.523367,1.165468 l 1.347187,0.950111 h 4.162387 4.162385 l 0.112123,3.413156 c 0.08057,2.452663 0.207833,3.858264 0.452237,4.994863 0.187061,0.869939 0.453479,2.293475 0.592039,3.163413 0.138558,0.869939 0.323168,1.825207 0.410241,2.122817 l 0.158318,0.54111 H 15.797537 5.3263648 Z M 48.198944,83.672 c -0.310025,-0.473157 -0.335765,-0.643846 -0.07257,-0.48118 0.242347,0.149779 0.100741,-1.580352 -0.142321,-1.738864 -0.09035,-0.05892 -0.213626,-0.219509 -0.273955,-0.356867 -0.06033,-0.137359 -0.07156,0.229516 -0.02496,0.815277 0.0466,0.58576 0.08473,1.34837 0.08473,1.694684 0,0.377151 0.116849,0.74708 0.291367,0.922447 0.277928,0.279276 0.29388,0.27554 0.345833,-0.08098 0.02996,-0.205571 -0.06369,-0.554102 -0.208119,-0.774517 z M 16.468589,79.555006 c -3.33e-4,-0.411395 -0.606254,-1.79392 -0.731436,-1.668736 -0.07038,0.07038 -0.08327,-0.09665 -0.02864,-0.371174 0.07808,-0.392341 0.06568,-0.427893 -0.05801,-0.166154 -0.09645,0.204098 -0.161882,0.241692 -0.169054,0.09713 -0.0065,-0.129727 -0.04679,-0.200777 -0.08968,-0.157888 -0.0821,0.08209 0.45523,1.975972 0.650056,2.291206 0.153633,0.248586 0.426929,0.232976 0.426762,-0.02438 z m 3.996025,-0.624358 c 0.189107,-0.122211 0.108258,-0.16649 -0.33299,-0.182376 -0.320505,-0.01154 -0.759729,-0.0063 -0.976055,0.01182 -0.216326,0.01804 -0.349208,-0.03858 -0.295293,-0.125816 0.05391,-0.08724 -0.05406,-0.296248 -0.23995,-0.464473 -0.275724,-0.249529 -0.317652,-0.426176 -0.227623,-0.959049 0.0776,-0.4593 0.05554,-0.6193 -0.07433,-0.539037 -0.228871,0.141451 -0.240597,1.091235 -0.02062,1.669828 0.247967,0.652205 1.52992,1.000728 2.166861,0.589104 z m 0.860992,-0.442043 c 0.33449,-0.30271 0.397473,-0.55693 0.13798,-0.55693 -0.09157,0 -0.147765,0.09365 -0.124871,0.208121 0.02289,0.114465 -0.07076,0.218206 -0.208119,0.230537 -0.137359,0.01234 -0.39959,0.03632 -0.582734,0.05333 l -0.332991,0.0309 0.332991,0.143091 c 0.457434,0.196566 0.436849,0.199453 0.777744,-0.109052 z m 3.134898,-0.622363 c 0,-0.127563 -0.111289,-0.274636 -0.247307,-0.326831 -0.206854,-0.07938 -0.21392,-0.04144 -0.04319,0.23193 0.242319,0.388016 0.290504,0.403757 0.290504,0.0949 z m 2.389233,-0.01204 c 0.169421,-0.128353 0.261852,-0.308101 0.205403,-0.39944 -0.05645,-0.09133 -0.01491,-0.220283 0.0923,-0.286545 0.12927,-0.07989 0.154068,-0.04171 0.07362,0.113367 -0.06673,0.128614 -8.33e-4,0.08487 0.146532,-0.09722 0.194799,-0.240772 0.212704,-0.349454 0.06564,-0.398473 -0.111212,-0.03707 -0.372614,0.146309 -0.580888,0.407511 -0.332967,0.41758 -0.434874,0.455268 -0.844151,0.312191 -0.381527,-0.133375 -0.474809,-0.275063 -0.517242,-0.785657 -0.04327,-0.520625 0.01142,-0.648285 0.332991,-0.777267 0.211619,-0.08488 0.309838,-0.160224 0.218266,-0.167432 -0.09157,-0.0072 -0.05411,-0.08573 0.08325,-0.174499 0.197691,-0.127757 0.162989,-0.161395 -0.166495,-0.161395 -0.228931,0 -0.511261,0.06031 -0.627399,0.134027 -0.461678,0.293035 -0.565491,1.763156 -0.119493,1.692156 0.0857,-0.01365 0.186157,0.06616 0.223219,0.177351 0.04268,0.128031 -0.01102,0.153701 -0.146434,0.07001 -0.137184,-0.08479 -0.172852,-0.06586 -0.09952,0.0528 0.06287,0.101722 0.23658,0.138026 0.386028,0.08068 0.172984,-0.06638 0.230808,-0.03807 0.159125,0.07792 -0.100432,0.162503 0.169386,0.309591 0.640707,0.349277 0.09157,0.0078 0.305113,-0.091 0.474536,-0.219352 z m -1.556755,-1.89026 c 0,-0.201217 0.315874,-0.435816 0.431339,-0.320353 0.04191,0.04191 -0.03801,0.170967 -0.177573,0.286801 -0.158234,0.131324 -0.253766,0.143956 -0.253766,0.03356 z M 20.031669,77.141 c 0.049,-0.160348 0.05981,-0.441389 0.02401,-0.624534 -0.03579,-0.183145 -0.07081,-0.414618 -0.07781,-0.514385 -0.01493,-0.212774 -0.736035,-0.568958 -1.144416,-0.565286 -0.22258,0.002 -0.23497,0.03332 -0.05764,0.145683 0.157473,0.09978 0.17008,0.17763 0.04163,0.257021 -0.101348,0.06264 -0.184269,0.236167 -0.184269,0.385625 0,0.227484 0.03902,0.219104 0.239567,-0.05146 0.21276,-0.287026 0.267138,-0.295245 0.485967,-0.07344 0.345832,0.350524 0.398539,1.06355 0.104917,1.419322 -0.230305,0.279051 -0.222177,0.286542 0.115622,0.106572 0.199837,-0.106467 0.40343,-0.324771 0.452431,-0.485121 z m 13.320132,0.264964 c -0.08161,-0.132046 -0.0061,-0.163163 0.239916,-0.09884 0.197464,0.05164 0.359026,0.02598 0.359026,-0.05702 0,-0.135901 -0.522898,-0.231661 -0.894527,-0.163816 -0.07991,0.01458 -0.105104,-0.07821 -0.05598,-0.206227 0.04912,-0.128014 -0.05358,-0.449499 -0.22822,-0.714414 -0.174644,-0.264913 -0.31803,-0.383586 -0.318632,-0.263716 -6.77e-4,0.11987 -0.06674,0.177375 -0.146969,0.127789 -0.08023,-0.04959 -0.05241,0.181696 0.06182,0.513953 0.114224,0.332261 0.385904,0.702906 0.603734,0.823658 0.494145,0.273929 0.527353,0.277305 0.379844,0.03862 z m -9.568982,-0.820125 c 0.0065,-0.05342 -0.103904,-0.09712 -0.245204,-0.09712 -0.153111,0 -0.220379,0.09519 -0.166495,0.23561 0.04973,0.129586 0.09568,0.323137 0.102114,0.430114 0.01039,0.172575 0.279933,-0.322493 0.309585,-0.568602 z m 4.950013,0.388489 c -0.262359,-0.967718 -0.283297,-1.230982 -0.08832,-1.110481 0.140426,0.08679 0.167669,0.03644 0.08992,-0.166162 -0.06135,-0.159871 -0.111542,-0.497852 -0.111542,-0.751068 0,-0.253216 -0.159315,-0.640433 -0.354033,-0.860484 l -0.354031,-0.400089 0.120501,0.832476 c 0.06627,0.457863 0.160241,0.897006 0.208811,0.975874 0.04857,0.07887 0.109802,0.431555 0.136069,0.783753 0.04644,0.62278 0.174611,0.987548 0.346975,0.987548 0.04655,0 0.0491,-0.131115 0.0057,-0.291367 z M 15.880787,75.738655 c 0.0626,-0.12164 -0.03798,-0.04892 -0.223507,0.161588 -0.201006,0.228071 -0.294392,0.494642 -0.231083,0.659624 0.08421,0.219452 0.130564,0.18594 0.223508,-0.161589 0.06449,-0.241153 0.168481,-0.537983 0.231082,-0.659623 z m 14.05575,0.331935 c 0.06069,0.0982 0.237234,-0.05086 0.40364,-0.340808 0.233483,-0.40682 0.241583,-0.470377 0.03847,-0.301808 -0.301471,0.2502 -0.350575,-3.33e-4 -0.05751,-0.293421 0.109886,-0.109888 0.146247,-0.199794 0.0808,-0.199794 -0.151988,0 -0.782909,1.02809 -0.766314,1.248714 0.0069,0.09157 0.05314,0.06436 0.102779,-0.06046 0.05795,-0.145741 0.128859,-0.164501 0.198128,-0.05242 z m -3.311593,-0.13686 c 0,-0.09157 -0.03304,-0.166495 -0.07343,-0.166495 -0.04038,0 -0.119726,0.07493 -0.176322,0.166495 -0.05659,0.09157 -0.02355,0.166496 0.07343,0.166496 0.09698,0 0.176321,-0.07493 0.176322,-0.166496 z m -2.691206,-0.93606 c 0.150344,-0.109933 0.325191,-0.167839 0.388554,-0.128679 0.06337,0.03916 0.159064,1.66e-4 0.21267,-0.08651 0.249625,-0.403901 -0.264744,-0.292091 -0.752546,0.163583 -0.472119,0.441027 -0.565586,0.473533 -0.695265,0.24181 -0.09926,-0.177364 -0.265065,-0.231136 -0.491304,-0.159331 -0.246269,0.07816 -0.305997,0.05096 -0.214209,-0.09755 0.08272,-0.133836 0.04629,-0.178941 -0.104022,-0.128835 -0.421208,0.140403 -0.261828,0.551917 0.195866,0.505724 0.239574,-0.02418 0.568601,0.09256 0.74923,0.265819 0.314105,0.301297 0.323496,0.300466 0.379871,-0.03361 0.03179,-0.1884 0.18081,-0.43249 0.331155,-0.542424 z m 8.344419,0.255819 c -0.102213,-0.190988 -0.22791,-0.305184 -0.279326,-0.253766 -0.05142,0.05142 0.0014,0.207678 0.117123,0.347249 0.299328,0.360669 0.380286,0.314009 0.162203,-0.09348 z m -15.143451,0.01426 c 0,-0.09157 -0.0705,-0.166495 -0.15667,-0.166495 -0.08617,0 -0.202974,0.07493 -0.259569,0.166495 -0.05659,0.09157 0.0139,0.166496 0.156669,0.166496 0.142763,0 0.25957,-0.07493 0.25957,-0.166496 z m 0.832476,-0.176322 c 0,-0.08617 -0.07493,-0.156668 -0.166495,-0.156668 -0.09157,0 -0.166495,0.116806 -0.166495,0.259568 0,0.142765 0.07493,0.213264 0.166495,0.15667 0.09157,-0.05659 0.166495,-0.173402 0.166495,-0.25957 z m -2.330935,-0.739406 c 0,-0.511519 -0.07009,-0.749229 -0.220907,-0.749229 -0.15193,0 -0.200058,0.168963 -0.154135,0.54111 0.146042,1.183489 0.375042,1.310567 0.375042,0.208119 z m 12.820148,-0.915724 c 0,-0.359108 -0.07954,-0.499487 -0.283043,-0.499487 -0.220143,0 -0.238643,0.04439 -0.08324,0.199794 0.109887,0.109888 0.199793,0.334656 0.199793,0.499487 0,0.16483 0.03746,0.299692 0.08325,0.299692 0.04579,0 0.08325,-0.224769 0.08325,-0.499486 z M 16.21898,72.770318 c -0.05659,-0.09157 -0.20644,-0.166495 -0.33299,-0.166495 -0.12655,0 -0.276396,0.07493 -0.332991,0.166495 -0.05859,0.09481 0.0848,0.166496 0.332991,0.166496 0.248197,0 0.391582,-0.07169 0.33299,-0.166496 z m 3.205037,-2.945192 c -0.160252,-0.04188 -0.422481,-0.04188 -0.582733,0 -0.160252,0.04188 -0.02914,0.07614 0.291367,0.07614 0.320503,0 0.451619,-0.03427 0.291366,-0.07614 z m 8.96525,-0.09559 c 0.291446,-0.291446 -0.19437,-0.307466 -1.961844,-0.06469 l -1.883671,0.258737 1.861445,-0.03571 c 1.023794,-0.01964 1.916626,-0.0909 1.98407,-0.158337 z m -11.629176,-0.0709 c -0.160252,-0.04188 -0.422482,-0.04188 -0.582734,0 -0.160251,0.04188 -0.02913,0.07614 0.291366,0.07614 0.320505,0 0.451619,-0.03426 0.291368,-0.07614 z M 40.731964,68.00786 c -0.05533,-0.05533 -0.198929,-0.06124 -0.319117,-0.01313 -0.132819,0.05315 -0.09336,0.0926 0.100591,0.100589 0.175514,0.0073 0.273851,-0.03213 0.218526,-0.08744 z M 17.693282,62.291467 c 0.776582,-0.332883 1.439369,-0.877927 1.439369,-1.183669 0,-0.09589 -0.280961,0.04549 -0.624358,0.314173 -0.343397,0.268685 -0.844445,0.557859 -1.113438,0.642611 -0.268993,0.08475 -0.518736,0.243064 -0.554984,0.351806 -0.08724,0.261703 -0.02849,0.253105 0.853411,-0.124921 z m 13.080184,-1.171848 c 0.566404,-0.162443 1.345828,-0.765006 1.345828,-1.040444 0,-0.08027 -0.259425,0.05193 -0.576501,0.293772 -0.317075,0.241846 -0.877451,0.480085 -1.245279,0.529421 -0.367827,0.04934 -0.628441,0.154967 -0.579141,0.234736 0.115549,0.186962 0.356127,0.182977 1.055093,-0.01749 z M 20.464614,59.700426 c 0,-0.137357 -0.07493,-0.249743 -0.166495,-0.249743 -0.09157,0 -0.166495,0.112386 -0.166495,0.249743 0,0.137359 0.07492,0.249744 0.166495,0.249744 0.09157,0 0.166495,-0.112385 0.166495,-0.249744 z m 28.935954,36.753866 c -0.02965,-0.06868 -0.0093,-0.57441 0.04543,-1.123844 l 0.09933,-0.998973 0.02799,1.123844 c 0.0255,1.023815 -0.02815,1.333989 -0.172756,0.998973 z M 2.4073376,77.840258 c -0.062188,-0.4147 -0.055637,-1.181896 0.014557,-1.704878 l 0.1276276,-0.950878 0.1209471,0.749228 c 0.1725641,1.06898 0.1713624,2.461877 -0.00222,2.569153 -0.081314,0.05025 -0.1987266,-0.247925 -0.2609148,-0.662625 z m 0.2538622,-4.025974 c -0.012192,-0.565336 0.4382823,-1.876443 0.6447138,-1.876443 0.066368,0 0.1206681,0.221474 0.1206681,0.492162 0,0.270689 -0.059422,0.455438 -0.1320496,0.41055 -0.072628,-0.04488 -0.242229,0.276832 -0.3768927,0.71493 -0.2270772,0.738744 -0.2456843,0.757523 -0.2564396,0.258801 z M 45.206998,68.01158 c -0.144294,-0.376019 -0.13052,-0.403472 0.148682,-0.296335 0.137359,0.05271 0.249743,0.200204 0.249743,0.327767 0,0.315432 -0.273603,0.293849 -0.398425,-0.03143 z"
       style="fill:#ffffff;fill-opacity:1;stroke-width:0.16649541" />
    <path
       id="path825"
       d="m 4.8140436,96.412668 c 0,-0.09157 0.074923,-0.166496 0.1664955,-0.166496 0.091572,0 0.1664954,0.07493 0.1664954,0.166496 0,0.09157 -0.074923,0.166496 -0.1664954,0.166496 -0.091572,0 -0.1664955,-0.07493 -0.1664955,-0.166496 z m 44.5865244,0.04163 c -0.02965,-0.06868 -0.0093,-0.57441 0.04543,-1.123844 l 0.09933,-0.998973 0.02799,1.123844 c 0.0255,1.023815 -0.02815,1.333989 -0.172756,0.998973 z M 3.015052,86.506191 c 0.00339,-0.274718 0.040707,-0.366947 0.082921,-0.204952 0.042214,0.161995 0.039438,0.386764 -0.00617,0.499487 C 3.046195,86.913448 3.011656,86.780906 3.01505,86.506191 Z M 48.0335,84.983901 c -0.05774,-0.150465 -0.07074,-0.307814 -0.02889,-0.349663 0.132318,-0.13232 0.431234,0.133382 0.431234,0.38332 0,0.326584 -0.272867,0.303759 -0.402345,-0.03366 z m 0.01385,-1.502378 c -0.06104,-0.06105 -0.110992,-0.188416 -0.110992,-0.283042 0,-0.104326 0.07754,-0.0945 0.197019,0.02497 0.108362,0.108361 0.15831,0.23573 0.110998,0.283042 -0.04731,0.04731 -0.135972,0.03608 -0.19702,-0.02497 z M 47.6773,80.854281 c -0.14699,-0.783525 0.0055,-1.127159 0.239207,-0.539207 0.228202,0.573994 0.241466,1.113006 0.02739,1.113006 -0.08742,0 -0.207391,-0.25821 -0.266597,-0.573799 z m 0.03706,-1.868135 c -0.06105,-0.06105 -0.110994,-0.188416 -0.110994,-0.283042 0,-0.104326 0.07754,-0.0945 0.19702,0.02497 0.10836,0.108362 0.15831,0.23573 0.110997,0.283042 -0.04731,0.04731 -0.135972,0.03608 -0.19702,-0.02497 z m -28.78983,-0.33226 c 0.114466,-0.04618 0.301773,-0.04618 0.416239,0 0.114465,0.04618 0.02081,0.08398 -0.208119,0.08398 -0.228931,0 -0.322585,-0.03779 -0.20812,-0.08398 z m 1.236044,-0.01026 c 0.336427,-0.03551 0.701485,-0.172756 0.811239,-0.305003 0.109755,-0.132245 0.284035,-0.238781 0.387287,-0.236744 0.103253,0.002 4.99e-4,0.150215 -0.228505,0.329287 -0.254372,0.198972 -0.642853,0.316142 -0.998972,0.3013 l -0.582735,-0.02429 z M 2.702894,77.432189 c 0,-0.595221 0.030218,-0.83872 0.067151,-0.541109 0.036933,0.29761 0.036933,0.784609 0,1.082219 -0.036934,0.297611 -0.067151,0.05411 -0.067151,-0.54111 z m 15.700672,0.527609 c -0.109318,-0.184277 -0.0066,-1.945092 0.125988,-2.159615 0.06779,-0.109694 0.208749,-0.199443 0.313231,-0.199443 0.136835,0 0.134088,0.05589 -0.0099,0.199794 -0.299853,0.299853 -0.255055,1.454406 0.06114,1.575741 0.143514,0.05507 0.345806,0.01525 0.449537,-0.08847 0.278837,-0.278836 0.529474,-0.229216 0.291367,0.05769 -0.264851,0.319125 -1.145836,0.758611 -1.231438,0.614311 z m 5.494025,-0.115334 c -0.148261,-0.148261 -0.269564,-0.467361 -0.269564,-0.709114 0,-0.404988 0.02599,-0.388582 0.330474,0.208654 0.368192,0.722191 0.345692,0.907063 -0.06091,0.50046 z m -8.428544,-0.370651 c -0.127446,-0.264458 -0.236844,-1.16115 -0.258986,-2.122816 -0.02108,-0.915725 -0.0046,-1.389695 0.03672,-1.053268 0.100187,0.816453 0.352039,1.005259 1.067304,0.800123 0.754445,-0.216372 1.320104,-0.206594 1.320104,0.02282 0,0.104062 -0.146888,0.147503 -0.333632,0.09867 -0.411759,-0.107676 -1.597818,0.44554 -1.811595,0.844986 -0.08661,0.161833 -0.0992,0.404694 -0.02799,0.539686 0.141305,0.26786 0.365681,1.327664 0.281086,1.327664 -0.0288,0 -0.151653,-0.206037 -0.27301,-0.457862 z m 9.820595,0.0376 c -0.115835,-0.139572 -0.1772,-0.287174 -0.136368,-0.328007 0.04083,-0.04083 0.200621,0.07337 0.355088,0.253768 0.154465,0.180402 0.215831,0.328005 0.136368,0.328005 -0.07946,0 -0.239255,-0.114194 -0.355088,-0.253766 z m 3.613365,0.136415 c -0.04587,-0.07421 -0.137517,-0.434048 -0.20367,-0.799642 -0.06615,-0.365594 -0.197604,-0.814561 -0.292117,-0.997706 -0.153632,-0.297709 -0.142488,-0.308779 0.105163,-0.104486 0.152352,0.12568 0.277002,0.36305 0.277002,0.527495 0,0.963087 0.468099,1.070653 0.872528,0.2005 0.266955,-0.574371 0.282384,-0.584147 0.195777,-0.124023 -0.181923,0.966511 -0.713142,1.688685 -0.954683,1.29786 z m 4.324312,-0.353621 c -0.151553,-0.167459 -0.27327,-0.373496 -0.270485,-0.457858 0.0028,-0.08436 0.08143,-0.02227 0.174769,0.137981 0.09333,0.160252 0.278366,0.291367 0.411175,0.291367 0.132808,0 0.24147,0.07493 0.24147,0.166495 0,0.259494 -0.254219,0.19651 -0.556929,-0.137981 z m 14.126306,0.137979 c -0.05659,-0.09157 -0.02355,-0.166495 0.07343,-0.166495 0.09698,0 0.176321,0.07493 0.176321,0.166495 0,0.09157 -0.03304,0.166496 -0.07343,0.166496 -0.04038,0 -0.119727,-0.07493 -0.176321,-0.166496 z M 23.382203,76.3738 c -0.04794,-0.150466 -0.122277,-0.385958 -0.16519,-0.523317 -0.04291,-0.137359 -0.0069,-0.249743 0.08007,-0.249743 0.186184,0 0.416302,0.802613 0.271606,0.947309 -0.05463,0.05463 -0.138551,-0.02378 -0.186492,-0.174249 z m 8.665132,-0.689813 c -0.521336,-0.683504 -1.005767,-0.747394 -1.675076,-0.220913 l -0.459978,0.361817 0.191597,-0.358004 c 0.432444,-0.808027 1.448682,-0.93326 1.953724,-0.240762 0.327545,0.449118 0.607464,1.040596 0.492465,1.040596 -0.03205,0 -0.258272,-0.26223 -0.502732,-0.582734 z m -6.754353,0.279955 c 0,-0.201217 0.315874,-0.435816 0.431339,-0.320353 0.04191,0.04191 -0.03801,0.170967 -0.177573,0.286802 -0.158234,0.131323 -0.253766,0.143955 -0.253766,0.03356 z m 0.749229,-0.196707 c -0.05659,-0.09157 0.0139,-0.166495 0.156669,-0.166495 0.142763,0 0.259569,0.07493 0.259569,0.166495 0,0.09157 -0.0705,0.166495 -0.156669,0.166495 -0.08617,0 -0.202974,-0.07493 -0.259569,-0.166495 z m -2.978285,-0.594214 c -0.06904,-0.179911 -0.210636,-0.226185 -0.4549,-0.148658 -0.238787,0.07579 -0.317441,0.05234 -0.240738,-0.07176 0.06266,-0.101383 0.223491,-0.184332 0.357411,-0.184332 0.133917,0 0.328828,-0.187308 0.433136,-0.416239 0.202369,-0.444151 0.571652,-0.590404 0.406938,-0.161166 -0.06506,0.169542 0.04062,0.307734 0.315177,0.412118 0.227183,0.08638 0.413059,0.194009 0.413059,0.239188 0,0.04518 -0.107834,0.04076 -0.239632,-0.0099 -0.135935,-0.05216 -0.333384,0.05816 -0.456287,0.254969 -0.258897,0.414559 -0.399323,0.437087 -0.534164,0.0857 z M 28.05797,73.83892 c -0.148938,-0.388124 -0.122851,-0.76873 0.04556,-0.66465 0.188551,0.11653 0.346912,0.928011 0.1811,0.928011 -0.06908,0 -0.171072,-0.118511 -0.226654,-0.263361 z M 15.136761,72.974057 c 0,-0.158771 1.445035,-0.146165 1.605202,0.014 0.06339,0.06339 -0.271852,0.115252 -0.744976,0.115252 -0.473124,0 -0.860226,-0.05816 -0.860226,-0.129252 z M 4.4810528,70.684039 c 0,-0.140157 -0.2630057,-0.485752 -0.5844573,-0.767991 -0.708986,-0.622498 -2.4602695,-2.920186 -2.93498922,-3.850714 -0.7003132,-1.372728 -1.3617486,-5.429904 -1.0076505,-6.180824 0.090924,-0.192818 0.2798621,-0.973144 0.4198626,-1.734059 0.2404633,-1.306938 0.3081577,-1.444535 1.22354182,-2.487 0.5329473,-0.606935 1.0457551,-1.257305 1.1395729,-1.445267 0.093818,-0.187961 0.5434377,-0.529808 0.9991559,-0.759661 1.1770371,-0.593667 2.0465175,-1.536661 2.9094045,-3.155393 1.1197005,-2.100501 1.0315292,-2.062532 5.1284815,-2.208461 1.895318,-0.06751 4.045416,-0.188166 4.777996,-0.26813 0.73258,-0.07996 1.714512,-0.113042 2.182071,-0.0735 0.467559,0.03953 1.141866,-0.012 1.498459,-0.114512 0.356594,-0.102515 2.409041,-0.295755 4.560994,-0.429424 2.151953,-0.133667 4.399641,-0.317313 4.994862,-0.4081 0.595222,-0.09079 2.232734,-0.192428 3.63892,-0.225869 l 2.556697,-0.0608 1.399712,1.220407 c 1.46501,1.277341 2.165377,1.726228 2.693315,1.726228 0.334889,0 0.86655,0.48578 0.86655,0.791769 0,0.100549 0.215311,0.290227 0.478471,0.421508 0.50939,0.254116 1.019988,0.114255 1.019988,-0.279391 0,-0.148425 0.249839,-0.209858 0.806537,-0.198319 0.748795,0.01552 0.856354,0.07427 1.50232,0.82063 0.892216,1.030873 1.082348,1.495866 1.848582,4.520886 0.502695,1.984594 0.657735,2.967262 0.75502,4.785429 0.100553,1.879255 0.07887,2.355155 -0.121384,2.663926 -0.134095,0.206763 -0.411671,0.900391 -0.616836,1.541398 -0.205167,0.641007 -0.517853,1.401215 -0.69486,1.689352 -0.370631,0.60332 -1.079567,1.120042 -1.326935,0.967161 -0.093,-0.05748 -0.277452,-0.01457 -0.409903,0.09535 -0.132448,0.109923 -0.634895,0.218438 -1.11655,0.241145 -0.909223,0.04286 -2.777148,0.451769 -3.578019,0.783261 -0.25362,0.104977 -0.985589,0.199852 -1.626596,0.210833 -0.641008,0.01097 -1.830859,0.148562 -2.644113,0.305739 -0.813253,0.157177 -1.974559,0.285788 -2.580678,0.285802 -0.606121,1.7e-5 -1.700242,0.114497 -2.431383,0.254405 -0.731142,0.139906 -1.52263,0.211924 -1.758864,0.16004 -0.236233,-0.05189 -1.297985,0.0195 -2.35945,0.158653 -1.474696,0.193316 -2.055641,0.209172 -2.462856,0.06722 -0.356882,-0.124411 -0.980806,-0.14092 -1.888799,-0.04998 -1.448734,0.145095 -2.182926,0.132694 -6.350739,-0.107281 -1.46516,-0.08436 -2.851235,-0.160638 -3.080166,-0.169504 -0.228931,-0.0089 -0.903238,0.110318 -1.498459,0.264853 -0.59522,0.154535 -1.9518504,0.336116 -3.0147325,0.403513 -1.5384266,0.09756 -2.0581426,0.196667 -2.5485726,0.486028 -0.7330826,0.432528 -0.7635211,0.436858 -0.7635211,0.108653 z M 17.693282,62.291462 c 0.776582,-0.332883 1.439369,-0.877927 1.439369,-1.183669 0,-0.09589 -0.280961,0.04549 -0.624358,0.314173 -0.343397,0.268685 -0.844445,0.557859 -1.113438,0.642611 -0.268993,0.08475 -0.518736,0.243064 -0.554984,0.351806 -0.08724,0.261703 -0.02849,0.253105 0.853411,-0.124921 z m 13.080184,-1.171848 c 0.566404,-0.162443 1.345828,-0.765006 1.345828,-1.040444 0,-0.08027 -0.259425,0.05193 -0.576501,0.293772 -0.317075,0.241846 -0.877451,0.480085 -1.245279,0.529421 -0.367827,0.04934 -0.628441,0.154967 -0.579141,0.234736 0.115549,0.186962 0.356127,0.182977 1.055093,-0.01749 z M 20.464614,59.700426 c 0,-0.137357 -0.07493,-0.249743 -0.166495,-0.249743 -0.09157,0 -0.166495,0.112386 -0.166495,0.249743 0,0.137359 0.07492,0.249744 0.166495,0.249744 0.09157,0 0.166495,-0.112385 0.166495,-0.249744 z m 24.742384,8.311154 c -0.144294,-0.376019 -0.13052,-0.403472 0.148682,-0.296335 0.137359,0.05271 0.249743,0.200204 0.249743,0.327767 0,0.315432 -0.273603,0.293849 -0.398425,-0.03143 z m 0.56492,-0.402621 c 0,-0.09157 0.07935,-0.166495 0.176323,-0.166495 0.09698,0 0.130016,0.07493 0.07341,0.166495 -0.05659,0.09157 -0.13594,0.166496 -0.176321,0.166496 -0.04038,0 -0.07343,-0.07493 -0.07343,-0.166496 z"
       style="fill:#2398f7;stroke-width:0.16649541" />
    <path
       id="path823"
       d="m 4.8140436,96.412668 c 0,-0.09157 0.074923,-0.166496 0.1664955,-0.166496 0.091572,0 0.1664954,0.07493 0.1664954,0.166496 0,0.09157 -0.074923,0.166496 -0.1664954,0.166496 -0.091572,0 -0.1664955,-0.07493 -0.1664955,-0.166496 z m 44.5865244,0.04163 c -0.02965,-0.06868 -0.0093,-0.57441 0.04543,-1.123844 l 0.09933,-0.998973 0.02799,1.123844 c 0.0255,1.023815 -0.02815,1.333989 -0.172756,0.998973 z M 3.015052,86.506191 c 0.00339,-0.274718 0.040707,-0.366947 0.082921,-0.204952 0.042214,0.161995 0.039438,0.386764 -0.00617,0.499487 C 3.046195,86.913448 3.011656,86.780906 3.01505,86.506191 Z M 48.0335,84.983901 c -0.05774,-0.150465 -0.07074,-0.307814 -0.02889,-0.349663 0.132318,-0.13232 0.431234,0.133382 0.431234,0.38332 0,0.326584 -0.272867,0.303759 -0.402345,-0.03366 z m 0.01385,-1.502378 c -0.06104,-0.06105 -0.110992,-0.188416 -0.110992,-0.283042 0,-0.104326 0.07754,-0.0945 0.197019,0.02497 0.108362,0.108361 0.15831,0.23573 0.110998,0.283042 -0.04731,0.04731 -0.135972,0.03608 -0.19702,-0.02497 z M 47.6773,80.854281 c -0.14699,-0.783525 0.0055,-1.127159 0.239207,-0.539207 0.228202,0.573994 0.241466,1.113006 0.02739,1.113006 -0.08742,0 -0.207391,-0.25821 -0.266597,-0.573799 z m 0.03706,-1.868135 c -0.06105,-0.06105 -0.110994,-0.188416 -0.110994,-0.283042 0,-0.104326 0.07754,-0.0945 0.19702,0.02497 0.10836,0.108362 0.15831,0.23573 0.110997,0.283042 -0.04731,0.04731 -0.135972,0.03608 -0.19702,-0.02497 z m -28.78983,-0.33226 c 0.114466,-0.04618 0.301773,-0.04618 0.416239,0 0.114465,0.04618 0.02081,0.08398 -0.208119,0.08398 -0.228931,0 -0.322585,-0.03779 -0.20812,-0.08398 z m 1.236044,-0.01026 c 0.336427,-0.03551 0.701485,-0.172756 0.811239,-0.305003 0.109755,-0.132245 0.284035,-0.238781 0.387287,-0.236744 0.103253,0.002 4.99e-4,0.150215 -0.228505,0.329287 -0.254372,0.198972 -0.642853,0.316142 -0.998972,0.3013 l -0.582735,-0.02429 z M 2.702894,77.432189 c 0,-0.595221 0.030218,-0.83872 0.067151,-0.541109 0.036933,0.29761 0.036933,0.784609 0,1.082219 -0.036934,0.297611 -0.067151,0.05411 -0.067151,-0.54111 z m 15.700672,0.527609 c -0.109318,-0.184277 -0.0066,-1.945092 0.125988,-2.159615 0.06779,-0.109694 0.208749,-0.199443 0.313231,-0.199443 0.136835,0 0.134088,0.05589 -0.0099,0.199794 -0.299853,0.299853 -0.255055,1.454406 0.06114,1.575741 0.143514,0.05507 0.345806,0.01525 0.449537,-0.08847 0.278837,-0.278836 0.529474,-0.229216 0.291367,0.05769 -0.264851,0.319125 -1.145836,0.758611 -1.231438,0.614311 z m 5.494025,-0.115334 c -0.148261,-0.148261 -0.269564,-0.467361 -0.269564,-0.709114 0,-0.404988 0.02599,-0.388582 0.330474,0.208654 0.368192,0.722191 0.345692,0.907063 -0.06091,0.50046 z m -8.428544,-0.370651 c -0.127446,-0.264458 -0.236844,-1.16115 -0.258986,-2.122816 -0.02108,-0.915725 -0.0046,-1.389695 0.03672,-1.053268 0.100187,0.816453 0.352039,1.005259 1.067304,0.800123 0.754445,-0.216372 1.320104,-0.206594 1.320104,0.02282 0,0.104062 -0.146888,0.147503 -0.333632,0.09867 -0.411759,-0.107676 -1.597818,0.44554 -1.811595,0.844986 -0.08661,0.161833 -0.0992,0.404694 -0.02799,0.539686 0.141305,0.26786 0.365681,1.327664 0.281086,1.327664 -0.0288,0 -0.151653,-0.206037 -0.27301,-0.457862 z m 9.820595,0.0376 c -0.115835,-0.139572 -0.1772,-0.287174 -0.136368,-0.328007 0.04083,-0.04083 0.200621,0.07337 0.355088,0.253768 0.154465,0.180402 0.215831,0.328005 0.136368,0.328005 -0.07946,0 -0.239255,-0.114194 -0.355088,-0.253766 z m 3.613365,0.136415 c -0.04587,-0.07421 -0.137517,-0.434048 -0.20367,-0.799642 -0.06615,-0.365594 -0.197604,-0.814561 -0.292117,-0.997706 -0.153632,-0.297709 -0.142488,-0.308779 0.105163,-0.104486 0.152352,0.12568 0.277002,0.36305 0.277002,0.527495 0,0.963087 0.468099,1.070653 0.872528,0.2005 0.266955,-0.574371 0.282384,-0.584147 0.195777,-0.124023 -0.181923,0.966511 -0.713142,1.688685 -0.954683,1.29786 z m 4.324312,-0.353621 c -0.151553,-0.167459 -0.27327,-0.373496 -0.270485,-0.457858 0.0028,-0.08436 0.08143,-0.02227 0.174769,0.137981 0.09333,0.160252 0.278366,0.291367 0.411175,0.291367 0.132808,0 0.24147,0.07493 0.24147,0.166495 0,0.259494 -0.254219,0.19651 -0.556929,-0.137981 z m 14.126306,0.137979 c -0.05659,-0.09157 -0.02355,-0.166495 0.07343,-0.166495 0.09698,0 0.176321,0.07493 0.176321,0.166495 0,0.09157 -0.03304,0.166496 -0.07343,0.166496 -0.04038,0 -0.119727,-0.07493 -0.176321,-0.166496 z M 23.382203,76.3738 c -0.04794,-0.150466 -0.122277,-0.385958 -0.16519,-0.523317 -0.04291,-0.137359 -0.0069,-0.249743 0.08007,-0.249743 0.186184,0 0.416302,0.802613 0.271606,0.947309 -0.05463,0.05463 -0.138551,-0.02378 -0.186492,-0.174249 z m 8.665132,-0.689813 c -0.521336,-0.683504 -1.005767,-0.747394 -1.675076,-0.220913 l -0.459978,0.361817 0.191597,-0.358004 c 0.432444,-0.808027 1.448682,-0.93326 1.953724,-0.240762 0.327545,0.449118 0.607464,1.040596 0.492465,1.040596 -0.03205,0 -0.258272,-0.26223 -0.502732,-0.582734 z m -6.754353,0.279955 c 0,-0.201217 0.315874,-0.435816 0.431339,-0.320353 0.04191,0.04191 -0.03801,0.170967 -0.177573,0.286802 -0.158234,0.131323 -0.253766,0.143955 -0.253766,0.03356 z m 0.749229,-0.196707 c -0.05659,-0.09157 0.0139,-0.166495 0.156669,-0.166495 0.142763,0 0.259569,0.07493 0.259569,0.166495 0,0.09157 -0.0705,0.166495 -0.156669,0.166495 -0.08617,0 -0.202974,-0.07493 -0.259569,-0.166495 z m -2.978285,-0.594214 c -0.06904,-0.179911 -0.210636,-0.226185 -0.4549,-0.148658 -0.238787,0.07579 -0.317441,0.05234 -0.240738,-0.07176 0.06266,-0.101383 0.223491,-0.184332 0.357411,-0.184332 0.133917,0 0.328828,-0.187308 0.433136,-0.416239 0.202369,-0.444151 0.571652,-0.590404 0.406938,-0.161166 -0.06506,0.169542 0.04062,0.307734 0.315177,0.412118 0.227183,0.08638 0.413059,0.194009 0.413059,0.239188 0,0.04518 -0.107834,0.04076 -0.239632,-0.0099 -0.135935,-0.05216 -0.333384,0.05816 -0.456287,0.254969 -0.258897,0.414559 -0.399323,0.437087 -0.534164,0.0857 z M 28.05797,73.83892 c -0.148938,-0.388124 -0.122851,-0.76873 0.04556,-0.66465 0.188551,0.11653 0.346912,0.928011 0.1811,0.928011 -0.06908,0 -0.171072,-0.118511 -0.226654,-0.263361 z M 15.136761,72.974057 c 0,-0.158771 1.445035,-0.146165 1.605202,0.014 0.06339,0.06339 -0.271852,0.115252 -0.744976,0.115252 -0.473124,0 -0.860226,-0.05816 -0.860226,-0.129252 z M 4.4810528,70.684039 c 0,-0.140157 -0.2630057,-0.485752 -0.5844573,-0.767991 -0.708986,-0.622498 -2.4602695,-2.920186 -2.93498922,-3.850714 -0.7003132,-1.372728 -1.3617486,-5.429904 -1.0076505,-6.180824 0.090924,-0.192818 0.2803492,-0.975618 0.4209452,-1.739554 0.2441179,-1.32643 0.3010891,-1.440127 1.26516552,-2.524886 0.5552452,-0.624749 1.0095366,-1.179747 1.0095366,-1.233326 0,-0.205946 0.621162,-0.704436 1.1515413,-0.924127 0.8875626,-0.36764 2.0363307,-1.643685 2.8443491,-3.159487 1.1197005,-2.100501 1.0315292,-2.062532 5.1284815,-2.208461 1.895318,-0.06751 4.045416,-0.188166 4.777996,-0.26813 0.73258,-0.07996 1.714512,-0.113042 2.182071,-0.0735 0.467559,0.03953 1.141866,-0.012 1.498459,-0.114512 0.356594,-0.102515 2.409041,-0.295755 4.560994,-0.429424 2.151953,-0.133667 4.399641,-0.317313 4.994862,-0.4081 0.595222,-0.09079 2.232734,-0.192428 3.63892,-0.225869 l 2.556697,-0.0608 1.399712,1.220407 c 1.46501,1.277341 2.165377,1.726228 2.693315,1.726228 0.933681,0 1.251899,1.521928 0.479618,2.293853 l -0.453532,0.453322 -2.285318,-0.03873 c -1.256925,-0.0213 -2.622472,-0.120029 -3.034549,-0.219394 -1.112861,-0.268351 -11.833184,0.191607 -13.319634,0.571481 -0.602803,0.15405 -3.693507,0.430451 -6.576569,0.588143 -1.373587,0.07513 -3.096815,0.253953 -3.829395,0.397388 -0.732579,0.143435 -1.8254724,0.331856 -2.4286514,0.418713 -0.8296363,0.119466 -1.2028155,0.264048 -1.5325144,0.593746 -0.239705,0.239705 -0.5516164,0.435828 -0.6931376,0.435828 -0.3450945,0 -0.3264242,0.09635 0.1392713,0.718714 0.9474001,1.266123 1.4506876,2.983557 1.8448757,6.295509 0.134835,1.132878 0.325003,2.659161 0.422597,3.39174 0.09759,0.73258 0.131788,1.678191 0.07598,2.101359 l -0.101458,0.769395 2.7182224,-0.07126 c 1.495024,-0.03919 3.219575,-0.141919 3.832337,-0.228284 0.612761,-0.08637 2.710605,-0.158088 4.661871,-0.159385 1.951269,-0.0014 5.046219,-0.116604 6.877668,-0.256238 1.83145,-0.139635 4.228984,-0.323652 5.327854,-0.408924 1.098869,-0.08527 2.260175,-0.239807 2.580678,-0.343408 0.320504,-0.103601 1.654339,-0.244646 2.964077,-0.313433 1.309737,-0.06879 2.453378,-0.197102 2.541423,-0.285146 0.102444,-0.102445 -0.02061,-0.485935 -0.341792,-1.065113 -0.927736,-1.672996 -1.363469,-3.351627 -1.459814,-5.62384 -0.118497,-2.794632 0.370255,-4.765269 1.521071,-6.132936 0.236095,-0.280584 0.57089,-0.838258 0.743987,-1.239278 0.277835,-0.643668 1.023857,-1.553416 1.023857,-1.24856 0,0.0632 0.149845,0.03471 0.33299,-0.0633 0.183145,-0.09802 0.332991,-0.276065 0.332991,-0.395663 0,-0.151313 0.245311,-0.212367 0.806537,-0.200734 0.748795,0.01552 0.856354,0.07427 1.50232,0.82063 0.892216,1.030873 1.082348,1.495865 1.848582,4.520886 0.502695,1.984594 0.657735,2.967262 0.75502,4.785429 0.100553,1.879255 0.07887,2.355155 -0.121384,2.663926 -0.134095,0.206763 -0.411671,0.900391 -0.616836,1.541398 -0.205167,0.641007 -0.517853,1.401215 -0.69486,1.689351 -0.370631,0.603321 -1.079567,1.120042 -1.326935,0.967162 -0.093,-0.05748 -0.277452,-0.01457 -0.409903,0.09535 -0.132448,0.109923 -0.634895,0.218438 -1.11655,0.241145 -0.909223,0.04286 -2.777148,0.451769 -3.578019,0.783261 -0.25362,0.104977 -0.985589,0.199852 -1.626596,0.210832 -0.641008,0.01097 -1.830859,0.148563 -2.644113,0.30574 -0.813253,0.157177 -1.974559,0.285788 -2.580678,0.285802 -0.606121,1.7e-5 -1.700242,0.114497 -2.431383,0.254405 -0.731142,0.139906 -1.52263,0.211924 -1.758864,0.16004 -0.236233,-0.05189 -1.297985,0.0195 -2.35945,0.158653 -1.474696,0.193316 -2.055641,0.209172 -2.462856,0.06722 -0.356882,-0.12441 -0.980806,-0.140919 -1.888799,-0.04998 -1.448734,0.145095 -2.182926,0.132694 -6.350739,-0.107281 -1.46516,-0.08436 -2.851235,-0.160638 -3.080166,-0.169504 -0.228931,-0.0089 -0.903238,0.110317 -1.498459,0.264853 -0.59522,0.154535 -1.9518504,0.336115 -3.0147324,0.403512 -1.5384264,0.09754 -2.0581424,0.196655 -2.5485724,0.486016 -0.7330826,0.432528 -0.7635211,0.436858 -0.7635211,0.108653 z M 4.9805391,53.976721 c 0,-0.240644 -0.4718156,-0.556626 -0.6586884,-0.441133 -0.2639299,0.163118 -0.2081262,0.387357 0.1175782,0.472473 0.4787534,0.12511 0.5411102,0.121499 0.5411102,-0.03134 z M 45.206998,68.01158 c -0.144294,-0.376019 -0.13052,-0.403472 0.148682,-0.296335 0.137359,0.05271 0.249743,0.200204 0.249743,0.327767 0,0.315432 -0.273603,0.293849 -0.398425,-0.03143 z m 0.56492,-0.402621 c 0,-0.09157 0.07935,-0.166495 0.176323,-0.166495 0.09698,0 0.130016,0.07493 0.07341,0.166495 -0.05659,0.09157 -0.13594,0.166496 -0.176321,0.166496 -0.04038,0 -0.07343,-0.07493 -0.07343,-0.166496 z M 15.861966,63.646461 c -1.779749,-0.782241 -2.126158,-1.308927 -2.026057,-3.080448 0.06472,-1.145338 0.07896,-1.176895 0.843654,-1.869218 0.99856,-0.904054 2.652293,-1.577047 3.875252,-1.577047 0.70002,0 1.138691,0.118237 1.853134,0.499486 0.514809,0.274718 1.032105,0.499487 1.149547,0.499487 0.346074,0 1.178264,0.78566 1.400505,1.3222 l 0.205643,0.496466 1.42995,-0.04129 1.42995,-0.04129 0.194749,-0.763422 c 0.243745,-0.955474 1.107607,-2.229268 1.796887,-2.649563 0.430644,-0.26259 0.842696,-0.319909 2.303449,-0.32042 1.979228,-6.76e-4 2.360774,0.0978 3.29863,0.851479 0.868587,0.698015 1.165961,1.383188 1.165961,2.686467 0,2.059502 -0.988528,2.808757 -4.604399,3.489902 -1.517768,0.285912 -2.089521,0.05921 -3.446315,-1.366466 l -1.110258,-1.16663 h -1.081721 -1.081721 l -1.214584,1.222493 c -1.719127,1.730321 -2.501785,2.153351 -4.091097,2.21125 -1.076605,0.03922 -1.422687,-0.02172 -2.291159,-0.403434 z m 1.831316,-1.354999 c 0.776582,-0.332883 1.439369,-0.877927 1.439369,-1.183669 0,-0.09589 -0.280961,0.04549 -0.624358,0.314173 -0.343397,0.268685 -0.844445,0.557859 -1.113438,0.642611 -0.268993,0.08475 -0.518736,0.243064 -0.554984,0.351806 -0.08724,0.261703 -0.02849,0.253105 0.853411,-0.124921 z m 13.080184,-1.171848 c 0.566404,-0.162443 1.345828,-0.765006 1.345828,-1.040444 0,-0.08027 -0.259425,0.05193 -0.576501,0.293772 -0.317075,0.241846 -0.877451,0.480085 -1.245279,0.529421 -0.367827,0.04934 -0.628441,0.154967 -0.579141,0.234736 0.115549,0.186962 0.356127,0.182977 1.055093,-0.01749 z M 20.464614,59.700426 c 0,-0.137357 -0.07493,-0.249743 -0.166495,-0.249743 -0.09157,0 -0.166495,0.112386 -0.166495,0.249743 0,0.137359 0.07492,0.249744 0.166495,0.249744 0.09157,0 0.166495,-0.112385 0.166495,-0.249744 z M 9.8755046,62.214507 c -0.66783,-0.667829 -0.69076,-0.864619 -0.187722,-1.611076 0.5739764,-0.851725 1.1116384,-1.099119 1.7837104,-0.820738 1.008105,0.417572 1.301086,1.815949 0.534368,2.550511 -0.674599,0.646307 -1.406111,0.605549 -2.1303564,-0.118697 z M 35.436396,60.96195 c -0.567434,-0.567433 -0.592902,-0.84497 -0.164186,-1.7892 0.368936,-0.812572 0.841633,-1.11735 1.506478,-0.971326 0.901079,0.197911 1.233058,1.205125 0.765802,2.323426 -0.427282,1.022631 -1.334465,1.21073 -2.108094,0.4371 z"
       style="fill:#3d719c;stroke-width:0.16649541" />
    <path
       id="path821"
       d="m 4.8140436,96.412668 c 0,-0.09157 0.074923,-0.166496 0.1664955,-0.166496 0.091572,0 0.1664954,0.07493 0.1664954,0.166496 0,0.09157 -0.074923,0.166496 -0.1664954,0.166496 -0.091572,0 -0.1664955,-0.07493 -0.1664955,-0.166496 z m 44.5865244,0.04163 c -0.02965,-0.06868 -0.0093,-0.57441 0.04543,-1.123844 l 0.09933,-0.998973 0.02799,1.123844 c 0.0255,1.023815 -0.02815,1.333989 -0.172756,0.998973 z M 3.015052,86.506191 c 0.00339,-0.274718 0.040707,-0.366947 0.082921,-0.204952 0.042214,0.161995 0.039438,0.386764 -0.00617,0.499487 C 3.046195,86.913448 3.011656,86.780906 3.01505,86.506191 Z M 48.0335,84.983901 c -0.05774,-0.150465 -0.07074,-0.307814 -0.02889,-0.349663 0.132318,-0.13232 0.431234,0.133382 0.431234,0.38332 0,0.326584 -0.272867,0.303759 -0.402345,-0.03366 z m 0.01385,-1.502378 c -0.06104,-0.06105 -0.110992,-0.188416 -0.110992,-0.283042 0,-0.104326 0.07754,-0.0945 0.197019,0.02497 0.108362,0.108361 0.15831,0.23573 0.110998,0.283042 -0.04731,0.04731 -0.135972,0.03608 -0.19702,-0.02497 z M 47.6773,80.854281 c -0.14699,-0.783525 0.0055,-1.127159 0.239207,-0.539207 0.228202,0.573994 0.241466,1.113006 0.02739,1.113006 -0.08742,0 -0.207391,-0.25821 -0.266597,-0.573799 z m 0.03706,-1.868135 c -0.06105,-0.06105 -0.110994,-0.188416 -0.110994,-0.283042 0,-0.104326 0.07754,-0.0945 0.19702,0.02497 0.10836,0.108362 0.15831,0.23573 0.110997,0.283042 -0.04731,0.04731 -0.135972,0.03608 -0.19702,-0.02497 z m -28.78983,-0.33226 c 0.114466,-0.04618 0.301773,-0.04618 0.416239,0 0.114465,0.04618 0.02081,0.08398 -0.208119,0.08398 -0.228931,0 -0.322585,-0.03779 -0.20812,-0.08398 z m 1.236044,-0.01026 c 0.336427,-0.03551 0.701485,-0.172756 0.811239,-0.305003 0.109755,-0.132245 0.284035,-0.238781 0.387287,-0.236744 0.103253,0.002 4.99e-4,0.150215 -0.228505,0.329287 -0.254372,0.198972 -0.642853,0.316142 -0.998972,0.3013 l -0.582735,-0.02429 z M 2.702894,77.432189 c 0,-0.595221 0.030218,-0.83872 0.067151,-0.541109 0.036933,0.29761 0.036933,0.784609 0,1.082219 -0.036934,0.297611 -0.067151,0.05411 -0.067151,-0.54111 z m 15.700672,0.527609 c -0.109318,-0.184277 -0.0066,-1.945092 0.125988,-2.159615 0.06779,-0.109694 0.208749,-0.199443 0.313231,-0.199443 0.136835,0 0.134088,0.05589 -0.0099,0.199794 -0.299853,0.299853 -0.255055,1.454406 0.06114,1.575741 0.143514,0.05507 0.345806,0.01525 0.449537,-0.08847 0.278837,-0.278836 0.529474,-0.229216 0.291367,0.05769 -0.264851,0.319125 -1.145836,0.758611 -1.231438,0.614311 z m 5.494025,-0.115334 c -0.148261,-0.148261 -0.269564,-0.467361 -0.269564,-0.709114 0,-0.404988 0.02599,-0.388582 0.330474,0.208654 0.368192,0.722191 0.345692,0.907063 -0.06091,0.50046 z m -8.428544,-0.370651 c -0.127446,-0.264458 -0.236844,-1.16115 -0.258986,-2.122816 -0.02108,-0.915725 -0.0046,-1.389695 0.03672,-1.053268 0.100187,0.816453 0.352039,1.005259 1.067304,0.800123 0.754445,-0.216372 1.320104,-0.206594 1.320104,0.02282 0,0.104062 -0.146888,0.147503 -0.333632,0.09867 -0.411759,-0.107676 -1.597818,0.44554 -1.811595,0.844986 -0.08661,0.161833 -0.0992,0.404694 -0.02799,0.539686 0.141305,0.26786 0.365681,1.327664 0.281086,1.327664 -0.0288,0 -0.151653,-0.206037 -0.27301,-0.457862 z m 9.820595,0.0376 c -0.115835,-0.139572 -0.1772,-0.287174 -0.136368,-0.328007 0.04083,-0.04083 0.200621,0.07337 0.355088,0.253768 0.154465,0.180402 0.215831,0.328005 0.136368,0.328005 -0.07946,0 -0.239255,-0.114194 -0.355088,-0.253766 z m 3.613365,0.136415 c -0.04587,-0.07421 -0.137517,-0.434048 -0.20367,-0.799642 -0.06615,-0.365594 -0.197604,-0.814561 -0.292117,-0.997706 -0.153632,-0.297709 -0.142488,-0.308779 0.105163,-0.104486 0.152352,0.12568 0.277002,0.36305 0.277002,0.527495 0,0.963087 0.468099,1.070653 0.872528,0.2005 0.266955,-0.574371 0.282384,-0.584147 0.195777,-0.124023 -0.181923,0.966511 -0.713142,1.688685 -0.954683,1.29786 z m 4.324312,-0.353621 c -0.151553,-0.167459 -0.27327,-0.373496 -0.270485,-0.457858 0.0028,-0.08436 0.08143,-0.02227 0.174769,0.137981 0.09333,0.160252 0.278366,0.291367 0.411175,0.291367 0.132808,0 0.24147,0.07493 0.24147,0.166495 0,0.259494 -0.254219,0.19651 -0.556929,-0.137981 z m 14.126306,0.137979 c -0.05659,-0.09157 -0.02355,-0.166495 0.07343,-0.166495 0.09698,0 0.176321,0.07493 0.176321,0.166495 0,0.09157 -0.03304,0.166496 -0.07343,0.166496 -0.04038,0 -0.119727,-0.07493 -0.176321,-0.166496 z M 23.382203,76.3738 c -0.04794,-0.150466 -0.122277,-0.385958 -0.16519,-0.523317 -0.04291,-0.137359 -0.0069,-0.249743 0.08007,-0.249743 0.186184,0 0.416302,0.802613 0.271606,0.947309 -0.05463,0.05463 -0.138551,-0.02378 -0.186492,-0.174249 z m 8.665132,-0.689813 c -0.521336,-0.683504 -1.005767,-0.747394 -1.675076,-0.220913 l -0.459978,0.361817 0.191597,-0.358004 c 0.432444,-0.808027 1.448682,-0.93326 1.953724,-0.240762 0.327545,0.449118 0.607464,1.040596 0.492465,1.040596 -0.03205,0 -0.258272,-0.26223 -0.502732,-0.582734 z m -6.754353,0.279955 c 0,-0.201217 0.315874,-0.435816 0.431339,-0.320353 0.04191,0.04191 -0.03801,0.170967 -0.177573,0.286802 -0.158234,0.131323 -0.253766,0.143955 -0.253766,0.03356 z m 0.749229,-0.196707 c -0.05659,-0.09157 0.0139,-0.166495 0.156669,-0.166495 0.142763,0 0.259569,0.07493 0.259569,0.166495 0,0.09157 -0.0705,0.166495 -0.156669,0.166495 -0.08617,0 -0.202974,-0.07493 -0.259569,-0.166495 z m -2.978285,-0.594214 c -0.06904,-0.179911 -0.210636,-0.226185 -0.4549,-0.148658 -0.238787,0.07579 -0.317441,0.05234 -0.240738,-0.07176 0.06266,-0.101383 0.223491,-0.184332 0.357411,-0.184332 0.133917,0 0.328828,-0.187308 0.433136,-0.416239 0.202369,-0.444151 0.571652,-0.590404 0.406938,-0.161166 -0.06506,0.169542 0.04062,0.307734 0.315177,0.412118 0.227183,0.08638 0.413059,0.194009 0.413059,0.239188 0,0.04518 -0.107834,0.04076 -0.239632,-0.0099 -0.135935,-0.05216 -0.333384,0.05816 -0.456287,0.254969 -0.258897,0.414559 -0.399323,0.437087 -0.534164,0.0857 z M 28.05797,73.83892 c -0.148938,-0.388124 -0.122851,-0.76873 0.04556,-0.66465 0.188551,0.11653 0.346912,0.928011 0.1811,0.928011 -0.06908,0 -0.171072,-0.118511 -0.226654,-0.263361 z M 15.136761,72.974057 c 0,-0.158771 1.445035,-0.146165 1.605202,0.014 0.06339,0.06339 -0.271852,0.115252 -0.744976,0.115252 -0.473124,0 -0.860226,-0.05816 -0.860226,-0.129252 z M 4.4810528,70.684039 c 0,-0.140157 -0.2630057,-0.485752 -0.5844573,-0.767991 -0.708986,-0.622498 -2.4602695,-2.920186 -2.93498922,-3.850714 -0.7048953,-1.381709 -1.3629447,-5.44043 -1.0021107,-6.180824 0.093971,-0.192818 0.2531677,-0.857952 0.353771,-1.478075 0.2660122,-1.639711 0.3592287,-1.807011 1.82168772,-3.269469 1.3077617,-1.307762 1.3379304,-1.326318 1.7964746,-1.104943 0.2565069,0.123836 0.7173338,0.277442 1.0240599,0.341346 0.5274509,0.109892 0.5512353,0.09497 0.4387265,-0.275294 C 5.3287888,53.88276 5.12366,53.540886 4.9383736,53.338357 L 4.6014899,52.970122 5.2488774,52.339384 c 0.3560623,-0.346906 0.9845399,-1.26322 1.3966161,-2.036254 1.1197005,-2.100501 1.0315292,-2.062532 5.1284815,-2.208461 1.895318,-0.06751 4.045416,-0.188166 4.777996,-0.26813 0.73258,-0.07996 1.714512,-0.113042 2.182071,-0.0735 0.467559,0.03953 1.141866,-0.012 1.498459,-0.114512 0.356594,-0.102515 2.409041,-0.295755 4.560994,-0.429424 2.151953,-0.133667 4.399641,-0.317313 4.994862,-0.4081 0.595222,-0.09079 2.232734,-0.192428 3.63892,-0.225869 l 2.556697,-0.0608 1.399712,1.220407 c 1.46501,1.277341 2.165377,1.726228 2.693315,1.726228 0.1735,0 0.447717,0.14615 0.609373,0.324777 0.264525,0.292297 0.271268,0.395997 0.06743,1.036946 -0.328535,1.033041 -0.661786,1.146342 -3.14016,1.067611 -1.144657,-0.03637 -2.534182,-0.140451 -3.087835,-0.231306 -1.081764,-0.17752 -9.174662,-0.02574 -9.50458,0.178255 -0.103681,0.0641 -0.740525,0.152189 -1.415211,0.195737 -0.674688,0.04355 -1.86355,0.154842 -2.641917,0.247321 -3.018981,0.358691 -4.657856,0.507039 -6.709665,0.607354 -1.172071,0.05731 -2.520684,0.207925 -2.996916,0.334715 -0.476234,0.126791 -1.16557,0.234592 -1.5318604,0.239559 -1.077458,0.0146 -2.3712687,0.385556 -2.7453866,0.787124 -0.1912625,0.205295 -0.5321391,0.373265 -0.7575031,0.373265 -0.5728493,0 -0.5224091,0.371921 0.1741657,1.284198 0.9495088,1.243533 1.2474529,2.472032 2.001826,8.254037 0.152787,1.171054 0.251612,2.632051 0.219612,3.246661 l -0.05818,1.117473 2.2476884,-0.05538 c 1.236229,-0.03046 2.921995,-0.122812 3.746147,-0.205234 0.824153,-0.08242 3.034379,-0.15293 4.911615,-0.156685 1.877236,-0.0038 4.312231,-0.0797 5.4111,-0.168775 1.098871,-0.08907 3.563736,-0.275438 5.477482,-0.414152 1.913743,-0.138713 3.900889,-0.361389 4.415878,-0.494837 0.51499,-0.133447 1.796272,-0.28638 2.847293,-0.33985 2.426258,-0.123435 2.990334,-0.211669 3.09488,-0.484111 0.04631,-0.1207 -0.147551,-0.584835 -0.430816,-1.03141 -1.169839,-1.844282 -1.882005,-5.561501 -1.525165,-7.960731 0.201303,-1.353465 0.784714,-2.831687 1.474514,-3.736062 0.242987,-0.318574 0.623986,-0.944831 0.84666,-1.39168 0.222676,-0.446852 0.620792,-0.972098 0.884704,-1.167216 0.26391,-0.195118 0.479838,-0.44116 0.479838,-0.546759 0,-0.120879 0.298758,-0.185806 0.806537,-0.175281 0.748795,0.01552 0.856354,0.07427 1.50232,0.82063 0.892216,1.030873 1.082348,1.495866 1.848582,4.520886 0.502695,1.984594 0.657735,2.967262 0.75502,4.785429 0.100553,1.879255 0.07887,2.355155 -0.121384,2.663926 -0.134095,0.206763 -0.411671,0.900391 -0.616836,1.541398 -0.205167,0.641007 -0.517853,1.401215 -0.69486,1.689352 -0.370631,0.60332 -1.079566,1.120042 -1.326935,0.967161 -0.093,-0.05748 -0.277451,-0.01457 -0.409903,0.09535 -0.132447,0.109923 -0.634895,0.218438 -1.116549,0.241145 -0.909223,0.04286 -2.777148,0.451769 -3.578019,0.783261 -0.25362,0.104977 -0.985589,0.199852 -1.626596,0.210833 -0.641008,0.01097 -1.830859,0.148562 -2.644113,0.305739 -0.813253,0.157177 -1.974559,0.285788 -2.580678,0.285802 -0.606121,1.7e-5 -1.700242,0.114497 -2.431383,0.254405 -0.731142,0.139906 -1.52263,0.211924 -1.758864,0.16004 -0.236233,-0.05189 -1.297985,0.0195 -2.35945,0.158653 -1.474696,0.193316 -2.055641,0.209172 -2.462855,0.06722 -0.356883,-0.124411 -0.980807,-0.14092 -1.8888,-0.04998 -1.448734,0.145095 -2.182926,0.132694 -6.350739,-0.107281 -1.46516,-0.08436 -2.851235,-0.160638 -3.080166,-0.169504 -0.228931,-0.0089 -0.903238,0.110318 -1.498459,0.264853 -0.595221,0.154535 -1.9518504,0.336116 -3.0147326,0.403513 -1.538424,0.09756 -2.05814,0.196668 -2.54857,0.486029 -0.7330826,0.432528 -0.7635211,0.436858 -0.7635211,0.108653 z M 45.206998,68.01158 c -0.144294,-0.376019 -0.13052,-0.403472 0.148682,-0.296335 0.137359,0.05271 0.249743,0.200204 0.249743,0.327767 0,0.315432 -0.273603,0.293849 -0.398425,-0.03143 z m 0.56492,-0.402621 c 0,-0.09157 0.07935,-0.166495 0.176323,-0.166495 0.09698,0 0.130016,0.07493 0.07341,0.166495 -0.05659,0.09157 -0.13594,0.166496 -0.176321,0.166496 -0.04038,0 -0.07343,-0.07493 -0.07343,-0.166496 z m -28.886955,-3.92747 c -0.36629,-0.139656 -0.988122,-0.370339 -1.381849,-0.512628 -1.08477,-0.392022 -1.632243,-1.485319 -1.43009,-2.85587 0.145954,-0.989535 0.716021,-1.595107 2.151569,-2.285579 1.751269,-0.842325 2.579992,-0.902578 3.768008,-0.273952 0.51876,0.274495 1.164927,0.547783 1.435927,0.607304 0.593261,0.130301 1.08126,0.628052 1.418366,1.446705 0.230034,0.558637 0.224915,0.647376 -0.06484,1.123844 -0.173029,0.284524 -0.395001,0.517316 -0.493272,0.517316 -0.09827,0 -0.485715,0.337383 -0.860994,0.749739 -1.218968,1.339407 -3.21263,1.990288 -4.542825,1.483121 z m 0.808319,-1.390027 c 0.776582,-0.332883 1.439369,-0.877927 1.439369,-1.183669 0,-0.09589 -0.280961,0.04549 -0.624358,0.314173 -0.343397,0.268685 -0.844445,0.557859 -1.113438,0.642611 -0.268993,0.08475 -0.518736,0.243064 -0.554984,0.351806 -0.08724,0.261703 -0.02849,0.253105 0.853411,-0.124921 z m 2.771332,-2.591036 c 0,-0.137357 -0.07493,-0.249743 -0.166495,-0.249743 -0.09157,0 -0.166495,0.112386 -0.166495,0.249743 0,0.137359 0.07492,0.249744 0.166495,0.249744 0.09157,0 0.166495,-0.112385 0.166495,-0.249744 z m 7.742037,3.00955 c -0.500708,-0.224626 -1.467957,-1.164841 -1.962529,-1.907677 -0.223374,-0.335505 -0.230082,-0.4509 -0.04355,-0.749229 0.121273,-0.193953 0.266428,-0.61582 0.322563,-0.93748 0.137697,-0.789002 1.077815,-2.190192 1.655148,-2.466901 0.661166,-0.316889 3.942364,-0.288871 4.576547,0.03908 0.259438,0.134161 0.747034,0.548686 1.08355,0.921167 0.582842,0.645137 0.611845,0.732857 0.611845,1.850497 0,1.278169 -0.248592,1.954472 -0.865591,2.35487 -0.582,0.377688 -3.386495,1.13364 -4.178327,1.126269 -0.385094,-0.0036 -0.924941,-0.107352 -1.199658,-0.230595 z m 2.566815,-1.590362 c 0.566404,-0.162443 1.345828,-0.765006 1.345828,-1.040444 0,-0.08027 -0.259425,0.05193 -0.576501,0.293772 -0.317075,0.241846 -0.877451,0.480085 -1.245279,0.529421 -0.367827,0.04934 -0.628441,0.154967 -0.579141,0.234736 0.115549,0.186962 0.356127,0.182977 1.055093,-0.01749 z m -20.419539,1.164842 c -0.7590534,-0.461607 -0.8578174,-1.028823 -0.305277,-1.75324 0.56082,-0.735272 1.236404,-0.79035 1.746118,-0.142354 0.941788,1.19729 -0.174397,2.665764 -1.440841,1.895594 z M 35.54189,60.745601 c -0.142551,-0.203521 -0.259183,-0.506933 -0.259183,-0.67425 0,-0.361674 0.468791,-1.318849 0.730837,-1.492219 0.598161,-0.395744 1.433603,0.137739 1.433603,0.915447 0,0.541308 -0.289544,1.323666 -0.551526,1.490249 -0.400662,0.254764 -1.093481,0.132332 -1.353731,-0.239227 z"
       style="fill:#6e6e6e;stroke-width:0.16649541" />
    <path
       id="path819"
       d="m 16.884963,63.681489 c -0.36629,-0.139656 -0.988122,-0.370339 -1.381849,-0.512628 -1.08477,-0.392022 -1.632243,-1.485319 -1.43009,-2.85587 0.145954,-0.989535 0.716021,-1.595107 2.151569,-2.285579 1.751269,-0.842325 2.579992,-0.902578 3.768008,-0.273952 0.51876,0.274495 1.164927,0.547783 1.435927,0.607304 0.593261,0.130301 1.08126,0.628052 1.418366,1.446705 0.230034,0.558637 0.224915,0.647376 -0.06484,1.123844 -0.173029,0.284524 -0.395001,0.517316 -0.493272,0.517316 -0.09827,0 -0.485715,0.337383 -0.860994,0.749739 -1.218968,1.339407 -3.21263,1.990288 -4.542825,1.483121 z m 1.057192,-1.276799 c 1.148039,-0.586211 1.748552,-1.297081 1.394664,-1.650968 -0.1583,-0.158301 -0.301214,-0.107321 -0.660933,0.235762 -0.252427,0.240754 -0.806592,0.586197 -1.231471,0.767652 -0.844193,0.360529 -1.054185,0.578752 -0.912423,0.948182 0.127148,0.331342 0.205021,0.31474 1.410163,-0.300628 z m 2.760508,-2.567328 c 0.05895,-0.153616 0.0074,-0.379118 -0.114634,-0.501114 -0.30163,-0.301629 -0.89291,0.10402 -0.738426,0.506598 0.136966,0.356928 0.715414,0.35321 0.85306,-0.0055 z m 7.503988,2.872614 c -0.500708,-0.224626 -1.467957,-1.164841 -1.962529,-1.907677 -0.223374,-0.335505 -0.230082,-0.4509 -0.04355,-0.749229 0.121273,-0.193953 0.266428,-0.61582 0.322563,-0.93748 0.137697,-0.789002 1.077815,-2.190192 1.655148,-2.466901 0.661166,-0.316889 3.942364,-0.288871 4.576547,0.03908 0.259438,0.134161 0.747034,0.548686 1.08355,0.921167 0.582842,0.645137 0.611845,0.732857 0.611845,1.850497 0,1.278169 -0.248592,1.954472 -0.865591,2.35487 -0.582,0.377688 -3.386495,1.13364 -4.178327,1.126269 -0.385094,-0.0036 -0.924941,-0.107352 -1.199658,-0.230595 z m 3.046809,-1.495271 c 0.664619,-0.345801 1.256647,-1.040198 1.141867,-1.339311 -0.13148,-0.342632 -0.364608,-0.325903 -0.727409,0.05219 -0.432118,0.450338 -0.956347,0.68856 -1.515237,0.68856 -0.269526,0 -0.572359,0.09918 -0.672965,0.220405 -0.458304,0.552223 0.887668,0.839173 1.773744,0.378148 z m 2.037157,-2.353811 c 0.153864,-0.185393 0.162645,-0.307281 0.03158,-0.438347 -0.262416,-0.262412 -0.703419,-0.03863 -0.703419,0.35693 0,0.399924 0.370261,0.444795 0.671837,0.08141 z m -22.93669,3.423562 c -0.7590534,-0.461607 -0.8578174,-1.028823 -0.305277,-1.75324 0.56082,-0.735272 1.236404,-0.79035 1.746118,-0.142354 0.941788,1.19729 -0.174397,2.665764 -1.440841,1.895594 z M 35.54189,60.745601 c -0.142551,-0.203521 -0.259183,-0.506933 -0.259183,-0.67425 0,-0.361674 0.468791,-1.318849 0.730837,-1.492219 0.598161,-0.395744 1.433603,0.137739 1.433603,0.915447 0,0.541308 -0.289544,1.323666 -0.551526,1.490249 -0.400662,0.254764 -1.093481,0.132332 -1.353731,-0.239227 z M 5.2917873,53.864024 c -0.4010257,-0.853144 -0.276458,-1.455558 0.341541,-1.651703 0.2170866,-0.0689 0.5757583,-0.60105 0.9916509,-1.471277 0.3583548,-0.749834 0.8889971,-1.587999 1.1792043,-1.862591 l 0.5276501,-0.499256 3.4440874,-0.120821 c 5.175501,-0.18156 8.586325,-0.379453 8.798318,-0.510472 0.104255,-0.06443 1.901658,-0.227375 3.994231,-0.362094 5.749084,-0.370126 6.718346,-0.458613 6.718346,-0.613341 0,-0.07806 1.136332,-0.141932 2.525182,-0.141932 1.388848,0 2.480495,0.04468 2.425879,0.0993 -0.107476,0.107477 1.554948,1.651639 2.607838,2.422322 0.357136,0.261413 0.820053,0.475295 1.028704,0.475295 0.853655,0 1.198889,1.095733 0.584339,1.854629 -0.302188,0.373166 -0.426485,0.394441 -2.455808,0.420353 -1.218516,0.01556 -2.388048,-0.0538 -2.720243,-0.161311 -0.712421,-0.230575 -8.879153,-0.176201 -9.970319,0.06638 -0.401404,0.08924 -1.225556,0.194326 -1.83145,0.233529 -0.605894,0.03921 -1.738471,0.146907 -2.516838,0.239343 -3.022069,0.358887 -4.658374,0.506985 -6.709665,0.607274 -1.172071,0.05731 -2.520684,0.207925 -2.996916,0.334715 -0.476234,0.126791 -1.16557,0.234592 -1.5318604,0.239559 -1.077458,0.0146 -2.3712688,0.385556 -2.7453866,0.787124 -0.2087587,0.224076 -0.5444556,0.373265 -0.8398976,0.373265 -0.4209857,0 -0.5436871,-0.109645 -0.8485871,-0.758292 z"
       style="fill:#373738;stroke-width:0.16649541" />
  </g>
</svg>
